{"glyphs":{"0":{"ha":683,"x_min":57,"x_max":624,"o":"m 413 871 q 563 808 501 871 q 624 586 624 746 q 530 155 624 325 q 275 -15 436 -15 q 112 50 167 -15 q 57 274 57 115 q 94 559 57 422 q 208 783 131 696 q 413 871 286 871 m 289 93 q 469 219 400 93 q 538 556 538 346 q 494 725 538 685 q 393 765 450 765 q 250 700 306 765 q 169 529 194 635 q 143 303 143 424 q 188 134 143 175 q 289 93 232 93 z "},"1":{"ha":683,"x_min":1,"x_max":554,"o":"m 554 46 l 546 0 l 1 0 l 10 46 l 243 83 l 364 751 l 144 751 l 154 803 l 501 853 l 361 83 l 554 46 z "},"2":{"ha":683,"x_min":3,"x_max":638,"o":"m 17 0 l 3 69 l 328 353 q 467 510 424 436 q 510 669 510 583 q 479 751 510 717 q 371 785 449 785 q 283 772 340 785 q 168 735 225 760 l 154 789 q 271 844 208 818 q 417 871 333 871 q 574 829 511 871 q 638 682 638 788 q 577 494 638 592 q 394 294 517 397 l 142 86 l 485 104 l 511 106 l 572 108 l 549 0 l 17 0 z "},"3":{"ha":683,"x_min":-6,"x_max":579,"o":"m 365 871 q 517 834 456 871 q 579 721 579 797 q 508 557 579 619 q 357 465 436 494 q 498 401 449 449 q 547 286 547 354 q 440 75 547 163 q 154 -12 332 -12 q 69 -10 103 -12 q -6 1 36 -7 l 4 65 q 77 58 51 58 q 124 57 103 57 q 339 116 254 57 q 424 285 424 175 q 353 393 424 367 q 186 419 283 419 l 186 479 q 382 552 315 493 q 449 693 449 611 q 423 763 449 736 q 329 790 397 790 q 244 781 285 790 q 154 751 203 771 l 139 808 q 242 854 192 838 q 365 871 292 871 z "},"4":{"ha":683,"x_min":-7,"x_max":601,"o":"m 340 0 l 372 181 l 1 181 l -7 240 l 515 861 l 599 851 l 493 264 l 601 264 l 586 181 l 479 181 l 447 0 l 340 0 m 103 264 l 388 264 l 464 690 l 103 264 z "},"5":{"ha":683,"x_min":13,"x_max":631,"o":"m 631 849 l 614 756 l 257 756 l 200 549 q 436 513 357 549 q 542 423 515 476 q 569 315 569 369 q 456 78 569 169 q 153 -12 343 -12 q 87 -11 122 -12 q 13 0 51 -10 l 24 65 q 90 58 67 58 q 144 57 114 57 q 356 124 271 57 q 442 297 442 190 q 360 434 442 394 q 122 474 278 474 l 114 503 l 213 849 l 631 849 z "},"6":{"ha":683,"x_min":50,"x_max":607,"o":"m 271 -17 q 101 53 153 -17 q 50 229 50 124 q 122 522 50 386 q 315 751 194 657 q 576 876 435 844 l 583 825 q 331 665 419 769 q 206 442 242 561 q 301 498 247 474 q 426 522 356 522 q 570 465 533 522 q 607 336 607 408 q 580 189 607 272 q 480 44 553 106 q 271 -17 407 -17 m 300 54 q 438 130 394 54 q 482 315 482 206 q 464 408 482 369 q 383 446 446 446 q 262 415 314 446 q 186 360 210 383 q 176 281 179 319 q 172 207 172 243 q 200 101 172 147 q 300 54 228 54 z "},"7":{"ha":683,"x_min":89,"x_max":692,"o":"m 143 849 l 676 849 l 692 804 l 197 -28 l 89 7 l 578 756 l 128 756 l 143 849 z "},"8":{"ha":683,"x_min":40,"x_max":635,"o":"m 257 -18 q 90 31 139 -18 q 40 144 40 81 q 99 306 40 233 q 260 433 158 379 q 178 511 215 465 q 142 625 142 557 q 224 802 142 733 q 435 871 307 871 q 594 819 554 871 q 635 714 635 768 q 592 588 635 657 q 431 458 549 518 q 564 247 564 358 q 485 57 564 132 q 257 -18 406 -18 m 275 50 q 404 94 356 50 q 453 203 453 138 q 424 301 453 257 q 311 400 396 344 q 203 309 253 364 q 154 158 154 254 q 187 76 154 103 q 275 50 219 50 m 379 490 q 491 585 461 538 q 521 690 521 633 q 501 771 521 738 q 411 804 482 804 q 303 772 357 804 q 250 661 250 739 q 286 569 250 614 q 379 490 322 524 z "},"9":{"ha":683,"x_min":67,"x_max":640,"o":"m 75 -21 l 67 31 q 342 158 236 51 q 492 414 449 265 q 399 356 453 381 q 279 332 344 332 q 120 395 164 332 q 76 560 76 458 q 106 686 76 613 q 208 815 136 760 q 407 871 281 871 q 578 801 517 871 q 640 625 640 731 q 556 281 640 424 q 343 60 472 138 q 75 -21 214 -17 m 322 408 q 428 437 375 408 q 508 485 481 465 q 517 552 514 518 q 521 621 521 586 q 488 757 521 714 q 383 800 454 800 q 246 730 290 800 q 201 560 201 660 q 231 451 201 494 q 322 408 260 408 z "},"A":{"ha":764,"x_min":-44,"x_max":725,"o":"m 494 310 l 263 310 l 142 65 l 232 51 l 219 0 l -44 0 l -37 49 l 63 67 l 456 854 l 529 869 l 639 72 l 725 49 l 717 0 l 433 0 l 440 50 l 526 67 l 494 310 m 292 369 l 486 369 l 446 679 l 292 369 z "},"Á":{"ha":815,"x_min":-46,"x_max":724,"o":"m -46 0 l -39 49 l 61 67 l 454 854 l 528 869 l 638 72 l 724 49 l 715 0 l 432 0 l 439 50 l 525 67 l 493 310 l 261 310 l 140 65 l 231 51 l 218 0 l -46 0 m 290 369 l 485 369 l 444 679 l 290 369 m 394 904 l 372 931 l 586 1111 l 692 1072 l 692 1047 l 394 904 z "},"Ă":{"ha":815,"x_min":-46,"x_max":724,"o":"m -46 0 l -39 49 l 61 67 l 454 854 l 528 869 l 638 72 l 724 49 l 715 0 l 432 0 l 439 50 l 525 67 l 493 310 l 261 310 l 140 65 l 231 51 l 218 0 l -46 0 m 290 369 l 485 369 l 444 679 l 290 369 m 510 929 q 399 965 428 929 q 369 1050 369 1000 q 372 1070 369 1060 q 376 1090 375 1081 l 424 1090 q 419 1068 419 1081 q 440 1023 422 1042 q 519 1004 458 1004 q 621 1031 592 1004 q 656 1090 650 1057 l 701 1090 q 647 979 689 1029 q 510 929 606 929 z "},"Ắ":{"ha":764,"x_min":-44,"x_max":768,"o":"m 494 310 l 263 310 l 142 65 l 232 51 l 219 0 l -44 0 l -37 49 l 63 67 l 456 854 l 529 869 l 639 72 l 725 49 l 717 0 l 433 0 l 440 50 l 526 67 l 494 310 m 292 369 l 486 369 l 446 679 l 292 369 z "},"Ặ":{"ha":764,"x_min":-44,"x_max":725,"o":"m 494 310 l 263 310 l 142 65 l 232 51 l 219 0 l -44 0 l -37 49 l 63 67 l 456 854 l 529 869 l 639 72 l 725 49 l 717 0 l 433 0 l 440 50 l 526 67 l 494 310 m 292 369 l 486 369 l 446 679 l 292 369 m 289 -57 q 347 -81 321 -57 q 372 -140 372 -106 q 347 -197 372 -175 q 289 -219 321 -219 q 231 -197 256 -219 q 206 -140 206 -175 q 231 -81 206 -106 q 289 -57 256 -57 z "},"Ằ":{"ha":764,"x_min":-44,"x_max":725,"o":"m 494 310 l 263 310 l 142 65 l 232 51 l 219 0 l -44 0 l -37 49 l 63 67 l 456 854 l 529 869 l 639 72 l 725 49 l 717 0 l 433 0 l 440 50 l 526 67 l 494 310 m 292 369 l 486 369 l 446 679 l 292 369 z "},"Ẳ":{"ha":764,"x_min":-44,"x_max":725,"o":"m 494 310 l 263 310 l 142 65 l 232 51 l 219 0 l -44 0 l -37 49 l 63 67 l 456 854 l 529 869 l 639 72 l 725 49 l 717 0 l 433 0 l 440 50 l 526 67 l 494 310 m 292 369 l 486 369 l 446 679 l 292 369 m 519 1118 q 520 1125 519 1121 q 521 1132 521 1129 q 546 1170 524 1161 q 590 1188 568 1179 q 611 1225 611 1197 q 569 1256 611 1256 q 557 1255 564 1256 q 542 1254 550 1254 l 522 1210 l 481 1210 l 486 1283 q 582 1292 540 1292 q 688 1229 688 1292 q 674 1188 688 1203 q 642 1165 660 1174 q 598 1147 618 1154 q 572 1118 578 1140 l 519 1118 z "},"Ẵ":{"ha":764,"x_min":-44,"x_max":756,"o":"m 494 310 l 263 310 l 142 65 l 232 51 l 219 0 l -44 0 l -37 49 l 63 67 l 456 854 l 529 869 l 639 72 l 725 49 l 717 0 l 433 0 l 440 50 l 526 67 l 494 310 m 292 369 l 486 369 l 446 679 l 292 369 z "},"Ǎ":{"ha":764,"x_min":-44,"x_max":725,"o":"m 494 310 l 263 310 l 142 65 l 232 51 l 219 0 l -44 0 l -37 49 l 63 67 l 456 854 l 529 869 l 639 72 l 725 49 l 717 0 l 433 0 l 440 50 l 526 67 l 494 310 m 292 369 l 486 369 l 446 679 l 292 369 z "},"Â":{"ha":815,"x_min":-46,"x_max":724,"o":"m 493 310 l 261 310 l 140 65 l 231 51 l 218 0 l -46 0 l -39 49 l 61 67 l 454 854 l 528 869 l 638 72 l 724 49 l 715 0 l 432 0 l 439 50 l 525 67 l 493 310 m 667 903 l 538 1018 l 344 903 l 317 929 l 510 1117 l 593 1117 l 703 929 l 667 903 m 290 369 l 485 369 l 444 679 l 290 369 z "},"Ấ":{"ha":764,"x_min":-44,"x_max":878,"o":"m 494 310 l 263 310 l 142 65 l 232 51 l 219 0 l -44 0 l -37 49 l 63 67 l 456 854 l 529 869 l 639 72 l 725 49 l 717 0 l 433 0 l 440 50 l 526 67 l 494 310 m 292 369 l 486 369 l 446 679 l 292 369 m 650 974 l 619 990 l 757 1235 l 869 1235 l 878 1211 l 650 974 m 610 903 l 479 1021 l 288 903 l 260 929 l 453 1117 l 536 1117 l 646 929 l 610 903 z "},"Ậ":{"ha":764,"x_min":-44,"x_max":725,"o":"m 494 310 l 263 310 l 142 65 l 232 51 l 219 0 l -44 0 l -37 49 l 63 67 l 456 854 l 529 869 l 639 72 l 725 49 l 717 0 l 433 0 l 440 50 l 526 67 l 494 310 m 292 369 l 486 369 l 446 679 l 292 369 m 289 -57 q 347 -81 321 -57 q 372 -140 372 -106 q 347 -197 372 -175 q 289 -219 321 -219 q 231 -197 256 -219 q 206 -140 206 -175 q 231 -81 206 -106 q 289 -57 256 -57 z "},"Ầ":{"ha":764,"x_min":-44,"x_max":725,"o":"m 494 310 l 263 310 l 142 65 l 232 51 l 219 0 l -44 0 l -37 49 l 63 67 l 456 854 l 529 869 l 639 72 l 725 49 l 717 0 l 433 0 l 440 50 l 526 67 l 494 310 m 292 369 l 486 369 l 446 679 l 292 369 m 672 971 l 526 1214 l 540 1235 l 629 1235 l 706 981 l 672 971 m 610 903 l 479 1021 l 288 903 l 260 929 l 453 1117 l 536 1117 l 646 929 l 610 903 z "},"Ẩ":{"ha":764,"x_min":-44,"x_max":817,"o":"m 494 310 l 263 310 l 142 65 l 232 51 l 219 0 l -44 0 l -37 49 l 63 67 l 456 854 l 529 869 l 639 72 l 725 49 l 717 0 l 433 0 l 440 50 l 526 67 l 494 310 m 292 369 l 486 369 l 446 679 l 292 369 m 644 903 l 514 1021 l 322 903 l 294 929 l 488 1117 l 571 1117 l 681 929 l 644 903 m 649 1061 q 649 1068 649 1064 q 650 1075 650 1072 q 675 1113 653 1104 q 719 1131 697 1122 q 740 1168 740 1140 q 699 1199 740 1199 q 686 1198 693 1199 q 671 1197 679 1197 l 651 1153 l 610 1153 l 615 1226 q 711 1235 669 1235 q 817 1172 817 1235 q 803 1131 817 1146 q 771 1108 789 1117 q 727 1090 747 1097 q 701 1061 707 1083 l 649 1061 z "},"Ẫ":{"ha":764,"x_min":-44,"x_max":761,"o":"m 494 310 l 263 310 l 142 65 l 232 51 l 219 0 l -44 0 l -37 49 l 63 67 l 456 854 l 529 869 l 639 72 l 725 49 l 717 0 l 433 0 l 440 50 l 526 67 l 494 310 m 292 369 l 486 369 l 446 679 l 292 369 z "},"Ȁ":{"ha":764,"x_min":-44,"x_max":725,"o":"m 494 310 l 263 310 l 142 65 l 232 51 l 219 0 l -44 0 l -37 49 l 63 67 l 456 854 l 529 869 l 639 72 l 725 49 l 717 0 l 433 0 l 440 50 l 526 67 l 494 310 m 292 369 l 486 369 l 446 679 l 292 369 m 608 897 l 454 1099 l 454 1122 l 558 1122 l 638 913 l 608 897 m 383 897 l 231 1099 l 231 1122 l 335 1122 l 414 913 l 383 897 z "},"Ä":{"ha":815,"x_min":-46,"x_max":743,"o":"m -46 0 l -39 49 l 61 67 l 454 854 l 528 869 l 638 72 l 724 49 l 715 0 l 432 0 l 439 50 l 525 67 l 493 310 l 261 310 l 140 65 l 231 51 l 218 0 l -46 0 m 290 369 l 485 369 l 444 679 l 290 369 m 393 932 q 338 955 361 932 q 314 1008 314 978 q 338 1065 314 1042 q 393 1089 361 1089 q 449 1065 425 1089 q 472 1008 472 1042 q 449 955 472 978 q 393 932 425 932 m 663 932 q 607 955 631 932 q 583 1008 583 978 q 607 1065 583 1042 q 663 1089 631 1089 q 719 1065 694 1089 q 743 1008 743 1042 q 719 955 743 978 q 663 932 694 932 z "},"Ạ":{"ha":764,"x_min":-44,"x_max":725,"o":"m 494 310 l 263 310 l 142 65 l 232 51 l 219 0 l -44 0 l -37 49 l 63 67 l 456 854 l 529 869 l 639 72 l 725 49 l 717 0 l 433 0 l 440 50 l 526 67 l 494 310 m 292 369 l 486 369 l 446 679 l 292 369 m 289 -57 q 347 -81 321 -57 q 372 -140 372 -106 q 347 -197 372 -175 q 289 -219 321 -219 q 231 -197 256 -219 q 206 -140 206 -175 q 231 -81 206 -106 q 289 -57 256 -57 z "},"À":{"ha":815,"x_min":-46,"x_max":724,"o":"m -46 0 l -39 49 l 61 67 l 454 854 l 528 869 l 638 72 l 724 49 l 715 0 l 432 0 l 439 50 l 525 67 l 493 310 l 261 310 l 140 65 l 231 51 l 218 0 l -46 0 m 290 369 l 485 369 l 444 679 l 290 369 m 619 904 l 322 1047 l 322 1072 l 428 1111 l 642 931 l 619 904 z "},"Ả":{"ha":764,"x_min":-44,"x_max":725,"o":"m 494 310 l 263 310 l 142 65 l 232 51 l 219 0 l -44 0 l -37 49 l 63 67 l 456 854 l 529 869 l 639 72 l 725 49 l 717 0 l 433 0 l 440 50 l 526 67 l 494 310 m 292 369 l 486 369 l 446 679 l 292 369 m 485 939 q 485 946 485 942 q 486 953 486 950 q 511 991 489 982 q 555 1009 533 1000 q 576 1046 576 1018 q 535 1076 576 1076 q 522 1076 529 1076 q 507 1075 515 1075 l 488 1031 l 446 1031 l 451 1104 q 547 1113 506 1113 q 653 1050 653 1113 q 639 1009 653 1024 q 607 986 625 994 q 563 968 583 975 q 538 939 543 961 l 485 939 z "},"Ȃ":{"ha":764,"x_min":-44,"x_max":725,"o":"m 494 310 l 263 310 l 142 65 l 232 51 l 219 0 l -44 0 l -37 49 l 63 67 l 456 854 l 529 869 l 639 72 l 725 49 l 717 0 l 433 0 l 440 50 l 526 67 l 494 310 m 292 369 l 486 369 l 446 679 l 292 369 m 526 1099 q 638 1063 608 1099 q 667 978 667 1028 q 664 958 667 968 q 660 938 661 947 l 613 938 q 617 960 617 947 q 596 1005 614 986 q 517 1024 578 1024 q 415 997 444 1024 q 381 938 386 971 l 335 938 q 389 1049 347 999 q 526 1099 431 1099 z "},"Ā":{"ha":815,"x_min":-46,"x_max":724,"o":"m -46 0 l -39 49 l 61 67 l 454 854 l 528 869 l 638 72 l 724 49 l 715 0 l 432 0 l 439 50 l 525 67 l 493 310 l 261 310 l 140 65 l 231 51 l 218 0 l -46 0 m 290 369 l 485 369 l 444 679 l 290 369 m 340 957 l 351 1032 l 681 1032 l 669 957 l 340 957 z "},"Ą":{"ha":815,"x_min":-46,"x_max":729,"o":"m 446 -328 q 357 -299 383 -328 q 331 -229 331 -269 q 379 -101 331 -156 q 477 -10 428 -47 q 526 49 526 28 q 526 64 526 56 q 524 82 525 72 l 497 315 l 271 315 l 140 65 l 231 51 l 218 0 l -46 0 l -39 49 l 61 67 l 469 849 l 550 867 l 643 69 l 729 49 l 721 0 l 582 0 q 478 -68 531 0 q 426 -201 426 -136 q 493 -267 426 -267 q 567 -236 532 -267 l 586 -258 q 549 -293 586 -258 q 446 -328 513 -328 m 303 376 l 492 376 l 460 678 l 303 376 z "},"Å":{"ha":815,"x_min":-46,"x_max":724,"o":"m -46 0 l -39 49 l 61 67 l 454 854 l 528 869 l 638 72 l 724 49 l 715 0 l 432 0 l 439 50 l 525 67 l 493 310 l 261 310 l 140 65 l 231 51 l 218 0 l -46 0 m 290 369 l 485 369 l 444 679 l 290 369 m 515 888 q 426 915 456 888 q 397 985 397 943 q 440 1094 397 1049 q 560 1139 483 1139 q 648 1111 619 1139 q 676 1040 676 1083 q 633 933 676 979 q 515 888 590 888 m 524 936 q 585 968 568 936 q 601 1036 601 1000 q 551 1090 601 1090 q 490 1058 507 1090 q 472 988 472 1025 q 485 949 472 963 q 524 936 497 936 z "},"Ǻ":{"ha":764,"x_min":-44,"x_max":782,"o":"m 494 310 l 263 310 l 142 65 l 232 51 l 219 0 l -44 0 l -37 49 l 63 67 l 456 854 l 529 869 l 639 72 l 725 49 l 717 0 l 433 0 l 440 50 l 526 67 l 494 310 m 292 369 l 486 369 l 446 679 l 292 369 z "},"Ã":{"ha":815,"x_min":-46,"x_max":736,"o":"m 493 310 l 261 310 l 140 65 l 231 51 l 218 0 l -46 0 l -39 49 l 61 67 l 454 854 l 528 869 l 638 72 l 724 49 l 715 0 l 432 0 l 439 50 l 525 67 l 493 310 m 736 1063 q 690 970 714 1010 q 632 931 665 931 q 526 958 597 931 q 421 986 456 986 q 378 961 397 986 q 358 936 358 936 l 317 953 q 363 1047 339 1007 q 422 1086 388 1086 q 528 1058 458 1086 q 633 1031 597 1031 q 675 1055 657 1031 q 693 1079 693 1079 l 736 1063 m 290 369 l 485 369 l 444 679 l 290 369 z "},"Æ":{"ha":1004,"x_min":-140,"x_max":946,"o":"m 579 429 l 740 429 l 786 521 l 833 521 l 785 269 l 738 269 l 724 365 l 571 365 l 535 78 l 775 78 l 833 204 l 885 204 l 846 0 l 288 0 l 296 46 l 425 74 l 463 365 l 263 365 l 46 65 l 136 51 l 124 0 l -140 0 l -133 49 l -33 67 l 481 783 l 397 803 l 406 849 l 946 849 l 911 665 l 858 665 l 858 776 l 625 776 l 579 429 m 471 429 l 506 701 l 308 429 l 471 429 z "},"Ǽ":{"ha":1004,"x_min":-140,"x_max":946,"o":"m 579 429 l 740 429 l 786 521 l 833 521 l 785 269 l 738 269 l 724 365 l 571 365 l 535 78 l 775 78 l 833 204 l 885 204 l 846 0 l 288 0 l 296 46 l 425 74 l 463 365 l 263 365 l 46 65 l 136 51 l 124 0 l -140 0 l -133 49 l -33 67 l 481 783 l 397 803 l 406 849 l 946 849 l 911 665 l 858 665 l 858 776 l 625 776 l 579 429 m 471 429 l 506 701 l 308 429 l 471 429 z "},"B":{"ha":736,"x_min":-22,"x_max":688,"o":"m 471 449 q 638 269 638 410 q 541 78 638 156 q 297 0 444 0 l -22 0 l -14 46 l 107 74 l 243 775 l 133 803 l 142 849 l 453 849 q 631 803 575 849 q 688 689 688 758 q 625 528 688 589 q 471 449 563 467 m 356 468 q 506 519 442 468 q 571 674 571 571 q 438 789 571 789 q 394 787 413 789 q 353 779 375 785 l 293 468 l 356 468 m 214 68 q 292 57 247 57 q 442 107 367 57 q 518 279 518 157 q 472 381 518 346 q 336 415 425 415 l 282 415 l 214 68 z "},"C":{"ha":718,"x_min":49,"x_max":753,"o":"m 596 32 q 483 -1 539 11 q 354 -12 428 -12 q 119 74 190 -12 q 49 293 49 160 q 107 576 49 444 q 272 789 165 708 q 526 869 379 869 q 661 858 608 869 q 753 832 714 847 l 704 651 l 658 651 l 658 786 q 600 799 631 794 q 522 803 569 803 q 325 727 403 803 q 210 535 247 651 q 174 301 174 419 q 220 122 174 190 q 385 54 267 54 q 443 59 411 54 q 513 75 475 64 l 568 192 l 615 192 l 596 32 z "},"Ć":{"ha":724,"x_min":31,"x_max":735,"o":"m 578 32 q 466 -1 522 11 q 336 -12 410 -12 q 101 74 172 -12 q 31 293 31 160 q 89 576 31 444 q 254 789 147 708 q 508 869 361 869 q 643 858 590 869 q 735 832 696 847 l 686 651 l 640 651 l 640 786 q 583 799 614 794 q 504 803 551 803 q 306 727 383 803 q 192 535 229 651 q 156 301 156 419 q 201 122 156 190 q 367 54 247 54 q 425 59 393 54 q 494 75 457 64 l 550 192 l 597 192 l 578 32 m 415 904 l 393 931 l 607 1111 l 713 1072 l 713 1047 l 415 904 z "},"Č":{"ha":724,"x_min":31,"x_max":735,"o":"m 578 32 q 466 -1 522 11 q 336 -12 410 -12 q 101 74 172 -12 q 31 293 31 160 q 89 576 31 444 q 254 789 147 708 q 508 869 361 869 q 643 858 590 869 q 735 832 696 847 l 686 651 l 640 651 l 640 786 q 583 799 614 794 q 504 803 551 803 q 306 727 383 803 q 192 535 229 651 q 156 301 156 419 q 201 122 156 190 q 367 54 247 54 q 425 59 393 54 q 494 75 457 64 l 550 192 l 597 192 l 578 32 m 375 1117 l 517 1003 l 697 1118 l 725 1092 l 544 904 l 461 904 l 338 1092 l 375 1117 z "},"Ç":{"ha":724,"x_min":31,"x_max":735,"o":"m 578 32 q 468 0 522 11 q 343 -12 414 -11 l 317 -61 q 415 -85 385 -61 q 444 -143 444 -108 q 379 -257 444 -210 q 235 -304 314 -304 q 193 -302 211 -304 q 158 -294 175 -300 l 178 -257 q 231 -265 200 -265 q 319 -235 283 -265 q 354 -164 354 -206 q 335 -123 354 -142 q 260 -104 315 -104 l 258 -92 l 300 -11 q 93 83 156 -1 q 31 293 31 167 q 89 576 31 444 q 254 789 147 708 q 508 869 361 869 q 643 858 590 869 q 735 832 696 847 l 686 651 l 640 651 l 640 786 q 583 799 614 794 q 504 803 551 803 q 306 727 383 803 q 192 535 229 651 q 156 301 156 419 q 201 122 156 190 q 367 54 247 54 q 425 59 393 54 q 494 75 457 64 l 550 192 l 597 192 l 578 32 z "},"Ĉ":{"ha":718,"x_min":49,"x_max":753,"o":"m 596 32 q 483 -1 539 11 q 354 -12 428 -12 q 119 74 190 -12 q 49 293 49 160 q 107 576 49 444 q 272 789 165 708 q 526 869 379 869 q 661 858 608 869 q 753 832 714 847 l 704 651 l 658 651 l 658 786 q 600 799 631 794 q 522 803 569 803 q 325 727 403 803 q 210 535 247 651 q 174 301 174 419 q 220 122 174 190 q 385 54 267 54 q 443 59 411 54 q 513 75 475 64 l 568 192 l 615 192 l 596 32 z "},"Ċ":{"ha":718,"x_min":49,"x_max":753,"o":"m 596 32 q 483 -1 539 11 q 354 -12 428 -12 q 119 74 190 -12 q 49 293 49 160 q 107 576 49 444 q 272 789 165 708 q 526 869 379 869 q 661 858 608 869 q 753 832 714 847 l 704 651 l 658 651 l 658 786 q 600 799 631 794 q 522 803 569 803 q 325 727 403 803 q 210 535 247 651 q 174 301 174 419 q 220 122 174 190 q 385 54 267 54 q 443 59 411 54 q 513 75 475 64 l 568 192 l 615 192 l 596 32 z "},"D":{"ha":864,"x_min":-15,"x_max":815,"o":"m -15 0 l -7 46 l 115 74 l 251 775 l 140 803 l 149 849 l 499 849 q 740 771 664 849 q 815 558 815 693 q 762 292 815 421 q 604 82 708 164 q 349 0 500 0 l -15 0 m 351 57 q 553 140 478 57 q 660 339 628 222 q 693 557 693 456 q 641 725 693 667 q 478 783 589 783 q 408 781 438 783 q 360 775 378 778 l 225 81 q 282 64 247 71 q 351 57 317 57 z "},"Ǳ":{"ha":1575,"x_min":-15,"x_max":1592,"o":"m -15 0 l -7 46 l 115 74 l 251 775 l 140 803 l 149 849 l 499 849 q 740 771 664 849 q 815 558 815 693 q 762 292 815 421 q 604 82 708 164 q 349 0 500 0 l -15 0 m 351 57 q 553 140 478 57 q 660 339 628 222 q 693 557 693 456 q 641 725 693 667 q 478 783 589 783 q 408 781 438 783 q 360 775 378 778 l 225 81 q 282 64 247 71 q 351 57 317 57 m 1486 204 l 1433 0 l 894 0 l 879 46 l 1439 775 l 1129 775 l 1079 665 l 1029 665 l 1053 849 l 1592 849 l 1589 804 l 1029 75 l 1363 75 l 1436 204 l 1486 204 z "},"Ǆ":{"ha":1575,"x_min":-15,"x_max":1592,"o":"m -15 0 l -7 46 l 115 74 l 251 775 l 140 803 l 149 849 l 499 849 q 740 771 664 849 q 815 558 815 693 q 762 292 815 421 q 604 82 708 164 q 349 0 500 0 l -15 0 m 351 57 q 553 140 478 57 q 660 339 628 222 q 693 557 693 456 q 641 725 693 667 q 478 783 589 783 q 408 781 438 783 q 360 775 378 778 l 225 81 q 282 64 247 71 q 351 57 317 57 m 1486 204 l 1433 0 l 894 0 l 879 46 l 1439 775 l 1129 775 l 1079 665 l 1029 665 l 1053 849 l 1592 849 l 1589 804 l 1029 75 l 1363 75 l 1436 204 l 1486 204 z "},"Ð":{"ha":865,"x_min":-14,"x_max":817,"o":"m -14 0 l -6 46 l 117 74 l 176 385 l 64 385 l 76 449 l 189 449 l 253 775 l 142 803 l 150 849 l 500 849 q 740 771 664 849 q 817 558 817 693 q 763 292 817 421 q 606 82 710 164 q 350 0 501 0 l -14 0 m 353 57 q 555 140 481 57 q 662 339 629 222 q 694 557 694 456 q 642 725 694 667 q 479 783 590 783 q 409 781 439 783 q 361 775 379 778 l 297 449 l 453 449 l 440 385 l 285 385 l 226 81 q 284 64 250 71 q 353 57 318 57 z "},"Ď":{"ha":865,"x_min":-6,"x_max":825,"o":"m -6 0 l 3 46 l 125 74 l 261 775 l 150 803 l 158 849 l 508 849 q 749 771 672 849 q 825 558 825 693 q 772 292 825 421 q 614 82 718 164 q 358 0 510 0 l -6 0 m 361 57 q 563 140 489 57 q 670 339 638 222 q 703 557 703 456 q 651 725 703 667 q 488 783 599 783 q 417 781 447 783 q 369 775 388 778 l 235 81 q 292 64 258 71 q 361 57 326 57 m 450 904 l 326 1092 l 364 1117 l 506 1003 l 686 1118 l 714 1092 l 533 904 l 450 904 z "},"Đ":{"ha":865,"x_min":-6,"x_max":825,"o":"m -6 0 l 3 46 l 125 74 l 185 385 l 72 385 l 85 449 l 197 449 l 261 775 l 150 803 l 158 849 l 508 849 q 749 771 672 849 q 825 558 825 693 q 772 292 825 421 q 614 82 718 164 q 358 0 510 0 l -6 0 m 361 57 q 563 140 489 57 q 670 339 638 222 q 703 557 703 456 q 651 725 703 667 q 488 783 599 783 q 417 781 447 783 q 369 775 388 778 l 306 449 l 460 449 l 447 385 l 293 385 l 235 81 q 292 64 258 71 q 361 57 326 57 z "},"Ḍ":{"ha":864,"x_min":-15,"x_max":815,"o":"m -15 0 l -7 46 l 115 74 l 251 775 l 140 803 l 149 849 l 499 849 q 740 771 664 849 q 815 558 815 693 q 762 292 815 421 q 604 82 708 164 q 349 0 500 0 l -15 0 m 351 57 q 553 140 478 57 q 660 339 628 222 q 693 557 693 456 q 641 725 693 667 q 478 783 589 783 q 408 781 438 783 q 360 775 378 778 l 225 81 q 282 64 247 71 q 351 57 317 57 m 339 -57 q 397 -81 371 -57 q 422 -140 422 -106 q 397 -197 422 -175 q 339 -219 371 -219 q 281 -197 306 -219 q 256 -140 256 -175 q 281 -81 256 -106 q 339 -57 306 -57 z "},"ǲ":{"ha":1408,"x_min":-15,"x_max":1440,"o":"m -15 0 l -7 46 l 115 74 l 251 775 l 140 803 l 149 849 l 499 849 q 740 771 664 849 q 815 558 815 693 q 762 292 815 421 q 604 82 708 164 q 349 0 500 0 l -15 0 m 351 57 q 553 140 478 57 q 660 339 628 222 q 693 557 693 456 q 641 725 693 667 q 478 783 589 783 q 408 781 438 783 q 360 775 378 778 l 225 81 q 282 64 247 71 q 351 57 317 57 m 1226 -56 q 1135 -29 1181 -56 q 1045 23 1090 -3 q 957 49 1000 49 q 901 24 924 49 q 878 -1 878 -1 l 840 21 l 1283 583 l 963 583 l 950 685 l 1331 685 l 1413 707 l 1440 669 l 1006 125 q 1118 102 1072 125 q 1205 56 1164 79 q 1299 33 1246 33 q 1363 46 1336 33 l 1374 1 q 1306 -37 1342 -19 q 1226 -56 1269 -56 z "},"ǅ":{"ha":1408,"x_min":-15,"x_max":1440,"o":"m -15 0 l -7 46 l 115 74 l 251 775 l 140 803 l 149 849 l 499 849 q 740 771 664 849 q 815 558 815 693 q 762 292 815 421 q 604 82 708 164 q 349 0 500 0 l -15 0 m 351 57 q 553 140 478 57 q 660 339 628 222 q 693 557 693 456 q 641 725 693 667 q 478 783 589 783 q 408 781 438 783 q 360 775 378 778 l 225 81 q 282 64 247 71 q 351 57 317 57 m 1226 -56 q 1135 -29 1181 -56 q 1045 23 1090 -3 q 957 49 1000 49 q 901 24 924 49 q 878 -1 878 -1 l 840 21 l 1283 583 l 963 583 l 950 685 l 1331 685 l 1413 707 l 1440 669 l 1006 125 q 1118 102 1072 125 q 1205 56 1164 79 q 1299 33 1246 33 q 1363 46 1336 33 l 1374 1 q 1306 -37 1342 -19 q 1226 -56 1269 -56 m 1111 993 l 1239 865 l 1406 994 l 1433 968 l 1267 767 l 1183 767 l 1074 968 l 1111 993 z "},"E":{"ha":733,"x_min":-15,"x_max":717,"o":"m 539 540 l 586 540 l 538 289 l 490 289 l 476 385 l 292 385 l 232 78 l 514 78 l 572 204 l 624 204 l 585 0 l -15 0 l -7 46 l 122 74 l 258 775 l 140 803 l 149 849 l 717 849 l 682 665 l 629 665 l 629 776 l 367 776 l 304 449 l 493 449 l 539 540 z "},"É":{"ha":749,"x_min":-6,"x_max":726,"o":"m 549 540 l 596 540 l 547 289 l 500 289 l 486 385 l 301 385 l 242 78 l 524 78 l 582 204 l 633 204 l 594 0 l -6 0 l 3 46 l 132 74 l 268 775 l 150 803 l 158 849 l 726 849 l 692 665 l 639 665 l 639 776 l 376 776 l 314 449 l 503 449 l 549 540 m 378 904 l 356 931 l 569 1111 l 675 1072 l 675 1047 l 378 904 z "},"Ĕ":{"ha":733,"x_min":-15,"x_max":717,"o":"m 539 540 l 586 540 l 538 289 l 490 289 l 476 385 l 292 385 l 232 78 l 514 78 l 572 204 l 624 204 l 585 0 l -15 0 l -7 46 l 122 74 l 258 775 l 140 803 l 149 849 l 717 849 l 682 665 l 629 665 l 629 776 l 367 776 l 304 449 l 493 449 l 539 540 z "},"Ě":{"ha":749,"x_min":-6,"x_max":726,"o":"m 549 540 l 596 540 l 547 289 l 500 289 l 486 385 l 301 385 l 242 78 l 524 78 l 582 204 l 633 204 l 594 0 l -6 0 l 3 46 l 132 74 l 268 775 l 150 803 l 158 849 l 726 849 l 692 665 l 639 665 l 639 776 l 376 776 l 314 449 l 503 449 l 549 540 m 350 1117 l 492 1003 l 672 1118 l 700 1092 l 519 904 l 436 904 l 313 1092 l 350 1117 z "},"Ê":{"ha":749,"x_min":-6,"x_max":726,"o":"m 549 540 l 596 540 l 547 289 l 500 289 l 486 385 l 301 385 l 242 78 l 524 78 l 582 204 l 633 204 l 594 0 l -6 0 l 3 46 l 132 74 l 268 775 l 150 803 l 158 849 l 726 849 l 692 665 l 639 665 l 639 776 l 376 776 l 314 449 l 503 449 l 549 540 m 619 903 l 489 1021 l 297 903 l 269 929 l 463 1117 l 546 1117 l 656 929 l 619 903 z "},"Ế":{"ha":733,"x_min":-15,"x_max":863,"o":"m 539 540 l 586 540 l 538 289 l 490 289 l 476 385 l 292 385 l 232 78 l 514 78 l 572 204 l 624 204 l 585 0 l -15 0 l -7 46 l 122 74 l 258 775 l 140 803 l 149 849 l 717 849 l 682 665 l 629 665 l 629 776 l 367 776 l 304 449 l 493 449 l 539 540 m 635 974 l 604 990 l 742 1235 l 854 1235 l 863 1211 l 635 974 m 594 903 l 464 1021 l 272 903 l 244 929 l 438 1117 l 521 1117 l 631 929 l 594 903 z "},"Ệ":{"ha":733,"x_min":-15,"x_max":717,"o":"m 539 540 l 586 540 l 538 289 l 490 289 l 476 385 l 292 385 l 232 78 l 514 78 l 572 204 l 624 204 l 585 0 l -15 0 l -7 46 l 122 74 l 258 775 l 140 803 l 149 849 l 717 849 l 682 665 l 629 665 l 629 776 l 367 776 l 304 449 l 493 449 l 539 540 m 274 -57 q 331 -81 306 -57 q 357 -140 357 -106 q 331 -197 357 -175 q 274 -219 306 -219 q 215 -197 240 -219 q 190 -140 190 -175 q 215 -81 190 -106 q 274 -57 240 -57 z "},"Ề":{"ha":733,"x_min":-15,"x_max":717,"o":"m 539 540 l 586 540 l 538 289 l 490 289 l 476 385 l 292 385 l 232 78 l 514 78 l 572 204 l 624 204 l 585 0 l -15 0 l -7 46 l 122 74 l 258 775 l 140 803 l 149 849 l 717 849 l 682 665 l 629 665 l 629 776 l 367 776 l 304 449 l 493 449 l 539 540 m 657 971 l 511 1214 l 525 1235 l 614 1235 l 690 981 l 657 971 m 594 903 l 464 1021 l 272 903 l 244 929 l 438 1117 l 521 1117 l 631 929 l 594 903 z "},"Ể":{"ha":733,"x_min":-15,"x_max":801,"o":"m 539 540 l 586 540 l 538 289 l 490 289 l 476 385 l 292 385 l 232 78 l 514 78 l 572 204 l 624 204 l 585 0 l -15 0 l -7 46 l 122 74 l 258 775 l 140 803 l 149 849 l 717 849 l 682 665 l 629 665 l 629 776 l 367 776 l 304 449 l 493 449 l 539 540 m 633 1061 q 634 1068 633 1064 q 635 1075 635 1072 q 660 1113 638 1104 q 703 1131 682 1122 q 725 1168 725 1140 q 683 1199 725 1199 q 671 1198 678 1199 q 656 1197 664 1197 l 636 1153 l 594 1153 l 600 1226 q 696 1235 654 1235 q 801 1172 801 1235 q 788 1131 801 1146 q 756 1108 774 1117 q 712 1090 732 1097 q 686 1061 692 1083 l 633 1061 z "},"Ễ":{"ha":733,"x_min":-15,"x_max":746,"o":"m 539 540 l 586 540 l 538 289 l 490 289 l 476 385 l 292 385 l 232 78 l 514 78 l 572 204 l 624 204 l 585 0 l -15 0 l -7 46 l 122 74 l 258 775 l 140 803 l 149 849 l 717 849 l 682 665 l 629 665 l 629 776 l 367 776 l 304 449 l 493 449 l 539 540 z "},"Ȅ":{"ha":733,"x_min":-15,"x_max":717,"o":"m 539 540 l 586 540 l 538 289 l 490 289 l 476 385 l 292 385 l 232 78 l 514 78 l 572 204 l 624 204 l 585 0 l -15 0 l -7 46 l 122 74 l 258 775 l 140 803 l 149 849 l 717 849 l 682 665 l 629 665 l 629 776 l 367 776 l 304 449 l 493 449 l 539 540 m 593 897 l 439 1099 l 439 1122 l 543 1122 l 622 913 l 593 897 m 368 897 l 215 1099 l 215 1122 l 319 1122 l 399 913 l 368 897 z "},"Ë":{"ha":749,"x_min":-6,"x_max":726,"o":"m 549 540 l 596 540 l 547 289 l 500 289 l 486 385 l 301 385 l 242 78 l 524 78 l 582 204 l 633 204 l 594 0 l -6 0 l 3 46 l 132 74 l 268 775 l 150 803 l 158 849 l 726 849 l 692 665 l 639 665 l 639 776 l 376 776 l 314 449 l 503 449 l 549 540 m 414 1008 q 390 955 414 978 q 335 932 367 932 q 279 955 303 932 q 256 1008 256 978 q 279 1065 256 1042 q 335 1089 303 1089 q 390 1065 367 1089 q 414 1008 414 1042 m 685 1008 q 660 955 685 978 q 604 932 636 932 q 549 955 572 932 q 525 1008 525 978 q 549 1065 525 1042 q 604 1089 572 1089 q 660 1065 636 1089 q 685 1008 685 1042 z "},"Ė":{"ha":749,"x_min":-6,"x_max":726,"o":"m 549 540 l 596 540 l 547 289 l 500 289 l 486 385 l 301 385 l 242 78 l 524 78 l 582 204 l 633 204 l 594 0 l -6 0 l 3 46 l 132 74 l 268 775 l 150 803 l 158 849 l 726 849 l 692 665 l 639 665 l 639 776 l 376 776 l 314 449 l 503 449 l 549 540 m 565 1007 q 540 950 565 972 q 482 928 514 928 q 424 950 449 928 q 399 1007 399 972 q 424 1066 399 1042 q 482 1090 449 1090 q 540 1066 514 1090 q 565 1007 565 1042 z "},"Ẹ":{"ha":733,"x_min":-15,"x_max":717,"o":"m 539 540 l 586 540 l 538 289 l 490 289 l 476 385 l 292 385 l 232 78 l 514 78 l 572 204 l 624 204 l 585 0 l -15 0 l -7 46 l 122 74 l 258 775 l 140 803 l 149 849 l 717 849 l 682 665 l 629 665 l 629 776 l 367 776 l 304 449 l 493 449 l 539 540 m 274 -57 q 331 -81 306 -57 q 357 -140 357 -106 q 331 -197 357 -175 q 274 -219 306 -219 q 215 -197 240 -219 q 190 -140 190 -175 q 215 -81 190 -106 q 274 -57 240 -57 z "},"È":{"ha":749,"x_min":-6,"x_max":726,"o":"m 549 540 l 596 540 l 547 289 l 500 289 l 486 385 l 301 385 l 242 78 l 524 78 l 582 204 l 633 204 l 594 0 l -6 0 l 3 46 l 132 74 l 268 775 l 150 803 l 158 849 l 726 849 l 692 665 l 639 665 l 639 776 l 376 776 l 314 449 l 503 449 l 549 540 m 311 1047 l 311 1072 l 417 1111 l 631 931 l 608 904 l 311 1047 z "},"Ẻ":{"ha":733,"x_min":-15,"x_max":717,"o":"m 539 540 l 586 540 l 538 289 l 490 289 l 476 385 l 292 385 l 232 78 l 514 78 l 572 204 l 624 204 l 585 0 l -15 0 l -7 46 l 122 74 l 258 775 l 140 803 l 149 849 l 717 849 l 682 665 l 629 665 l 629 776 l 367 776 l 304 449 l 493 449 l 539 540 m 469 939 q 470 946 469 942 q 471 953 471 950 q 496 991 474 982 q 540 1009 518 1000 q 561 1046 561 1018 q 519 1076 561 1076 q 507 1076 514 1076 q 492 1075 500 1075 l 472 1031 l 431 1031 l 436 1104 q 532 1113 490 1113 q 638 1050 638 1113 q 624 1009 638 1024 q 592 986 610 994 q 548 968 568 975 q 522 939 528 961 l 469 939 z "},"Ȇ":{"ha":733,"x_min":-15,"x_max":717,"o":"m 539 540 l 586 540 l 538 289 l 490 289 l 476 385 l 292 385 l 232 78 l 514 78 l 572 204 l 624 204 l 585 0 l -15 0 l -7 46 l 122 74 l 258 775 l 140 803 l 149 849 l 717 849 l 682 665 l 629 665 l 629 776 l 367 776 l 304 449 l 493 449 l 539 540 m 511 1099 q 622 1063 593 1099 q 651 978 651 1028 q 649 958 651 968 q 644 938 646 947 l 597 938 q 601 960 601 947 q 581 1005 599 986 q 501 1024 563 1024 q 400 997 429 1024 q 365 938 371 971 l 319 938 q 374 1049 332 999 q 511 1099 415 1099 z "},"Ē":{"ha":749,"x_min":-6,"x_max":726,"o":"m 549 540 l 596 540 l 547 289 l 500 289 l 486 385 l 301 385 l 242 78 l 524 78 l 582 204 l 633 204 l 594 0 l -6 0 l 3 46 l 132 74 l 268 775 l 150 803 l 158 849 l 726 849 l 692 665 l 639 665 l 639 776 l 376 776 l 314 449 l 503 449 l 549 540 m 336 1032 l 665 1032 l 654 957 l 325 957 l 336 1032 z "},"Ę":{"ha":749,"x_min":-6,"x_max":726,"o":"m 503 -328 q 414 -299 440 -328 q 388 -229 388 -269 q 424 -123 388 -183 q 547 0 461 -62 l -6 0 l 3 46 l 132 74 l 268 775 l 150 803 l 158 849 l 726 849 l 692 665 l 639 665 l 639 776 l 376 776 l 314 449 l 503 449 l 549 540 l 596 540 l 547 289 l 500 289 l 486 385 l 301 385 l 242 78 l 524 78 l 582 204 l 633 204 l 594 0 q 519 -90 556 -35 q 483 -201 483 -144 q 550 -267 483 -267 q 624 -236 589 -267 l 643 -258 q 606 -293 643 -258 q 503 -328 569 -328 z "},"Ẽ":{"ha":749,"x_min":-6,"x_max":726,"o":"m 549 540 l 596 540 l 547 289 l 500 289 l 486 385 l 301 385 l 242 78 l 524 78 l 582 204 l 633 204 l 594 0 l -6 0 l 3 46 l 132 74 l 268 775 l 150 803 l 158 849 l 726 849 l 692 665 l 639 665 l 639 776 l 376 776 l 314 449 l 503 449 l 549 540 m 706 1063 q 659 970 683 1010 q 601 931 635 931 q 496 958 567 931 q 390 986 425 986 q 347 961 367 986 q 328 936 328 936 l 286 953 q 333 1047 308 1007 q 392 1086 357 1086 q 497 1058 428 1086 q 603 1031 567 1031 q 644 1055 626 1031 q 663 1079 663 1079 l 706 1063 z "},"F":{"ha":682,"x_min":-15,"x_max":717,"o":"m 717 849 l 682 665 l 628 665 l 628 776 l 367 776 l 301 435 l 488 435 l 533 526 l 581 526 l 532 275 l 485 275 l 478 371 l 289 371 l 231 75 l 388 47 l 379 0 l -15 0 l -7 46 l 122 74 l 258 775 l 140 803 l 149 849 l 717 849 z "},"G":{"ha":815,"x_min":49,"x_max":781,"o":"m 671 788 q 614 799 647 794 q 540 803 581 803 q 353 745 425 803 q 242 603 282 688 q 188 436 203 518 q 174 304 174 354 q 219 129 174 207 q 390 51 264 51 q 456 58 425 51 q 517 78 488 64 l 565 325 l 454 353 l 463 400 l 781 400 l 772 353 l 674 325 l 619 43 q 506 0 569 15 q 372 -15 443 -15 q 122 72 194 -15 q 49 290 49 158 q 103 572 49 439 q 269 788 158 704 q 553 871 381 871 q 672 861 606 871 q 779 829 739 851 l 725 653 l 676 653 l 671 788 z "},"Ǵ":{"ha":815,"x_min":49,"x_max":781,"o":"m 671 788 q 614 799 647 794 q 540 803 581 803 q 353 745 425 803 q 242 603 282 688 q 188 436 203 518 q 174 304 174 354 q 219 129 174 207 q 390 51 264 51 q 456 58 425 51 q 517 78 488 64 l 565 325 l 454 353 l 463 400 l 781 400 l 772 353 l 674 325 l 619 43 q 506 0 569 15 q 372 -15 443 -15 q 122 72 194 -15 q 49 290 49 158 q 103 572 49 439 q 269 788 158 704 q 553 871 381 871 q 672 861 606 871 q 779 829 739 851 l 725 653 l 676 653 l 671 788 z "},"Ğ":{"ha":806,"x_min":36,"x_max":768,"o":"m 658 788 q 601 799 636 794 q 528 803 567 803 q 342 745 414 803 q 230 603 269 688 q 176 436 190 518 q 161 304 161 354 q 206 129 161 207 q 378 51 250 51 q 444 58 413 51 q 504 78 475 64 l 553 325 l 442 353 l 450 400 l 768 400 l 760 353 l 661 325 l 607 43 q 494 0 557 15 q 360 -15 431 -15 q 109 72 182 -15 q 36 290 36 158 q 91 572 36 439 q 258 788 146 704 q 540 871 369 871 q 660 861 593 871 q 767 829 726 851 l 713 653 l 664 653 l 658 788 m 526 929 q 415 965 444 929 q 386 1050 386 1000 q 389 1070 386 1060 q 393 1090 392 1081 l 440 1090 q 436 1068 436 1081 q 457 1023 439 1042 q 536 1004 475 1004 q 638 1031 608 1004 q 672 1090 667 1057 l 718 1090 q 664 979 706 1029 q 526 929 622 929 z "},"Ǧ":{"ha":815,"x_min":49,"x_max":781,"o":"m 671 788 q 614 799 647 794 q 540 803 581 803 q 353 745 425 803 q 242 603 282 688 q 188 436 203 518 q 174 304 174 354 q 219 129 174 207 q 390 51 264 51 q 456 58 425 51 q 517 78 488 64 l 565 325 l 454 353 l 463 400 l 781 400 l 772 353 l 674 325 l 619 43 q 506 0 569 15 q 372 -15 443 -15 q 122 72 194 -15 q 49 290 49 158 q 103 572 49 439 q 269 788 158 704 q 553 871 381 871 q 672 861 606 871 q 779 829 739 851 l 725 653 l 676 653 l 671 788 z "},"Ĝ":{"ha":815,"x_min":49,"x_max":781,"o":"m 671 788 q 614 799 647 794 q 540 803 581 803 q 353 745 425 803 q 242 603 282 688 q 188 436 203 518 q 174 304 174 354 q 219 129 174 207 q 390 51 264 51 q 456 58 425 51 q 517 78 488 64 l 565 325 l 454 353 l 463 400 l 781 400 l 772 353 l 674 325 l 619 43 q 506 0 569 15 q 372 -15 443 -15 q 122 72 194 -15 q 49 290 49 158 q 103 572 49 439 q 269 788 158 704 q 553 871 381 871 q 672 861 606 871 q 779 829 739 851 l 725 653 l 676 653 l 671 788 z "},"Ģ":{"ha":806,"x_min":36,"x_max":768,"o":"m 658 788 q 601 799 636 794 q 528 803 567 803 q 342 745 414 803 q 230 603 269 688 q 176 436 190 518 q 161 304 161 354 q 206 129 161 207 q 378 51 250 51 q 444 58 413 51 q 504 78 475 64 l 553 325 l 442 353 l 450 400 l 768 400 l 760 353 l 661 325 l 607 43 q 494 0 557 15 q 360 -15 431 -15 q 109 72 182 -15 q 36 290 36 158 q 91 572 36 439 q 258 788 146 704 q 540 871 369 871 q 660 861 593 871 q 767 829 726 851 l 713 653 l 664 653 l 658 788 m 282 -307 l 247 -297 l 296 -65 l 400 -43 l 421 -67 l 282 -307 z "},"Ġ":{"ha":815,"x_min":49,"x_max":781,"o":"m 671 788 q 614 799 647 794 q 540 803 581 803 q 353 745 425 803 q 242 603 282 688 q 188 436 203 518 q 174 304 174 354 q 219 129 174 207 q 390 51 264 51 q 456 58 425 51 q 517 78 488 64 l 565 325 l 454 353 l 463 400 l 781 400 l 772 353 l 674 325 l 619 43 q 506 0 569 15 q 372 -15 443 -15 q 122 72 194 -15 q 49 290 49 158 q 103 572 49 439 q 269 788 158 704 q 553 871 381 871 q 672 861 606 871 q 779 829 739 851 l 725 653 l 676 653 l 671 788 z "},"H":{"ha":917,"x_min":-15,"x_max":953,"o":"m -15 0 l -7 46 l 107 74 l 243 776 l 140 803 l 147 849 l 474 849 l 467 803 l 351 776 l 289 457 l 660 457 l 722 776 l 618 803 l 626 849 l 953 849 l 944 803 l 831 776 l 694 74 l 800 46 l 792 0 l 464 0 l 472 46 l 586 74 l 647 389 l 276 389 l 215 74 l 319 46 l 311 0 l -15 0 z "},"Ħ":{"ha":917,"x_min":-15,"x_max":953,"o":"m 464 0 l 472 46 l 586 74 l 722 776 l 618 803 l 626 849 l 953 849 l 944 803 l 831 776 l 694 74 l 800 46 l 792 0 l 464 0 m -15 0 l -7 46 l 107 74 l 243 776 l 140 803 l 147 849 l 474 849 l 467 803 l 351 776 l 215 74 l 319 46 l 311 0 l -15 0 m 260 347 l 272 415 l 676 415 l 664 347 l 260 347 m 93 546 l 106 610 l 903 610 l 890 546 l 93 546 z "},"Ĥ":{"ha":917,"x_min":-15,"x_max":953,"o":"m -15 0 l -7 46 l 107 74 l 243 776 l 140 803 l 147 849 l 474 849 l 467 803 l 351 776 l 289 457 l 660 457 l 722 776 l 618 803 l 626 849 l 953 849 l 944 803 l 831 776 l 694 74 l 800 46 l 792 0 l 464 0 l 472 46 l 586 74 l 647 389 l 276 389 l 215 74 l 319 46 l 311 0 l -15 0 z "},"Ḥ":{"ha":917,"x_min":-15,"x_max":953,"o":"m -15 0 l -7 46 l 107 74 l 243 776 l 140 803 l 147 849 l 474 849 l 467 803 l 351 776 l 289 457 l 660 457 l 722 776 l 618 803 l 626 849 l 953 849 l 944 803 l 831 776 l 694 74 l 800 46 l 792 0 l 464 0 l 472 46 l 586 74 l 647 389 l 276 389 l 215 74 l 319 46 l 311 0 l -15 0 m 365 -57 q 423 -81 397 -57 q 449 -140 449 -106 q 423 -197 449 -175 q 365 -219 397 -219 q 307 -197 332 -219 q 282 -140 282 -175 q 307 -81 282 -106 q 365 -57 332 -57 z "},"I":{"ha":456,"x_min":-15,"x_max":492,"o":"m -15 0 l -7 46 l 115 74 l 251 775 l 140 803 l 149 849 l 492 849 l 483 803 l 360 775 l 224 74 l 336 46 l 328 0 l -15 0 z "},"Ĳ":{"ha":879,"x_min":-15,"x_max":944,"o":"m -15 0 l -7 46 l 115 74 l 251 775 l 140 803 l 149 849 l 492 849 l 483 803 l 360 775 l 224 74 l 336 46 l 328 0 l -15 0 m 456 -207 q 382 -196 411 -207 q 333 -169 353 -185 l 346 -131 l 440 -131 q 531 -82 504 -131 q 572 42 558 -33 l 706 775 l 594 803 l 603 849 l 944 849 l 936 803 l 815 775 l 690 88 q 600 -146 658 -85 q 456 -207 542 -207 z "},"Í":{"ha":489,"x_min":-7,"x_max":513,"o":"m -7 0 l 1 46 l 124 74 l 260 775 l 149 803 l 157 849 l 500 849 l 492 803 l 368 775 l 232 74 l 344 46 l 336 0 l -7 0 m 215 904 l 193 931 l 407 1111 l 513 1072 l 513 1047 l 215 904 z "},"Ĭ":{"ha":456,"x_min":-15,"x_max":536,"o":"m -15 0 l -7 46 l 115 74 l 251 775 l 140 803 l 149 849 l 492 849 l 483 803 l 360 775 l 224 74 l 336 46 l 328 0 l -15 0 z "},"Ǐ":{"ha":456,"x_min":-15,"x_max":565,"o":"m -15 0 l -7 46 l 115 74 l 251 775 l 140 803 l 149 849 l 492 849 l 483 803 l 360 775 l 224 74 l 336 46 l 328 0 l -15 0 z "},"Î":{"ha":489,"x_min":-7,"x_max":536,"o":"m -7 0 l 1 46 l 124 74 l 260 775 l 149 803 l 157 849 l 500 849 l 492 803 l 368 775 l 232 74 l 344 46 l 336 0 l -7 0 m 178 903 l 150 929 l 343 1117 l 426 1117 l 536 929 l 500 903 l 369 1021 l 178 903 z "},"Ȉ":{"ha":456,"x_min":-15,"x_max":492,"o":"m -15 0 l -7 46 l 115 74 l 251 775 l 140 803 l 149 849 l 492 849 l 483 803 l 360 775 l 224 74 l 336 46 l 328 0 l -15 0 m 454 897 l 300 1099 l 300 1122 l 404 1122 l 483 913 l 454 897 m 229 897 l 76 1099 l 76 1122 l 181 1122 l 260 913 l 229 897 z "},"Ï":{"ha":489,"x_min":-7,"x_max":567,"o":"m -7 0 l 1 46 l 124 74 l 260 775 l 149 803 l 157 849 l 500 849 l 492 803 l 368 775 l 232 74 l 344 46 l 336 0 l -7 0 m 217 932 q 162 955 186 932 q 138 1008 138 978 q 162 1065 138 1042 q 217 1089 186 1089 q 272 1065 247 1089 q 296 1008 296 1042 q 272 955 296 978 q 217 932 247 932 m 486 932 q 431 955 456 932 q 407 1008 407 978 q 431 1065 407 1042 q 486 1089 456 1089 q 542 1065 517 1089 q 567 1008 567 1042 q 542 955 567 978 q 486 932 517 932 z "},"İ":{"ha":489,"x_min":-7,"x_max":500,"o":"m -7 0 l 1 46 l 124 74 l 260 775 l 149 803 l 157 849 l 500 849 l 492 803 l 368 775 l 232 74 l 344 46 l 336 0 l -7 0 m 353 928 q 294 950 319 928 q 269 1007 269 972 q 294 1066 269 1042 q 353 1090 319 1090 q 410 1066 385 1090 q 436 1007 436 1042 q 410 950 436 972 q 353 928 385 928 z "},"Ị":{"ha":456,"x_min":-15,"x_max":492,"o":"m -15 0 l -7 46 l 115 74 l 251 775 l 140 803 l 149 849 l 492 849 l 483 803 l 360 775 l 224 74 l 336 46 l 328 0 l -15 0 m 135 -57 q 192 -81 167 -57 q 218 -140 218 -106 q 192 -197 218 -175 q 135 -219 167 -219 q 76 -197 101 -219 q 51 -140 51 -175 q 76 -81 51 -106 q 135 -57 101 -57 z "},"Ì":{"ha":489,"x_min":-7,"x_max":513,"o":"m -7 0 l 1 46 l 124 74 l 260 775 l 149 803 l 157 849 l 500 849 l 492 803 l 368 775 l 232 74 l 344 46 l 336 0 l -7 0 m 490 904 l 193 1047 l 193 1072 l 299 1111 l 513 931 l 490 904 z "},"Ỉ":{"ha":456,"x_min":-15,"x_max":499,"o":"m -15 0 l -7 46 l 115 74 l 251 775 l 140 803 l 149 849 l 492 849 l 483 803 l 360 775 l 224 74 l 336 46 l 328 0 l -15 0 m 331 939 q 331 946 331 942 q 332 953 332 950 q 357 991 335 982 q 401 1009 379 1000 q 422 1046 422 1018 q 381 1076 422 1076 q 368 1076 375 1076 q 353 1075 361 1075 l 333 1031 l 292 1031 l 297 1104 q 393 1113 351 1113 q 499 1050 499 1113 q 485 1009 499 1024 q 453 986 471 994 q 409 968 429 975 q 383 939 389 961 l 331 939 z "},"Ȋ":{"ha":456,"x_min":-15,"x_max":513,"o":"m -15 0 l -7 46 l 115 74 l 251 775 l 140 803 l 149 849 l 492 849 l 483 803 l 360 775 l 224 74 l 336 46 l 328 0 l -15 0 m 372 1099 q 483 1063 454 1099 q 513 978 513 1028 q 510 958 513 968 q 506 938 507 947 l 458 938 q 463 960 463 947 q 442 1005 460 986 q 363 1024 424 1024 q 261 997 290 1024 q 226 938 232 971 l 181 938 q 235 1049 193 999 q 372 1099 276 1099 z "},"Ī":{"ha":489,"x_min":-7,"x_max":513,"o":"m -7 0 l 1 46 l 124 74 l 260 775 l 149 803 l 157 849 l 500 849 l 492 803 l 368 775 l 232 74 l 344 46 l 336 0 l -7 0 m 200 968 l 211 1040 l 513 1040 l 501 968 l 200 968 z "},"Į":{"ha":489,"x_min":-7,"x_max":500,"o":"m 200 -328 q 111 -299 138 -328 q 85 -229 85 -269 q 126 -110 85 -172 q 257 0 168 -47 l -7 0 l 1 46 l 124 74 l 260 775 l 149 803 l 157 849 l 500 849 l 492 803 l 368 775 l 232 74 l 344 46 l 336 0 q 224 -89 267 -33 q 181 -201 181 -144 q 247 -267 181 -267 q 321 -236 286 -267 l 340 -258 q 303 -293 340 -258 q 200 -328 267 -328 z "},"Ĩ":{"ha":489,"x_min":-7,"x_max":563,"o":"m -7 0 l 1 46 l 124 74 l 260 775 l 149 803 l 157 849 l 500 849 l 492 803 l 368 775 l 232 74 l 344 46 l 336 0 l -7 0 m 458 931 q 352 958 422 931 q 247 986 282 986 q 205 961 225 986 q 185 936 185 936 l 143 953 q 190 1047 165 1007 q 249 1086 214 1086 q 353 1058 283 1086 q 460 1031 424 1031 q 501 1055 483 1031 q 519 1079 519 1079 l 563 1063 q 516 970 540 1010 q 458 931 492 931 z "},"J":{"ha":424,"x_min":-122,"x_max":489,"o":"m 0 -207 q -74 -196 -44 -207 q -122 -169 -103 -185 l -110 -131 l -15 -131 q 76 -82 49 -131 q 117 42 103 -33 l 250 775 l 139 803 l 147 849 l 489 849 l 481 803 l 360 775 l 235 88 q 144 -146 203 -85 q 0 -207 86 -207 z "},"Ĵ":{"ha":424,"x_min":-122,"x_max":511,"o":"m 0 -207 q -74 -196 -44 -207 q -122 -169 -103 -185 l -110 -131 l -15 -131 q 76 -82 49 -131 q 117 42 103 -33 l 250 775 l 139 803 l 147 849 l 489 849 l 481 803 l 360 775 l 235 88 q 144 -146 203 -85 q 0 -207 86 -207 z "},"K":{"ha":772,"x_min":-15,"x_max":833,"o":"m 701 0 l 501 0 l 293 433 l 224 74 l 336 46 l 328 0 l -15 0 l -7 46 l 115 74 l 251 775 l 140 803 l 149 849 l 492 849 l 483 803 l 360 775 l 296 450 l 639 775 l 558 803 l 567 849 l 833 849 l 825 803 l 726 775 l 401 463 l 596 72 l 710 46 l 701 0 z "},"Ķ":{"ha":782,"x_min":-6,"x_max":843,"o":"m 711 0 l 511 0 l 303 433 l 233 74 l 346 46 l 338 0 l -6 0 l 3 46 l 125 74 l 261 775 l 150 803 l 158 849 l 501 849 l 493 803 l 369 775 l 306 450 l 649 775 l 568 803 l 576 849 l 843 849 l 835 803 l 736 775 l 411 463 l 606 72 l 719 46 l 711 0 m 283 -307 l 249 -297 l 297 -65 l 401 -43 l 422 -67 l 283 -307 z "},"L":{"ha":624,"x_min":-15,"x_max":582,"o":"m 543 0 l -15 0 l -7 46 l 115 74 l 251 775 l 140 803 l 149 849 l 492 849 l 483 803 l 360 775 l 224 78 l 475 78 l 532 204 l 582 204 l 543 0 z "},"Ǉ":{"ha":1047,"x_min":-15,"x_max":1113,"o":"m 543 0 l -15 0 l -7 46 l 115 74 l 251 775 l 140 803 l 149 849 l 492 849 l 483 803 l 360 775 l 224 78 l 475 78 l 532 204 l 582 204 l 543 0 m 624 -207 q 550 -196 579 -207 q 501 -169 521 -185 l 514 -131 l 608 -131 q 699 -82 672 -131 q 740 42 726 -33 l 874 775 l 763 803 l 771 849 l 1113 849 l 1104 803 l 983 775 l 858 88 q 768 -146 826 -85 q 624 -207 710 -207 z "},"Ĺ":{"ha":642,"x_min":-6,"x_max":592,"o":"m 553 0 l -6 0 l 3 46 l 125 74 l 261 775 l 150 803 l 158 849 l 501 849 l 493 803 l 369 775 l 233 78 l 485 78 l 542 204 l 592 204 l 553 0 m 238 904 l 215 931 l 429 1111 l 535 1072 l 535 1047 l 238 904 z "},"Ľ":{"ha":642,"x_min":-6,"x_max":592,"o":"m 553 0 l -6 0 l 3 46 l 125 74 l 261 775 l 150 803 l 158 849 l 501 849 l 493 803 l 369 775 l 233 78 l 485 78 l 542 204 l 592 204 l 553 0 m 221 1117 l 363 1003 l 543 1118 l 571 1092 l 390 904 l 307 904 l 183 1092 l 221 1117 z "},"Ļ":{"ha":642,"x_min":-6,"x_max":592,"o":"m 553 0 l -6 0 l 3 46 l 125 74 l 261 775 l 150 803 l 158 849 l 501 849 l 493 803 l 369 775 l 233 78 l 485 78 l 542 204 l 592 204 l 553 0 m 239 -307 l 204 -297 l 253 -65 l 357 -43 l 378 -67 l 239 -307 z "},"Ŀ":{"ha":624,"x_min":-15,"x_max":635,"o":"m 543 0 l -15 0 l -7 46 l 115 74 l 251 775 l 140 803 l 149 849 l 492 849 l 483 803 l 360 775 l 224 78 l 475 78 l 532 204 l 582 204 l 543 0 m 635 606 q 613 549 635 572 q 554 525 590 525 q 499 549 522 525 q 476 606 476 572 q 499 663 476 642 q 554 685 522 685 q 613 663 590 685 q 635 606 635 642 z "},"ǈ":{"ha":1008,"x_min":-15,"x_max":1006,"o":"m 543 0 l -15 0 l -7 46 l 115 74 l 251 775 l 140 803 l 149 849 l 492 849 l 483 803 l 360 775 l 224 78 l 475 78 l 532 204 l 582 204 l 543 0 m 592 -232 q 484 -212 526 -232 q 442 -192 442 -192 l 453 -140 q 503 -151 476 -147 q 558 -156 531 -156 q 665 -123 624 -156 q 721 0 706 -90 l 826 608 l 721 618 l 715 653 q 833 688 768 674 q 921 701 897 701 q 949 669 949 701 q 937 598 949 667 q 907 424 925 529 q 869 201 889 318 q 831 -14 849 85 q 752 -174 813 -115 q 592 -232 692 -232 m 924 808 q 867 832 892 808 q 842 886 842 856 q 867 944 842 921 q 924 968 892 968 q 981 944 957 968 q 1006 886 1006 921 q 981 832 1006 856 q 924 808 957 808 z "},"Ł":{"ha":642,"x_min":-6,"x_max":592,"o":"m 553 0 l -6 0 l 3 46 l 125 74 l 179 357 l 74 303 l 46 357 l 194 433 l 261 775 l 150 803 l 158 849 l 501 849 l 493 803 l 369 775 l 314 494 l 436 557 l 467 504 l 300 418 l 233 78 l 485 78 l 542 204 l 592 204 l 553 0 z "},"M":{"ha":1103,"x_min":-3,"x_max":1122,"o":"m 290 0 l -3 0 l 6 46 l 117 74 l 275 776 l 176 803 l 185 849 l 421 849 l 514 164 l 868 849 l 1122 849 l 1114 803 l 990 775 l 879 74 l 993 46 l 985 0 l 639 0 l 647 46 l 769 74 l 871 706 l 499 0 l 431 -14 l 332 710 l 189 74 l 299 46 l 290 0 z "},"N":{"ha":939,"x_min":-19,"x_max":979,"o":"m 689 849 l 979 849 l 971 803 l 858 776 l 708 0 l 644 -11 l 292 678 l 175 74 l 282 46 l 274 0 l -19 0 l -11 46 l 99 74 l 235 776 l 136 803 l 144 849 l 325 849 l 671 181 l 786 776 l 681 803 l 689 849 z "},"Ǌ":{"ha":1363,"x_min":-19,"x_max":1428,"o":"m 689 849 l 979 849 l 971 803 l 858 776 l 708 0 l 644 -11 l 292 678 l 175 74 l 282 46 l 274 0 l -19 0 l -11 46 l 99 74 l 235 776 l 136 803 l 144 849 l 325 849 l 671 181 l 786 776 l 681 803 l 689 849 m 939 -207 q 865 -196 894 -207 q 817 -169 836 -185 l 829 -131 l 924 -131 q 1015 -82 988 -131 q 1056 42 1042 -33 l 1189 775 l 1078 803 l 1086 849 l 1428 849 l 1419 803 l 1299 775 l 1174 88 q 1083 -146 1142 -85 q 939 -207 1025 -207 z "},"Ń":{"ha":981,"x_min":-6,"x_max":993,"o":"m 703 849 l 993 849 l 985 803 l 872 776 l 722 0 l 658 -11 l 306 678 l 189 74 l 296 46 l 288 0 l -6 0 l 3 46 l 113 74 l 249 776 l 150 803 l 158 849 l 339 849 l 685 181 l 800 776 l 694 803 l 703 849 m 494 904 l 472 931 l 686 1111 l 792 1072 l 792 1047 l 494 904 z "},"Ň":{"ha":981,"x_min":-6,"x_max":993,"o":"m 703 849 l 993 849 l 985 803 l 872 776 l 722 0 l 658 -11 l 306 678 l 189 74 l 296 46 l 288 0 l -6 0 l 3 46 l 113 74 l 249 776 l 150 803 l 158 849 l 339 849 l 685 181 l 800 776 l 694 803 l 703 849 m 440 1117 l 582 1003 l 763 1118 l 790 1092 l 610 904 l 526 904 l 403 1092 l 440 1117 z "},"Ņ":{"ha":981,"x_min":-6,"x_max":993,"o":"m 703 849 l 993 849 l 985 803 l 872 776 l 722 0 l 658 -11 l 306 678 l 189 74 l 296 46 l 288 0 l -6 0 l 3 46 l 113 74 l 249 776 l 150 803 l 158 849 l 339 849 l 685 181 l 800 776 l 694 803 l 703 849 m 342 -307 l 307 -297 l 356 -65 l 460 -43 l 481 -67 l 342 -307 z "},"Ṅ":{"ha":939,"x_min":-19,"x_max":979,"o":"m 689 849 l 979 849 l 971 803 l 858 776 l 708 0 l 644 -11 l 292 678 l 175 74 l 282 46 l 274 0 l -19 0 l -11 46 l 99 74 l 235 776 l 136 803 l 144 849 l 325 849 l 671 181 l 786 776 l 681 803 l 689 849 z "},"Ŋ":{"ha":939,"x_min":-19,"x_max":979,"o":"m 689 849 l 979 849 l 971 803 l 858 776 l 725 88 q 630 -165 689 -99 q 463 -232 571 -232 q 383 -220 418 -232 q 318 -192 349 -208 l 329 -140 q 386 -152 358 -149 q 443 -156 414 -156 q 558 -106 521 -156 q 608 58 594 -56 l 292 678 l 175 74 l 282 46 l 274 0 l -19 0 l -11 46 l 99 74 l 235 776 l 136 803 l 144 849 l 325 849 l 671 181 l 786 776 l 681 803 l 689 849 z "},"Ɲ":{"ha":939,"x_min":-182,"x_max":979,"o":"m 689 849 l 979 849 l 971 803 l 858 776 l 708 0 l 644 -11 l 292 676 q 272 556 286 636 q 234 338 258 476 q 172 -14 210 200 q 98 -176 153 -119 q -43 -232 43 -232 q -122 -219 -86 -232 q -182 -192 -158 -207 l -171 -140 q -120 -151 -147 -147 q -64 -156 -93 -156 q 41 -123 0 -156 q 97 0 82 -90 l 233 776 l 136 803 l 144 849 l 325 849 l 671 181 l 786 776 l 681 803 l 689 849 z "},"ǋ":{"ha":1324,"x_min":-19,"x_max":1321,"o":"m 689 849 l 979 849 l 971 803 l 858 776 l 708 0 l 644 -11 l 292 678 l 175 74 l 282 46 l 274 0 l -19 0 l -11 46 l 99 74 l 235 776 l 136 803 l 144 849 l 325 849 l 671 181 l 786 776 l 681 803 l 689 849 m 907 -232 q 799 -212 842 -232 q 757 -192 757 -192 l 768 -140 q 819 -151 792 -147 q 874 -156 846 -156 q 980 -123 939 -156 q 1036 0 1021 -90 l 1142 608 l 1036 618 l 1031 653 q 1148 688 1083 674 q 1236 701 1213 701 q 1264 669 1264 701 q 1252 598 1264 667 q 1222 424 1240 529 q 1184 201 1204 318 q 1146 -14 1164 85 q 1067 -174 1128 -115 q 907 -232 1007 -232 m 1239 808 q 1182 832 1207 808 q 1157 886 1157 856 q 1182 944 1157 921 q 1239 968 1207 968 q 1297 944 1272 968 q 1321 886 1321 921 q 1297 832 1321 856 q 1239 808 1272 808 z "},"Ñ":{"ha":981,"x_min":-6,"x_max":993,"o":"m 703 849 l 993 849 l 985 803 l 872 776 l 722 0 l 658 -11 l 306 678 l 189 74 l 296 46 l 288 0 l -6 0 l 3 46 l 113 74 l 249 776 l 150 803 l 158 849 l 339 849 l 685 181 l 800 776 l 694 803 l 703 849 m 819 1063 q 773 970 797 1010 q 715 931 749 931 q 610 958 681 931 q 504 986 539 986 q 461 961 481 986 q 442 936 442 936 l 400 953 q 447 1047 422 1007 q 506 1086 471 1086 q 611 1058 542 1086 q 717 1031 681 1031 q 758 1055 740 1031 q 776 1079 776 1079 l 819 1063 z "},"O":{"ha":865,"x_min":58,"x_max":838,"o":"m 364 -12 q 129 76 200 -12 q 58 299 58 164 q 113 575 58 444 q 274 788 168 706 q 535 869 381 869 q 769 783 700 869 q 838 564 838 696 q 784 283 838 415 q 625 69 731 151 q 364 -12 519 -12 m 376 54 q 576 138 501 54 q 683 340 650 222 q 715 557 715 457 q 674 731 715 658 q 518 803 633 803 q 350 744 415 803 q 248 601 285 686 q 197 433 211 517 q 183 301 183 350 q 226 124 183 194 q 376 54 268 54 z "},"Ó":{"ha":865,"x_min":58,"x_max":838,"o":"m 364 -12 q 129 76 200 -12 q 58 299 58 164 q 113 575 58 444 q 274 788 168 706 q 535 869 381 869 q 769 783 700 869 q 838 564 838 696 q 784 283 838 415 q 625 69 731 151 q 364 -12 519 -12 m 376 54 q 576 138 501 54 q 683 340 650 222 q 715 557 715 457 q 674 731 715 658 q 518 803 633 803 q 350 744 415 803 q 248 601 285 686 q 197 433 211 517 q 183 301 183 350 q 226 124 183 194 q 376 54 268 54 m 485 904 l 463 931 l 676 1111 l 782 1072 l 782 1047 l 485 904 z "},"Ŏ":{"ha":865,"x_min":58,"x_max":838,"o":"m 364 -12 q 129 76 200 -12 q 58 299 58 164 q 113 575 58 444 q 274 788 168 706 q 535 869 381 869 q 769 783 700 869 q 838 564 838 696 q 784 283 838 415 q 625 69 731 151 q 364 -12 519 -12 m 376 54 q 576 138 501 54 q 683 340 650 222 q 715 557 715 457 q 674 731 715 658 q 518 803 633 803 q 350 744 415 803 q 248 601 285 686 q 197 433 211 517 q 183 301 183 350 q 226 124 183 194 q 376 54 268 54 z "},"Ǒ":{"ha":865,"x_min":58,"x_max":838,"o":"m 364 -12 q 129 76 200 -12 q 58 299 58 164 q 113 575 58 444 q 274 788 168 706 q 535 869 381 869 q 769 783 700 869 q 838 564 838 696 q 784 283 838 415 q 625 69 731 151 q 364 -12 519 -12 m 376 54 q 576 138 501 54 q 683 340 650 222 q 715 557 715 457 q 674 731 715 658 q 518 803 633 803 q 350 744 415 803 q 248 601 285 686 q 197 433 211 517 q 183 301 183 350 q 226 124 183 194 q 376 54 268 54 z "},"Ô":{"ha":865,"x_min":58,"x_max":838,"o":"m 364 -12 q 129 76 200 -12 q 58 299 58 164 q 113 575 58 444 q 274 788 168 706 q 535 869 381 869 q 769 783 700 869 q 838 564 838 696 q 784 283 838 415 q 625 69 731 151 q 364 -12 519 -12 m 376 54 q 576 138 501 54 q 683 340 650 222 q 715 557 715 457 q 674 731 715 658 q 518 803 633 803 q 350 744 415 803 q 248 601 285 686 q 197 433 211 517 q 183 301 183 350 q 226 124 183 194 q 376 54 268 54 m 372 903 l 344 929 l 538 1117 l 621 1117 l 731 929 l 694 903 l 564 1021 l 372 903 z "},"Ố":{"ha":865,"x_min":58,"x_max":926,"o":"m 364 -12 q 129 76 200 -12 q 58 299 58 164 q 113 575 58 444 q 274 788 168 706 q 535 869 381 869 q 769 783 700 869 q 838 564 838 696 q 784 283 838 415 q 625 69 731 151 q 364 -12 519 -12 m 376 54 q 576 138 501 54 q 683 340 650 222 q 715 557 715 457 q 674 731 715 658 q 518 803 633 803 q 350 744 415 803 q 248 601 285 686 q 197 433 211 517 q 183 301 183 350 q 226 124 183 194 q 376 54 268 54 m 699 974 l 668 990 l 806 1235 l 918 1235 l 926 1211 l 699 974 m 658 903 l 528 1021 l 336 903 l 308 929 l 501 1117 l 585 1117 l 694 929 l 658 903 z "},"Ộ":{"ha":865,"x_min":58,"x_max":838,"o":"m 364 -12 q 129 76 200 -12 q 58 299 58 164 q 113 575 58 444 q 274 788 168 706 q 535 869 381 869 q 769 783 700 869 q 838 564 838 696 q 784 283 838 415 q 625 69 731 151 q 364 -12 519 -12 m 376 54 q 576 138 501 54 q 683 340 650 222 q 715 557 715 457 q 674 731 715 658 q 518 803 633 803 q 350 744 415 803 q 248 601 285 686 q 197 433 211 517 q 183 301 183 350 q 226 124 183 194 q 376 54 268 54 m 338 -57 q 395 -81 369 -57 q 421 -140 421 -106 q 395 -197 421 -175 q 338 -219 369 -219 q 279 -197 304 -219 q 254 -140 254 -175 q 279 -81 254 -106 q 338 -57 304 -57 z "},"Ồ":{"ha":865,"x_min":58,"x_max":838,"o":"m 364 -12 q 129 76 200 -12 q 58 299 58 164 q 113 575 58 444 q 274 788 168 706 q 535 869 381 869 q 769 783 700 869 q 838 564 838 696 q 784 283 838 415 q 625 69 731 151 q 364 -12 519 -12 m 376 54 q 576 138 501 54 q 683 340 650 222 q 715 557 715 457 q 674 731 715 658 q 518 803 633 803 q 350 744 415 803 q 248 601 285 686 q 197 433 211 517 q 183 301 183 350 q 226 124 183 194 q 376 54 268 54 m 721 971 l 575 1214 l 589 1235 l 678 1235 l 754 981 l 721 971 m 658 903 l 528 1021 l 336 903 l 308 929 l 501 1117 l 585 1117 l 694 929 l 658 903 z "},"Ổ":{"ha":865,"x_min":58,"x_max":865,"o":"m 364 -12 q 129 76 200 -12 q 58 299 58 164 q 113 575 58 444 q 274 788 168 706 q 535 869 381 869 q 769 783 700 869 q 838 564 838 696 q 784 283 838 415 q 625 69 731 151 q 364 -12 519 -12 m 376 54 q 576 138 501 54 q 683 340 650 222 q 715 557 715 457 q 674 731 715 658 q 518 803 633 803 q 350 744 415 803 q 248 601 285 686 q 197 433 211 517 q 183 301 183 350 q 226 124 183 194 q 376 54 268 54 m 697 1061 q 698 1068 697 1064 q 699 1075 699 1072 q 724 1113 701 1104 q 767 1131 746 1122 q 789 1168 789 1140 q 747 1199 789 1199 q 735 1198 742 1199 q 719 1197 728 1197 l 700 1153 l 658 1153 l 664 1226 q 760 1235 718 1235 q 865 1172 865 1235 q 851 1131 865 1146 q 819 1108 838 1117 q 776 1090 796 1097 q 750 1061 756 1083 l 697 1061 z "},"Ỗ":{"ha":865,"x_min":58,"x_max":838,"o":"m 364 -12 q 129 76 200 -12 q 58 299 58 164 q 113 575 58 444 q 274 788 168 706 q 535 869 381 869 q 769 783 700 869 q 838 564 838 696 q 784 283 838 415 q 625 69 731 151 q 364 -12 519 -12 m 376 54 q 576 138 501 54 q 683 340 650 222 q 715 557 715 457 q 674 731 715 658 q 518 803 633 803 q 350 744 415 803 q 248 601 285 686 q 197 433 211 517 q 183 301 183 350 q 226 124 183 194 q 376 54 268 54 z "},"Ȍ":{"ha":865,"x_min":58,"x_max":838,"o":"m 364 -12 q 129 76 200 -12 q 58 299 58 164 q 113 575 58 444 q 274 788 168 706 q 535 869 381 869 q 769 783 700 869 q 838 564 838 696 q 784 283 838 415 q 625 69 731 151 q 364 -12 519 -12 m 376 54 q 576 138 501 54 q 683 340 650 222 q 715 557 715 457 q 674 731 715 658 q 518 803 633 803 q 350 744 415 803 q 248 601 285 686 q 197 433 211 517 q 183 301 183 350 q 226 124 183 194 q 376 54 268 54 m 657 897 l 503 1099 l 503 1122 l 607 1122 l 686 913 l 657 897 m 432 897 l 279 1099 l 279 1122 l 383 1122 l 463 913 l 432 897 z "},"Ö":{"ha":865,"x_min":58,"x_max":838,"o":"m 364 -12 q 129 76 200 -12 q 58 299 58 164 q 113 575 58 444 q 274 788 168 706 q 535 869 381 869 q 769 783 700 869 q 838 564 838 696 q 784 283 838 415 q 625 69 731 151 q 364 -12 519 -12 m 376 54 q 576 138 501 54 q 683 340 650 222 q 715 557 715 457 q 674 731 715 658 q 518 803 633 803 q 350 744 415 803 q 248 601 285 686 q 197 433 211 517 q 183 301 183 350 q 226 124 183 194 q 376 54 268 54 m 426 932 q 371 955 394 932 q 347 1008 347 978 q 371 1065 347 1042 q 426 1089 394 1089 q 482 1065 458 1089 q 506 1008 506 1042 q 482 955 506 978 q 426 932 458 932 m 696 932 q 640 955 664 932 q 617 1008 617 978 q 640 1065 617 1042 q 696 1089 664 1089 q 752 1065 728 1089 q 776 1008 776 1042 q 752 955 776 978 q 696 932 728 932 z "},"Ọ":{"ha":865,"x_min":58,"x_max":838,"o":"m 364 -12 q 129 76 200 -12 q 58 299 58 164 q 113 575 58 444 q 274 788 168 706 q 535 869 381 869 q 769 783 700 869 q 838 564 838 696 q 784 283 838 415 q 625 69 731 151 q 364 -12 519 -12 m 376 54 q 576 138 501 54 q 683 340 650 222 q 715 557 715 457 q 674 731 715 658 q 518 803 633 803 q 350 744 415 803 q 248 601 285 686 q 197 433 211 517 q 183 301 183 350 q 226 124 183 194 q 376 54 268 54 m 338 -57 q 395 -81 369 -57 q 421 -140 421 -106 q 395 -197 421 -175 q 338 -219 369 -219 q 279 -197 304 -219 q 254 -140 254 -175 q 279 -81 254 -106 q 338 -57 304 -57 z "},"Ò":{"ha":865,"x_min":58,"x_max":838,"o":"m 364 -12 q 129 76 200 -12 q 58 299 58 164 q 113 575 58 444 q 274 788 168 706 q 535 869 381 869 q 769 783 700 869 q 838 564 838 696 q 784 283 838 415 q 625 69 731 151 q 364 -12 519 -12 m 376 54 q 576 138 501 54 q 683 340 650 222 q 715 557 715 457 q 674 731 715 658 q 518 803 633 803 q 350 744 415 803 q 248 601 285 686 q 197 433 211 517 q 183 301 183 350 q 226 124 183 194 q 376 54 268 54 m 681 904 l 383 1047 l 383 1072 l 489 1111 l 703 931 l 681 904 z "},"Ỏ":{"ha":865,"x_min":58,"x_max":838,"o":"m 364 -12 q 129 76 200 -12 q 58 299 58 164 q 113 575 58 444 q 274 788 168 706 q 535 869 381 869 q 769 783 700 869 q 838 564 838 696 q 784 283 838 415 q 625 69 731 151 q 364 -12 519 -12 m 376 54 q 576 138 501 54 q 683 340 650 222 q 715 557 715 457 q 674 731 715 658 q 518 803 633 803 q 350 744 415 803 q 248 601 285 686 q 197 433 211 517 q 183 301 183 350 q 226 124 183 194 q 376 54 268 54 m 533 939 q 534 946 533 942 q 535 953 535 950 q 560 991 538 982 q 603 1009 582 1000 q 625 1046 625 1018 q 583 1076 625 1076 q 571 1076 578 1076 q 556 1075 564 1075 l 536 1031 l 494 1031 l 500 1104 q 596 1113 554 1113 q 701 1050 701 1113 q 688 1009 701 1024 q 656 986 674 994 q 612 968 632 975 q 586 939 592 961 l 533 939 z "},"Ơ":{"ha":865,"x_min":58,"x_max":953,"o":"m 364 -12 q 129 76 200 -12 q 58 299 58 164 q 113 575 58 444 q 274 788 168 706 q 535 869 381 869 q 769 783 700 869 q 838 564 838 696 q 784 283 838 415 q 625 69 731 151 q 364 -12 519 -12 m 376 54 q 576 138 501 54 q 683 340 650 222 q 715 557 715 457 q 674 731 715 658 q 518 803 633 803 q 350 744 415 803 q 248 601 285 686 q 197 433 211 517 q 183 301 183 350 q 226 124 183 194 q 376 54 268 54 m 840 940 l 935 960 q 949 919 944 942 q 953 881 953 896 q 876 771 953 810 q 706 732 800 732 l 696 732 l 739 792 q 811 806 783 792 q 839 865 839 819 q 832 922 839 892 l 840 940 z "},"Ớ":{"ha":865,"x_min":58,"x_max":953,"o":"m 364 -12 q 129 76 200 -12 q 58 299 58 164 q 113 575 58 444 q 274 788 168 706 q 535 869 381 869 q 769 783 700 869 q 838 564 838 696 q 784 283 838 415 q 625 69 731 151 q 364 -12 519 -12 m 376 54 q 576 138 501 54 q 683 340 650 222 q 715 557 715 457 q 674 731 715 658 q 518 803 633 803 q 350 744 415 803 q 248 601 285 686 q 197 433 211 517 q 183 301 183 350 q 226 124 183 194 q 376 54 268 54 m 840 940 l 935 960 q 949 919 944 942 q 953 881 953 896 q 876 771 953 810 q 706 732 800 732 l 696 732 l 739 792 q 811 806 783 792 q 839 865 839 819 q 832 922 839 892 l 840 940 m 485 904 l 463 931 l 676 1111 l 782 1072 l 782 1047 l 485 904 z "},"Ợ":{"ha":865,"x_min":58,"x_max":953,"o":"m 364 -12 q 129 76 200 -12 q 58 299 58 164 q 113 575 58 444 q 274 788 168 706 q 535 869 381 869 q 769 783 700 869 q 838 564 838 696 q 784 283 838 415 q 625 69 731 151 q 364 -12 519 -12 m 376 54 q 576 138 501 54 q 683 340 650 222 q 715 557 715 457 q 674 731 715 658 q 518 803 633 803 q 350 744 415 803 q 248 601 285 686 q 197 433 211 517 q 183 301 183 350 q 226 124 183 194 q 376 54 268 54 m 840 940 l 935 960 q 949 919 944 942 q 953 881 953 896 q 876 771 953 810 q 706 732 800 732 l 696 732 l 739 792 q 811 806 783 792 q 839 865 839 819 q 832 922 839 892 l 840 940 m 338 -57 q 395 -81 369 -57 q 421 -140 421 -106 q 395 -197 421 -175 q 338 -219 369 -219 q 279 -197 304 -219 q 254 -140 254 -175 q 279 -81 254 -106 q 338 -57 304 -57 z "},"Ờ":{"ha":865,"x_min":58,"x_max":953,"o":"m 364 -12 q 129 76 200 -12 q 58 299 58 164 q 113 575 58 444 q 274 788 168 706 q 535 869 381 869 q 769 783 700 869 q 838 564 838 696 q 784 283 838 415 q 625 69 731 151 q 364 -12 519 -12 m 376 54 q 576 138 501 54 q 683 340 650 222 q 715 557 715 457 q 674 731 715 658 q 518 803 633 803 q 350 744 415 803 q 248 601 285 686 q 197 433 211 517 q 183 301 183 350 q 226 124 183 194 q 376 54 268 54 m 840 940 l 935 960 q 949 919 944 942 q 953 881 953 896 q 876 771 953 810 q 706 732 800 732 l 696 732 l 739 792 q 811 806 783 792 q 839 865 839 819 q 832 922 839 892 l 840 940 z "},"Ở":{"ha":865,"x_min":58,"x_max":953,"o":"m 364 -12 q 129 76 200 -12 q 58 299 58 164 q 113 575 58 444 q 274 788 168 706 q 535 869 381 869 q 769 783 700 869 q 838 564 838 696 q 784 283 838 415 q 625 69 731 151 q 364 -12 519 -12 m 376 54 q 576 138 501 54 q 683 340 650 222 q 715 557 715 457 q 674 731 715 658 q 518 803 633 803 q 350 744 415 803 q 248 601 285 686 q 197 433 211 517 q 183 301 183 350 q 226 124 183 194 q 376 54 268 54 m 840 940 l 935 960 q 949 919 944 942 q 953 881 953 896 q 876 771 953 810 q 706 732 800 732 l 696 732 l 739 792 q 811 806 783 792 q 839 865 839 819 q 832 922 839 892 l 840 940 m 533 939 q 534 946 533 942 q 535 953 535 950 q 560 991 538 982 q 603 1009 582 1000 q 625 1046 625 1018 q 583 1076 625 1076 q 571 1076 578 1076 q 556 1075 564 1075 l 536 1031 l 494 1031 l 500 1104 q 596 1113 554 1113 q 701 1050 701 1113 q 688 1009 701 1024 q 656 986 674 994 q 612 968 632 975 q 586 939 592 961 l 533 939 z "},"Ỡ":{"ha":865,"x_min":58,"x_max":953,"o":"m 364 -12 q 129 76 200 -12 q 58 299 58 164 q 113 575 58 444 q 274 788 168 706 q 535 869 381 869 q 769 783 700 869 q 838 564 838 696 q 784 283 838 415 q 625 69 731 151 q 364 -12 519 -12 m 376 54 q 576 138 501 54 q 683 340 650 222 q 715 557 715 457 q 674 731 715 658 q 518 803 633 803 q 350 744 415 803 q 248 601 285 686 q 197 433 211 517 q 183 301 183 350 q 226 124 183 194 q 376 54 268 54 m 840 940 l 935 960 q 949 919 944 942 q 953 881 953 896 q 876 771 953 810 q 706 732 800 732 l 696 732 l 739 792 q 811 806 783 792 q 839 865 839 819 q 832 922 839 892 l 840 940 z "},"Ő":{"ha":865,"x_min":58,"x_max":838,"o":"m 364 -12 q 129 76 200 -12 q 58 299 58 164 q 113 575 58 444 q 274 788 168 706 q 535 869 381 869 q 769 783 700 869 q 838 564 838 696 q 784 283 838 415 q 625 69 731 151 q 364 -12 519 -12 m 376 54 q 576 138 501 54 q 683 340 650 222 q 715 557 715 457 q 674 731 715 658 q 518 803 633 803 q 350 744 415 803 q 248 601 285 686 q 197 433 211 517 q 183 301 183 350 q 226 124 183 194 q 376 54 268 54 m 369 899 l 343 914 l 463 1122 l 567 1122 l 567 1099 l 369 899 m 593 899 l 567 914 l 686 1122 l 790 1122 l 790 1099 l 593 899 z "},"Ȏ":{"ha":865,"x_min":58,"x_max":838,"o":"m 364 -12 q 129 76 200 -12 q 58 299 58 164 q 113 575 58 444 q 274 788 168 706 q 535 869 381 869 q 769 783 700 869 q 838 564 838 696 q 784 283 838 415 q 625 69 731 151 q 364 -12 519 -12 m 376 54 q 576 138 501 54 q 683 340 650 222 q 715 557 715 457 q 674 731 715 658 q 518 803 633 803 q 350 744 415 803 q 248 601 285 686 q 197 433 211 517 q 183 301 183 350 q 226 124 183 194 q 376 54 268 54 m 575 1099 q 686 1063 657 1099 q 715 978 715 1028 q 713 958 715 968 q 708 938 710 947 l 661 938 q 665 960 665 947 q 644 1005 663 986 q 565 1024 626 1024 q 464 997 493 1024 q 429 938 435 971 l 383 938 q 438 1049 396 999 q 575 1099 479 1099 z "},"Ō":{"ha":865,"x_min":58,"x_max":838,"o":"m 364 -12 q 129 76 200 -12 q 58 299 58 164 q 113 575 58 444 q 274 788 168 706 q 535 869 381 869 q 769 783 700 869 q 838 564 838 696 q 784 283 838 415 q 625 69 731 151 q 364 -12 519 -12 m 376 54 q 576 138 501 54 q 683 340 650 222 q 715 557 715 457 q 674 731 715 658 q 518 803 633 803 q 350 744 415 803 q 248 601 285 686 q 197 433 211 517 q 183 301 183 350 q 226 124 183 194 q 376 54 268 54 m 396 957 l 407 1032 l 736 1032 l 725 957 l 396 957 z "},"Ǫ":{"ha":865,"x_min":58,"x_max":838,"o":"m 632 76 q 541 -22 585 39 q 497 -142 497 -83 q 563 -210 497 -210 q 638 -179 603 -210 l 657 -201 q 601 -249 636 -226 q 514 -271 567 -271 q 428 -241 454 -271 q 401 -172 401 -211 q 438 -66 401 -126 q 561 57 475 -6 l 632 76 m 364 -12 q 129 76 200 -12 q 58 299 58 164 q 113 575 58 444 q 274 788 168 706 q 535 869 381 869 q 769 783 700 869 q 838 564 838 696 q 784 283 838 415 q 625 69 731 151 q 364 -12 519 -12 m 376 54 q 576 138 501 54 q 683 340 650 222 q 715 557 715 457 q 674 731 715 658 q 518 803 633 803 q 350 744 415 803 q 248 601 285 686 q 197 433 211 517 q 183 301 183 350 q 226 124 183 194 q 376 54 268 54 z "},"Ø":{"ha":865,"x_min":58,"x_max":838,"o":"m 218 -133 l 261 0 q 106 107 154 26 q 58 299 58 188 q 113 575 58 444 q 274 788 168 706 q 535 869 381 869 l 542 869 l 579 983 l 664 983 l 624 861 q 788 757 739 838 q 838 564 838 676 q 784 283 838 415 q 625 69 731 151 q 364 -12 519 -12 l 342 -12 l 303 -133 l 218 -133 m 285 72 l 521 803 q 381 763 443 803 q 274 653 318 722 q 207 492 231 583 q 183 301 183 401 q 206 160 183 221 q 285 72 228 100 m 363 54 q 555 122 476 54 q 674 305 633 190 q 715 557 715 419 q 690 701 715 638 q 600 789 665 764 l 363 54 z "},"Ǿ":{"ha":865,"x_min":58,"x_max":838,"o":"m 218 -133 l 261 0 q 106 107 154 26 q 58 299 58 188 q 113 575 58 444 q 274 788 168 706 q 535 869 381 869 l 542 869 l 579 983 l 664 983 l 624 861 q 788 757 739 838 q 838 564 838 676 q 784 283 838 415 q 625 69 731 151 q 364 -12 519 -12 l 342 -12 l 303 -133 l 218 -133 m 285 72 l 521 803 q 381 763 443 803 q 274 653 318 722 q 207 492 231 583 q 183 301 183 401 q 206 160 183 221 q 285 72 228 100 m 363 54 q 555 122 476 54 q 674 305 633 190 q 715 557 715 419 q 690 701 715 638 q 600 789 665 764 l 363 54 z "},"Õ":{"ha":865,"x_min":58,"x_max":838,"o":"m 364 -12 q 129 76 200 -12 q 58 299 58 164 q 113 575 58 444 q 274 788 168 706 q 535 869 381 869 q 769 783 700 869 q 838 564 838 696 q 784 283 838 415 q 625 69 731 151 q 364 -12 519 -12 m 376 54 q 576 138 501 54 q 683 340 650 222 q 715 557 715 457 q 674 731 715 658 q 518 803 633 803 q 350 744 415 803 q 248 601 285 686 q 197 433 211 517 q 183 301 183 350 q 226 124 183 194 q 376 54 268 54 m 685 931 q 579 958 650 931 q 474 986 508 986 q 431 961 450 986 q 411 936 411 936 l 369 953 q 416 1047 392 1007 q 475 1086 440 1086 q 581 1058 511 1086 q 686 1031 650 1031 q 728 1055 710 1031 q 746 1079 746 1079 l 789 1063 q 742 970 767 1010 q 685 931 718 931 z "},"Œ":{"ha":1246,"x_min":92,"x_max":1163,"o":"m 397 0 q 163 82 233 0 q 92 299 92 164 q 151 570 92 444 q 322 772 211 696 q 586 849 432 849 l 1163 849 l 1128 665 l 1075 665 l 1075 776 l 814 776 l 750 449 l 939 449 l 985 540 l 1032 540 l 983 289 l 936 289 l 922 385 l 738 385 l 678 78 l 960 78 l 1018 204 l 1069 204 l 1031 0 l 397 0 m 431 67 q 499 69 465 67 q 569 81 532 72 l 703 768 q 631 778 667 775 q 558 782 594 782 q 389 726 456 782 q 284 590 322 671 q 230 430 246 510 q 214 301 214 350 q 268 131 214 194 q 431 67 322 67 z "},"P":{"ha":711,"x_min":-15,"x_max":704,"o":"m 447 849 q 635 803 565 849 q 704 667 704 758 q 655 488 704 560 q 531 381 606 417 q 383 346 457 346 q 333 349 360 346 q 281 360 307 353 l 225 74 l 369 47 l 361 0 l -15 0 l -7 46 l 117 74 l 251 769 l 139 800 l 149 849 l 447 849 m 290 413 q 328 403 308 406 q 367 401 347 401 q 510 457 436 401 q 583 657 583 513 q 546 758 583 726 q 447 790 508 790 q 361 776 406 790 l 290 413 z "},"Þ":{"ha":656,"x_min":-15,"x_max":635,"o":"m -15 0 l -7 46 l 115 74 l 251 775 l 140 803 l 149 849 l 492 849 l 483 803 l 360 775 l 336 657 l 400 657 q 635 489 635 657 q 588 324 635 389 q 470 228 540 260 q 331 196 400 196 q 291 197 311 196 q 249 201 271 197 l 224 74 l 336 46 l 328 0 l -15 0 m 315 247 q 452 296 389 247 q 515 474 515 344 q 477 576 515 550 q 388 601 439 601 q 352 599 365 601 q 325 594 339 597 l 258 250 q 283 247 269 247 q 315 247 297 247 z "},"Q":{"ha":875,"x_min":49,"x_max":828,"o":"m 636 -210 q 572 -200 601 -210 q 483 -151 543 -190 l 256 -3 q 99 129 150 61 q 49 307 49 197 q 106 584 49 456 q 269 791 163 713 q 524 869 375 869 q 758 783 689 869 q 828 564 828 696 q 772 286 828 414 q 617 81 717 158 q 383 4 517 4 l 390 0 q 571 -95 486 -54 q 678 -136 656 -136 l 783 -136 l 781 -175 q 713 -198 756 -186 q 636 -210 671 -210 m 365 57 q 536 116 469 57 q 640 260 603 175 q 693 428 678 346 q 708 557 708 511 q 667 727 708 651 q 504 803 625 803 q 356 756 419 803 q 252 633 293 708 q 191 472 211 557 q 171 311 171 386 q 210 136 171 215 q 365 57 250 57 z "},"R":{"ha":756,"x_min":-15,"x_max":707,"o":"m 508 0 q 437 273 458 192 q 397 371 415 354 q 339 388 378 388 l 289 388 l 228 74 l 343 46 l 335 0 l -15 0 l -7 46 l 119 74 l 256 775 l 140 803 l 149 849 l 465 849 q 650 798 596 849 q 704 678 704 747 q 656 526 704 614 q 469 406 608 438 q 518 366 503 393 q 550 272 533 339 q 604 76 567 206 l 707 46 l 699 0 l 508 0 m 379 443 q 528 508 469 443 q 588 669 588 572 q 556 760 588 731 q 449 790 525 790 q 364 776 413 790 l 300 443 l 379 443 z "},"Ŕ":{"ha":761,"x_min":-4,"x_max":718,"o":"m 519 0 q 448 273 469 192 q 408 371 426 354 q 350 388 389 388 l 300 388 l 239 74 l 354 46 l 346 0 l -4 0 l 4 46 l 131 74 l 267 775 l 151 803 l 160 849 l 476 849 q 661 798 607 849 q 715 678 715 747 q 667 526 715 614 q 481 406 619 438 q 529 366 514 393 q 561 272 544 339 q 615 76 578 206 l 718 46 l 710 0 l 519 0 m 390 443 q 540 508 481 443 q 599 669 599 572 q 567 760 599 731 q 460 790 536 790 q 375 776 424 790 l 311 443 l 390 443 m 365 904 l 343 931 l 557 1111 l 663 1072 l 663 1047 l 365 904 z "},"Ř":{"ha":761,"x_min":-4,"x_max":718,"o":"m 519 0 q 448 273 469 192 q 408 371 426 354 q 350 388 389 388 l 300 388 l 239 74 l 354 46 l 346 0 l -4 0 l 4 46 l 131 74 l 267 775 l 151 803 l 160 849 l 476 849 q 661 798 607 849 q 715 678 715 747 q 667 526 715 614 q 481 406 619 438 q 529 366 514 393 q 561 272 544 339 q 615 76 578 206 l 718 46 l 710 0 l 519 0 m 390 443 q 540 508 481 443 q 599 669 599 572 q 567 760 599 731 q 460 790 536 790 q 375 776 424 790 l 311 443 l 390 443 m 336 1117 l 478 1003 l 658 1118 l 686 1092 l 506 904 l 422 904 l 299 1092 l 336 1117 z "},"Ŗ":{"ha":761,"x_min":-4,"x_max":718,"o":"m 519 0 q 448 273 469 192 q 408 371 426 354 q 350 388 389 388 l 300 388 l 239 74 l 354 46 l 346 0 l -4 0 l 4 46 l 131 74 l 267 775 l 151 803 l 160 849 l 476 849 q 661 798 607 849 q 715 678 715 747 q 667 526 715 614 q 481 406 619 438 q 529 366 514 393 q 561 272 544 339 q 615 76 578 206 l 718 46 l 710 0 l 519 0 m 390 443 q 540 508 481 443 q 599 669 599 572 q 567 760 599 731 q 460 790 536 790 q 375 776 424 790 l 311 443 l 390 443 m 290 -307 l 256 -297 l 304 -65 l 408 -43 l 429 -67 l 290 -307 z "},"Ȑ":{"ha":756,"x_min":-15,"x_max":707,"o":"m 508 0 q 437 273 458 192 q 397 371 415 354 q 339 388 378 388 l 289 388 l 228 74 l 343 46 l 335 0 l -15 0 l -7 46 l 119 74 l 256 775 l 140 803 l 149 849 l 465 849 q 650 798 596 849 q 704 678 704 747 q 656 526 704 614 q 469 406 608 438 q 518 366 503 393 q 550 272 533 339 q 604 76 567 206 l 707 46 l 699 0 l 508 0 m 379 443 q 528 508 469 443 q 588 669 588 572 q 556 760 588 731 q 449 790 525 790 q 364 776 413 790 l 300 443 l 379 443 m 604 897 l 450 1099 l 450 1122 l 554 1122 l 633 913 l 604 897 m 379 897 l 226 1099 l 226 1122 l 331 1122 l 410 913 l 379 897 z "},"Ṛ":{"ha":756,"x_min":-15,"x_max":707,"o":"m 508 0 q 437 273 458 192 q 397 371 415 354 q 339 388 378 388 l 289 388 l 228 74 l 343 46 l 335 0 l -15 0 l -7 46 l 119 74 l 256 775 l 140 803 l 149 849 l 465 849 q 650 798 596 849 q 704 678 704 747 q 656 526 704 614 q 469 406 608 438 q 518 366 503 393 q 550 272 533 339 q 604 76 567 206 l 707 46 l 699 0 l 508 0 m 379 443 q 528 508 469 443 q 588 669 588 572 q 556 760 588 731 q 449 790 525 790 q 364 776 413 790 l 300 443 l 379 443 m 285 -57 q 342 -81 317 -57 q 368 -140 368 -106 q 342 -197 368 -175 q 285 -219 317 -219 q 226 -197 251 -219 q 201 -140 201 -175 q 226 -81 201 -106 q 285 -57 251 -57 z "},"Ȓ":{"ha":756,"x_min":-15,"x_max":707,"o":"m 508 0 q 437 273 458 192 q 397 371 415 354 q 339 388 378 388 l 289 388 l 228 74 l 343 46 l 335 0 l -15 0 l -7 46 l 119 74 l 256 775 l 140 803 l 149 849 l 465 849 q 650 798 596 849 q 704 678 704 747 q 656 526 704 614 q 469 406 608 438 q 518 366 503 393 q 550 272 533 339 q 604 76 567 206 l 707 46 l 699 0 l 508 0 m 379 443 q 528 508 469 443 q 588 669 588 572 q 556 760 588 731 q 449 790 525 790 q 364 776 413 790 l 300 443 l 379 443 m 522 1099 q 633 1063 604 1099 q 663 978 663 1028 q 660 958 663 968 q 656 938 657 947 l 608 938 q 613 960 613 947 q 592 1005 610 986 q 513 1024 574 1024 q 411 997 440 1024 q 376 938 382 971 l 331 938 q 385 1049 343 999 q 522 1099 426 1099 z "},"S":{"ha":658,"x_min":4,"x_max":647,"o":"m 221 -15 q 110 -5 169 -15 q 4 28 51 6 l 54 192 l 103 192 l 107 72 q 163 60 126 67 q 242 53 199 53 q 399 106 344 53 q 453 239 453 158 q 435 312 453 276 q 363 371 417 347 l 242 428 q 171 482 213 442 q 129 597 129 522 q 206 794 129 717 q 442 871 282 871 q 547 861 494 871 q 647 833 600 851 l 599 653 l 550 653 l 544 788 q 494 798 526 794 q 438 801 461 801 q 294 761 350 801 q 238 633 238 721 q 262 565 238 592 q 331 519 286 539 l 440 465 q 528 393 493 440 q 563 283 563 346 q 473 66 563 147 q 221 -15 383 -15 z "},"Ś":{"ha":642,"x_min":3,"x_max":646,"o":"m 219 -15 q 109 -5 168 -15 q 3 28 50 6 l 53 192 l 101 192 l 106 72 q 161 60 125 67 q 240 53 197 53 q 397 106 343 53 q 451 239 451 158 q 433 312 451 276 q 361 371 415 347 l 240 428 q 169 482 211 442 q 128 597 128 522 q 204 794 128 717 q 440 871 281 871 q 545 861 493 871 q 646 833 597 851 l 597 653 l 549 653 l 543 788 q 492 798 525 794 q 436 801 460 801 q 292 761 349 801 q 236 633 236 721 q 260 565 236 592 q 329 519 285 539 l 439 465 q 526 393 492 440 q 561 283 561 346 q 472 66 561 147 q 219 -15 382 -15 m 324 904 l 301 931 l 515 1111 l 621 1072 l 621 1047 l 324 904 z "},"Ꞌ":{"ha":121,"x_min":24,"x_max":219,"o":"m 67 390 l 24 399 l 104 849 l 204 849 l 219 826 l 67 390 z "},"Š":{"ha":642,"x_min":3,"x_max":653,"o":"m 219 -15 q 109 -5 168 -15 q 3 28 50 6 l 53 192 l 101 192 l 106 72 q 161 60 125 67 q 240 53 197 53 q 397 106 343 53 q 451 239 451 158 q 433 312 451 276 q 361 371 415 347 l 240 428 q 169 482 211 442 q 128 597 128 522 q 204 794 128 717 q 440 871 281 871 q 545 861 493 871 q 646 833 597 851 l 597 653 l 549 653 l 543 788 q 492 798 525 794 q 436 801 460 801 q 292 761 349 801 q 236 633 236 721 q 260 565 236 592 q 329 519 285 539 l 439 465 q 526 393 492 440 q 561 283 561 346 q 472 66 561 147 q 219 -15 382 -15 m 303 1117 l 444 1003 l 625 1118 l 653 1092 l 472 904 l 389 904 l 265 1092 l 303 1117 z "},"Ş":{"ha":642,"x_min":3,"x_max":646,"o":"m 561 283 q 478 72 561 153 q 244 -14 396 -8 l 219 -61 q 317 -85 288 -61 q 347 -143 347 -108 q 282 -257 347 -210 q 138 -304 217 -304 q 96 -302 114 -304 q 61 -294 78 -300 l 81 -257 q 133 -265 103 -265 q 222 -235 186 -265 q 257 -164 257 -206 q 238 -123 257 -142 q 163 -104 218 -104 l 161 -92 l 201 -15 q 99 -3 153 -14 q 3 28 46 8 l 53 192 l 101 192 l 106 72 q 161 60 125 67 q 240 53 197 53 q 397 106 343 53 q 451 239 451 158 q 433 312 451 276 q 361 371 415 347 l 240 428 q 169 482 211 442 q 128 597 128 522 q 204 794 128 717 q 440 871 281 871 q 545 861 493 871 q 646 833 597 851 l 597 653 l 549 653 l 543 788 q 492 798 525 794 q 436 801 460 801 q 292 761 349 801 q 236 633 236 721 q 260 565 236 592 q 329 519 285 539 l 439 465 q 526 393 492 440 q 561 283 561 346 z "},"Ŝ":{"ha":658,"x_min":4,"x_max":647,"o":"m 221 -15 q 110 -5 169 -15 q 4 28 51 6 l 54 192 l 103 192 l 107 72 q 163 60 126 67 q 242 53 199 53 q 399 106 344 53 q 453 239 453 158 q 435 312 453 276 q 363 371 417 347 l 242 428 q 171 482 213 442 q 129 597 129 522 q 206 794 129 717 q 442 871 282 871 q 547 861 494 871 q 647 833 600 851 l 599 653 l 550 653 l 544 788 q 494 798 526 794 q 438 801 461 801 q 294 761 350 801 q 238 633 238 721 q 262 565 238 592 q 331 519 286 539 l 440 465 q 528 393 493 440 q 563 283 563 346 q 473 66 563 147 q 221 -15 383 -15 z "},"Ș":{"ha":642,"x_min":3,"x_max":646,"o":"m 219 -15 q 109 -5 168 -15 q 3 28 50 6 l 53 192 l 101 192 l 106 72 q 161 60 125 67 q 240 53 197 53 q 397 106 343 53 q 451 239 451 158 q 433 312 451 276 q 361 371 415 347 l 240 428 q 169 482 211 442 q 128 597 128 522 q 204 794 128 717 q 440 871 281 871 q 545 861 493 871 q 646 833 597 851 l 597 653 l 549 653 l 543 788 q 492 798 525 794 q 436 801 460 801 q 292 761 349 801 q 236 633 236 721 q 260 565 236 592 q 329 519 285 539 l 439 465 q 526 393 492 440 q 561 283 561 346 q 472 66 561 147 q 219 -15 382 -15 m 164 -307 l 129 -297 l 178 -65 l 282 -43 l 303 -67 l 164 -307 z "},"Ṣ":{"ha":658,"x_min":4,"x_max":647,"o":"m 221 -15 q 110 -5 169 -15 q 4 28 51 6 l 54 192 l 103 192 l 107 72 q 163 60 126 67 q 242 53 199 53 q 399 106 344 53 q 453 239 453 158 q 435 312 453 276 q 363 371 417 347 l 242 428 q 171 482 213 442 q 129 597 129 522 q 206 794 129 717 q 442 871 282 871 q 547 861 494 871 q 647 833 600 851 l 599 653 l 550 653 l 544 788 q 494 798 526 794 q 438 801 461 801 q 294 761 350 801 q 238 633 238 721 q 262 565 238 592 q 331 519 286 539 l 440 465 q 528 393 493 440 q 563 283 563 346 q 473 66 563 147 q 221 -15 383 -15 m 236 -57 q 294 -81 268 -57 q 319 -140 319 -106 q 294 -197 319 -175 q 236 -219 268 -219 q 178 -197 203 -219 q 153 -140 153 -175 q 178 -81 153 -106 q 236 -57 203 -57 z "},"ẞ":{"ha":800,"x_min":-71,"x_max":790,"o":"m 458 -15 q 375 -5 414 -15 q 308 28 336 6 l 360 192 l 411 192 l 414 69 q 436 58 421 64 q 475 53 451 53 q 596 108 551 53 q 640 233 640 164 q 598 335 640 290 q 432 379 556 379 l 417 425 l 674 756 q 614 787 653 772 q 514 801 575 801 q 360 750 417 801 q 279 572 303 699 l 183 74 l 278 51 l 268 0 l -71 0 l -61 46 l 68 74 l 157 532 q 288 795 193 721 q 518 869 382 869 q 694 838 626 869 q 790 783 761 807 l 789 739 l 563 450 q 713 374 668 431 q 758 247 758 317 q 674 65 758 144 q 458 -15 589 -15 z "},"Ə":{"ha":863,"x_min":49,"x_max":814,"o":"m 354 -12 q 119 76 190 -12 q 49 299 49 164 q 65 457 49 381 l 683 457 q 689 538 689 494 q 637 731 688 660 q 453 803 586 803 q 372 797 415 803 q 278 775 329 790 l 222 658 l 175 658 l 194 818 q 318 854 250 839 q 471 869 386 869 q 729 789 644 869 q 814 549 814 708 q 753 251 814 378 q 590 56 693 125 q 354 -12 486 -12 m 367 54 q 572 158 499 54 q 672 389 646 263 l 181 389 q 176 341 178 363 q 174 301 174 319 q 216 124 174 194 q 367 54 258 54 z "},"T":{"ha":694,"x_min":75,"x_max":756,"o":"m 110 849 l 756 849 l 710 654 l 658 654 l 658 776 l 474 776 l 338 74 l 471 46 l 463 0 l 75 0 l 83 46 l 229 74 l 365 776 l 181 776 l 131 654 l 83 654 l 110 849 z "},"Ŧ":{"ha":694,"x_min":67,"x_max":756,"o":"m 78 461 l 668 461 l 657 397 l 67 397 l 78 461 m 110 849 l 756 849 l 710 654 l 658 654 l 658 776 l 474 776 l 338 74 l 471 46 l 463 0 l 75 0 l 83 46 l 229 74 l 365 776 l 181 776 l 131 654 l 83 654 l 110 849 z "},"Ť":{"ha":711,"x_min":94,"x_max":775,"o":"m 129 849 l 775 849 l 729 654 l 678 654 l 678 776 l 493 776 l 357 74 l 490 46 l 482 0 l 94 0 l 103 46 l 249 74 l 385 776 l 200 776 l 150 654 l 103 654 l 129 849 m 333 1117 l 475 1003 l 656 1118 l 683 1092 l 503 904 l 419 904 l 296 1092 l 333 1117 z "},"Ţ":{"ha":711,"x_min":94,"x_max":775,"o":"m 129 849 l 775 849 l 729 654 l 678 654 l 678 776 l 493 776 l 357 74 l 490 46 l 482 0 l 311 0 l 279 -61 q 377 -85 347 -61 q 407 -143 407 -108 q 342 -257 407 -210 q 197 -304 276 -304 q 156 -302 175 -304 q 121 -294 138 -300 l 140 -257 q 193 -265 163 -265 q 281 -235 244 -265 q 317 -164 317 -206 q 297 -123 317 -142 q 222 -104 278 -104 l 221 -92 l 269 0 l 94 0 l 103 46 l 249 74 l 385 776 l 200 776 l 150 654 l 103 654 l 129 849 z "},"Ț":{"ha":711,"x_min":94,"x_max":775,"o":"m 129 849 l 775 849 l 729 654 l 678 654 l 678 776 l 493 776 l 357 74 l 490 46 l 482 0 l 94 0 l 103 46 l 249 74 l 385 776 l 200 776 l 150 654 l 103 654 l 129 849 m 201 -307 l 167 -297 l 215 -65 l 319 -43 l 340 -67 l 201 -307 z "},"Ṭ":{"ha":694,"x_min":75,"x_max":756,"o":"m 110 849 l 756 849 l 710 654 l 658 654 l 658 776 l 474 776 l 338 74 l 471 46 l 463 0 l 75 0 l 83 46 l 229 74 l 365 776 l 181 776 l 131 654 l 83 654 l 110 849 m 254 -57 q 312 -81 286 -57 q 338 -140 338 -106 q 312 -197 338 -175 q 254 -219 286 -219 q 196 -197 221 -219 q 171 -140 171 -175 q 196 -81 171 -106 q 254 -57 221 -57 z "},"U":{"ha":847,"x_min":106,"x_max":910,"o":"m 704 328 q 660 186 692 267 q 556 46 628 106 q 356 -14 485 -14 q 163 50 214 -14 q 111 211 111 114 q 116 287 111 247 q 129 367 121 326 l 208 776 l 106 803 l 113 849 l 440 849 l 433 803 l 318 776 l 239 367 q 226 291 232 328 q 221 225 221 254 q 253 104 221 151 q 374 57 286 57 q 548 133 493 57 q 626 329 603 210 l 713 776 l 606 803 l 614 849 l 910 849 l 901 803 l 792 776 l 704 328 z "},"Ú":{"ha":921,"x_min":138,"x_max":942,"o":"m 736 328 q 692 186 725 267 q 588 46 660 106 q 388 -14 517 -14 q 194 50 246 -14 q 143 211 143 114 q 148 287 143 247 q 161 367 153 326 l 240 776 l 138 803 l 144 849 l 472 849 l 465 803 l 350 776 l 271 367 q 258 291 264 328 q 253 225 253 254 q 285 104 253 151 q 406 57 318 57 q 581 133 525 57 q 658 329 636 210 l 744 776 l 638 803 l 646 849 l 942 849 l 933 803 l 824 776 l 736 328 m 458 904 l 436 931 l 650 1111 l 756 1072 l 756 1047 l 458 904 z "},"Ŭ":{"ha":847,"x_min":106,"x_max":910,"o":"m 704 328 q 660 186 692 267 q 556 46 628 106 q 356 -14 485 -14 q 163 50 214 -14 q 111 211 111 114 q 116 287 111 247 q 129 367 121 326 l 208 776 l 106 803 l 113 849 l 440 849 l 433 803 l 318 776 l 239 367 q 226 291 232 328 q 221 225 221 254 q 253 104 221 151 q 374 57 286 57 q 548 133 493 57 q 626 329 603 210 l 713 776 l 606 803 l 614 849 l 910 849 l 901 803 l 792 776 l 704 328 z "},"Ǔ":{"ha":847,"x_min":106,"x_max":910,"o":"m 704 328 q 660 186 692 267 q 556 46 628 106 q 356 -14 485 -14 q 163 50 214 -14 q 111 211 111 114 q 116 287 111 247 q 129 367 121 326 l 208 776 l 106 803 l 113 849 l 440 849 l 433 803 l 318 776 l 239 367 q 226 291 232 328 q 221 225 221 254 q 253 104 221 151 q 374 57 286 57 q 548 133 493 57 q 626 329 603 210 l 713 776 l 606 803 l 614 849 l 910 849 l 901 803 l 792 776 l 704 328 z "},"Û":{"ha":921,"x_min":138,"x_max":942,"o":"m 736 328 q 692 186 725 267 q 588 46 660 106 q 388 -14 517 -14 q 194 50 246 -14 q 143 211 143 114 q 148 287 143 247 q 161 367 153 326 l 240 776 l 138 803 l 144 849 l 472 849 l 465 803 l 350 776 l 271 367 q 258 291 264 328 q 253 225 253 254 q 285 104 253 151 q 406 57 318 57 q 581 133 525 57 q 658 329 636 210 l 744 776 l 638 803 l 646 849 l 942 849 l 933 803 l 824 776 l 736 328 m 714 903 l 583 1021 l 392 903 l 364 929 l 557 1117 l 640 1117 l 750 929 l 714 903 z "},"Ȕ":{"ha":847,"x_min":106,"x_max":910,"o":"m 704 328 q 660 186 692 267 q 556 46 628 106 q 356 -14 485 -14 q 163 50 214 -14 q 111 211 111 114 q 116 287 111 247 q 129 367 121 326 l 208 776 l 106 803 l 113 849 l 440 849 l 433 803 l 318 776 l 239 367 q 226 291 232 328 q 221 225 221 254 q 253 104 221 151 q 374 57 286 57 q 548 133 493 57 q 626 329 603 210 l 713 776 l 606 803 l 614 849 l 910 849 l 901 803 l 792 776 l 704 328 m 650 897 l 496 1099 l 496 1122 l 600 1122 l 679 913 l 650 897 m 425 897 l 272 1099 l 272 1122 l 376 1122 l 456 913 l 425 897 z "},"Ü":{"ha":921,"x_min":138,"x_max":942,"o":"m 736 328 q 692 186 725 267 q 588 46 660 106 q 388 -14 517 -14 q 194 50 246 -14 q 143 211 143 114 q 148 287 143 247 q 161 367 153 326 l 240 776 l 138 803 l 144 849 l 472 849 l 465 803 l 350 776 l 271 367 q 258 291 264 328 q 253 225 253 254 q 285 104 253 151 q 406 57 318 57 q 581 133 525 57 q 658 329 636 210 l 744 776 l 638 803 l 646 849 l 942 849 l 933 803 l 824 776 l 736 328 m 528 1008 q 504 955 528 978 q 449 932 481 932 q 393 955 417 932 q 369 1008 369 978 q 393 1065 369 1042 q 449 1089 417 1089 q 504 1065 481 1089 q 528 1008 528 1042 m 799 1008 q 774 955 799 978 q 718 932 750 932 q 663 955 686 932 q 639 1008 639 978 q 663 1065 639 1042 q 718 1089 686 1089 q 774 1065 750 1089 q 799 1008 799 1042 z "},"Ǘ":{"ha":847,"x_min":106,"x_max":910,"o":"m 704 328 q 660 186 692 267 q 556 46 628 106 q 356 -14 485 -14 q 163 50 214 -14 q 111 211 111 114 q 116 287 111 247 q 129 367 121 326 l 208 776 l 106 803 l 113 849 l 440 849 l 433 803 l 318 776 l 239 367 q 226 291 232 328 q 221 225 221 254 q 253 104 221 151 q 374 57 286 57 q 548 133 493 57 q 626 329 603 210 l 713 776 l 606 803 l 614 849 l 910 849 l 901 803 l 792 776 l 704 328 m 524 1144 l 501 1171 l 715 1351 l 821 1313 l 821 1288 l 524 1144 z "},"Ǚ":{"ha":847,"x_min":106,"x_max":910,"o":"m 704 328 q 660 186 692 267 q 556 46 628 106 q 356 -14 485 -14 q 163 50 214 -14 q 111 211 111 114 q 116 287 111 247 q 129 367 121 326 l 208 776 l 106 803 l 113 849 l 440 849 l 433 803 l 318 776 l 239 367 q 226 291 232 328 q 221 225 221 254 q 253 104 221 151 q 374 57 286 57 q 548 133 493 57 q 626 329 603 210 l 713 776 l 606 803 l 614 849 l 910 849 l 901 803 l 792 776 l 704 328 z "},"Ǜ":{"ha":847,"x_min":106,"x_max":910,"o":"m 704 328 q 660 186 692 267 q 556 46 628 106 q 356 -14 485 -14 q 163 50 214 -14 q 111 211 111 114 q 116 287 111 247 q 129 367 121 326 l 208 776 l 106 803 l 113 849 l 440 849 l 433 803 l 318 776 l 239 367 q 226 291 232 328 q 221 225 221 254 q 253 104 221 151 q 374 57 286 57 q 548 133 493 57 q 626 329 603 210 l 713 776 l 606 803 l 614 849 l 910 849 l 901 803 l 792 776 l 704 328 z "},"Ǖ":{"ha":847,"x_min":106,"x_max":910,"o":"m 704 328 q 660 186 692 267 q 556 46 628 106 q 356 -14 485 -14 q 163 50 214 -14 q 111 211 111 114 q 116 287 111 247 q 129 367 121 326 l 208 776 l 106 803 l 113 849 l 440 849 l 433 803 l 318 776 l 239 367 q 226 291 232 328 q 221 225 221 254 q 253 104 221 151 q 374 57 286 57 q 548 133 493 57 q 626 329 603 210 l 713 776 l 606 803 l 614 849 l 910 849 l 901 803 l 792 776 l 704 328 z "},"Ụ":{"ha":847,"x_min":106,"x_max":910,"o":"m 704 328 q 660 186 692 267 q 556 46 628 106 q 356 -14 485 -14 q 163 50 214 -14 q 111 211 111 114 q 116 287 111 247 q 129 367 121 326 l 208 776 l 106 803 l 113 849 l 440 849 l 433 803 l 318 776 l 239 367 q 226 291 232 328 q 221 225 221 254 q 253 104 221 151 q 374 57 286 57 q 548 133 493 57 q 626 329 603 210 l 713 776 l 606 803 l 614 849 l 910 849 l 901 803 l 792 776 l 704 328 m 331 -57 q 388 -81 363 -57 q 414 -140 414 -106 q 388 -197 414 -175 q 331 -219 363 -219 q 272 -197 297 -219 q 247 -140 247 -175 q 272 -81 247 -106 q 331 -57 297 -57 z "},"Ù":{"ha":921,"x_min":138,"x_max":942,"o":"m 736 328 q 692 186 725 267 q 588 46 660 106 q 388 -14 517 -14 q 194 50 246 -14 q 143 211 143 114 q 148 287 143 247 q 161 367 153 326 l 240 776 l 138 803 l 144 849 l 472 849 l 465 803 l 350 776 l 271 367 q 258 291 264 328 q 253 225 253 254 q 285 104 253 151 q 406 57 318 57 q 581 133 525 57 q 658 329 636 210 l 744 776 l 638 803 l 646 849 l 942 849 l 933 803 l 824 776 l 736 328 m 704 904 l 407 1047 l 407 1072 l 513 1111 l 726 931 l 704 904 z "},"Ủ":{"ha":847,"x_min":106,"x_max":910,"o":"m 704 328 q 660 186 692 267 q 556 46 628 106 q 356 -14 485 -14 q 163 50 214 -14 q 111 211 111 114 q 116 287 111 247 q 129 367 121 326 l 208 776 l 106 803 l 113 849 l 440 849 l 433 803 l 318 776 l 239 367 q 226 291 232 328 q 221 225 221 254 q 253 104 221 151 q 374 57 286 57 q 548 133 493 57 q 626 329 603 210 l 713 776 l 606 803 l 614 849 l 910 849 l 901 803 l 792 776 l 704 328 m 526 939 q 527 946 526 942 q 528 953 528 950 q 553 991 531 982 q 597 1009 575 1000 q 618 1046 618 1018 q 576 1076 618 1076 q 564 1076 571 1076 q 549 1075 557 1075 l 529 1031 l 488 1031 l 493 1104 q 589 1113 547 1113 q 694 1050 694 1113 q 681 1009 694 1024 q 649 986 667 994 q 605 968 625 975 q 579 939 585 961 l 526 939 z "},"Ư":{"ha":847,"x_min":106,"x_max":989,"o":"m 704 328 q 660 186 692 267 q 556 46 628 106 q 356 -14 485 -14 q 163 50 214 -14 q 111 211 111 114 q 116 287 111 247 q 129 367 121 326 l 208 776 l 106 803 l 113 849 l 440 849 l 433 803 l 318 776 l 239 367 q 226 291 232 328 q 221 225 221 254 q 253 104 221 151 q 374 57 286 57 q 548 133 493 57 q 626 329 603 210 l 713 776 l 606 803 l 614 849 l 882 849 l 882 814 l 742 764 l 801 826 l 704 328 m 876 997 l 971 1017 q 985 975 981 997 q 989 938 989 953 q 913 828 989 867 q 742 789 836 789 l 732 789 l 775 849 q 847 863 819 849 q 875 922 875 876 q 868 979 875 949 l 876 997 z "},"Ứ":{"ha":847,"x_min":106,"x_max":989,"o":"m 704 328 q 660 186 692 267 q 556 46 628 106 q 356 -14 485 -14 q 163 50 214 -14 q 111 211 111 114 q 116 287 111 247 q 129 367 121 326 l 208 776 l 106 803 l 113 849 l 440 849 l 433 803 l 318 776 l 239 367 q 226 291 232 328 q 221 225 221 254 q 253 104 221 151 q 374 57 286 57 q 548 133 493 57 q 626 329 603 210 l 713 776 l 606 803 l 614 849 l 882 849 l 882 814 l 742 764 l 801 826 l 704 328 m 876 997 l 971 1017 q 985 975 981 997 q 989 938 989 953 q 913 828 989 867 q 742 789 836 789 l 732 789 l 775 849 q 847 863 819 849 q 875 922 875 876 q 868 979 875 949 l 876 997 m 478 904 l 456 931 l 669 1111 l 775 1072 l 775 1047 l 478 904 z "},"Ự":{"ha":847,"x_min":106,"x_max":989,"o":"m 704 328 q 660 186 692 267 q 556 46 628 106 q 356 -14 485 -14 q 163 50 214 -14 q 111 211 111 114 q 116 287 111 247 q 129 367 121 326 l 208 776 l 106 803 l 113 849 l 440 849 l 433 803 l 318 776 l 239 367 q 226 291 232 328 q 221 225 221 254 q 253 104 221 151 q 374 57 286 57 q 548 133 493 57 q 626 329 603 210 l 713 776 l 606 803 l 614 849 l 882 849 l 882 814 l 742 764 l 801 826 l 704 328 m 876 997 l 971 1017 q 985 975 981 997 q 989 938 989 953 q 913 828 989 867 q 742 789 836 789 l 732 789 l 775 849 q 847 863 819 849 q 875 922 875 876 q 868 979 875 949 l 876 997 m 331 -57 q 388 -81 363 -57 q 414 -140 414 -106 q 388 -197 414 -175 q 331 -219 363 -219 q 272 -197 297 -219 q 247 -140 247 -175 q 272 -81 247 -106 q 331 -57 297 -57 z "},"Ừ":{"ha":847,"x_min":106,"x_max":989,"o":"m 704 328 q 660 186 692 267 q 556 46 628 106 q 356 -14 485 -14 q 163 50 214 -14 q 111 211 111 114 q 116 287 111 247 q 129 367 121 326 l 208 776 l 106 803 l 113 849 l 440 849 l 433 803 l 318 776 l 239 367 q 226 291 232 328 q 221 225 221 254 q 253 104 221 151 q 374 57 286 57 q 548 133 493 57 q 626 329 603 210 l 713 776 l 606 803 l 614 849 l 882 849 l 882 814 l 742 764 l 801 826 l 704 328 m 876 997 l 971 1017 q 985 975 981 997 q 989 938 989 953 q 913 828 989 867 q 742 789 836 789 l 732 789 l 775 849 q 847 863 819 849 q 875 922 875 876 q 868 979 875 949 l 876 997 z "},"Ử":{"ha":847,"x_min":106,"x_max":989,"o":"m 704 328 q 660 186 692 267 q 556 46 628 106 q 356 -14 485 -14 q 163 50 214 -14 q 111 211 111 114 q 116 287 111 247 q 129 367 121 326 l 208 776 l 106 803 l 113 849 l 440 849 l 433 803 l 318 776 l 239 367 q 226 291 232 328 q 221 225 221 254 q 253 104 221 151 q 374 57 286 57 q 548 133 493 57 q 626 329 603 210 l 713 776 l 606 803 l 614 849 l 882 849 l 882 814 l 742 764 l 801 826 l 704 328 m 876 997 l 971 1017 q 985 975 981 997 q 989 938 989 953 q 913 828 989 867 q 742 789 836 789 l 732 789 l 775 849 q 847 863 819 849 q 875 922 875 876 q 868 979 875 949 l 876 997 m 526 939 q 527 946 526 942 q 528 953 528 950 q 553 991 531 982 q 597 1009 575 1000 q 618 1046 618 1018 q 576 1076 618 1076 q 564 1076 571 1076 q 549 1075 557 1075 l 529 1031 l 488 1031 l 493 1104 q 589 1113 547 1113 q 694 1050 694 1113 q 681 1009 694 1024 q 649 986 667 994 q 605 968 625 975 q 579 939 585 961 l 526 939 z "},"Ữ":{"ha":847,"x_min":106,"x_max":989,"o":"m 704 328 q 660 186 692 267 q 556 46 628 106 q 356 -14 485 -14 q 163 50 214 -14 q 111 211 111 114 q 116 287 111 247 q 129 367 121 326 l 208 776 l 106 803 l 113 849 l 440 849 l 433 803 l 318 776 l 239 367 q 226 291 232 328 q 221 225 221 254 q 253 104 221 151 q 374 57 286 57 q 548 133 493 57 q 626 329 603 210 l 713 776 l 606 803 l 614 849 l 882 849 l 882 814 l 742 764 l 801 826 l 704 328 m 876 997 l 971 1017 q 985 975 981 997 q 989 938 989 953 q 913 828 989 867 q 742 789 836 789 l 732 789 l 775 849 q 847 863 819 849 q 875 922 875 876 q 868 979 875 949 l 876 997 z "},"Ű":{"ha":921,"x_min":138,"x_max":942,"o":"m 736 328 q 692 186 725 267 q 588 46 660 106 q 388 -14 517 -14 q 194 50 246 -14 q 143 211 143 114 q 148 287 143 247 q 161 367 153 326 l 240 776 l 138 803 l 144 849 l 472 849 l 465 803 l 350 776 l 271 367 q 258 291 264 328 q 253 225 253 254 q 285 104 253 151 q 406 57 318 57 q 581 133 525 57 q 658 329 636 210 l 744 776 l 638 803 l 646 849 l 942 849 l 933 803 l 824 776 l 736 328 m 429 899 l 403 914 l 522 1122 l 626 1122 l 626 1099 l 429 899 m 653 899 l 626 914 l 746 1122 l 850 1122 l 850 1099 l 653 899 z "},"Ȗ":{"ha":847,"x_min":106,"x_max":910,"o":"m 704 328 q 660 186 692 267 q 556 46 628 106 q 356 -14 485 -14 q 163 50 214 -14 q 111 211 111 114 q 116 287 111 247 q 129 367 121 326 l 208 776 l 106 803 l 113 849 l 440 849 l 433 803 l 318 776 l 239 367 q 226 291 232 328 q 221 225 221 254 q 253 104 221 151 q 374 57 286 57 q 548 133 493 57 q 626 329 603 210 l 713 776 l 606 803 l 614 849 l 910 849 l 901 803 l 792 776 l 704 328 m 568 1099 q 679 1063 650 1099 q 708 978 708 1028 q 706 958 708 968 q 701 938 703 947 l 654 938 q 658 960 658 947 q 638 1005 656 986 q 558 1024 619 1024 q 457 997 486 1024 q 422 938 428 971 l 376 938 q 431 1049 389 999 q 568 1099 472 1099 z "},"Ū":{"ha":921,"x_min":138,"x_max":942,"o":"m 736 328 q 692 186 725 267 q 588 46 660 106 q 388 -14 517 -14 q 194 50 246 -14 q 143 211 143 114 q 148 287 143 247 q 161 367 153 326 l 240 776 l 138 803 l 144 849 l 472 849 l 465 803 l 350 776 l 271 367 q 258 291 264 328 q 253 225 253 254 q 285 104 253 151 q 406 57 318 57 q 581 133 525 57 q 658 329 636 210 l 744 776 l 638 803 l 646 849 l 942 849 l 933 803 l 824 776 l 736 328 m 419 1032 l 749 1032 l 738 957 l 408 957 l 419 1032 z "},"Ų":{"ha":921,"x_min":138,"x_max":942,"o":"m 736 328 q 701 208 725 275 q 627 83 676 140 q 490 0 578 25 q 388 -92 422 -31 q 354 -201 354 -154 q 421 -267 354 -267 q 494 -236 460 -267 l 514 -258 q 477 -293 514 -258 q 374 -328 440 -328 q 285 -299 311 -328 q 258 -229 258 -269 q 294 -126 258 -186 q 414 -12 331 -67 q 401 -14 408 -14 q 388 -14 394 -14 q 194 50 246 -14 q 143 211 143 114 q 148 287 143 247 q 161 367 153 326 l 240 776 l 138 803 l 144 849 l 472 849 l 465 803 l 350 776 l 271 367 q 258 291 264 328 q 253 225 253 254 q 285 104 253 151 q 406 57 318 57 q 581 133 525 57 q 658 329 636 210 l 744 776 l 638 803 l 646 849 l 942 849 l 933 803 l 824 776 l 736 328 z "},"Ů":{"ha":921,"x_min":138,"x_max":942,"o":"m 388 -14 q 194 50 246 -14 q 143 211 143 114 q 148 287 143 247 q 161 367 153 326 l 240 776 l 138 803 l 144 849 l 472 849 l 465 803 l 350 776 l 271 367 q 258 291 264 328 q 253 225 253 254 q 285 104 253 151 q 406 57 318 57 q 581 133 525 57 q 658 329 636 210 l 744 776 l 638 803 l 646 849 l 942 849 l 933 803 l 824 776 l 736 328 q 692 186 725 267 q 588 46 660 106 q 388 -14 517 -14 m 568 888 q 479 915 508 888 q 450 985 450 943 q 493 1094 450 1049 q 613 1139 536 1139 q 701 1111 672 1139 q 729 1040 729 1083 q 686 933 729 979 q 568 888 643 888 m 576 936 q 638 968 621 936 q 654 1036 654 1000 q 604 1090 654 1090 q 542 1058 560 1090 q 525 988 525 1025 q 538 949 525 963 q 576 936 550 936 z "},"Ũ":{"ha":921,"x_min":146,"x_max":950,"o":"m 744 328 q 701 186 733 267 q 597 46 668 106 q 396 -14 525 -14 q 203 50 254 -14 q 151 211 151 114 q 156 287 151 247 q 169 367 161 326 l 249 776 l 146 803 l 153 849 l 481 849 l 474 803 l 358 776 l 279 367 q 267 291 272 328 q 261 225 261 254 q 294 104 261 151 q 414 57 326 57 q 589 133 533 57 q 667 329 644 210 l 753 776 l 646 803 l 654 849 l 950 849 l 942 803 l 832 776 l 744 328 m 796 1063 q 749 970 774 1010 q 692 931 725 931 q 585 958 656 931 q 481 986 515 986 q 438 961 458 986 q 418 936 418 936 l 376 953 q 423 1047 399 1007 q 482 1086 447 1086 q 587 1058 517 1086 q 693 1031 657 1031 q 735 1055 717 1031 q 753 1079 753 1079 l 796 1063 z "},"V":{"ha":771,"x_min":81,"x_max":864,"o":"m 589 803 l 597 849 l 864 849 l 856 803 l 756 775 l 361 3 l 278 -14 l 168 775 l 81 803 l 89 849 l 369 849 l 361 803 l 279 775 l 363 140 l 678 775 l 589 803 z "},"W":{"ha":1083,"x_min":58,"x_max":1171,"o":"m 893 803 l 901 849 l 1171 849 l 1163 803 l 1063 775 l 715 3 l 646 -12 l 578 581 l 315 3 l 243 -12 l 147 775 l 58 803 l 67 849 l 349 849 l 340 803 l 260 775 l 322 183 l 586 776 l 663 792 l 722 179 l 981 775 l 893 803 z "},"Ẃ":{"ha":1083,"x_min":58,"x_max":1171,"o":"m 893 803 l 901 849 l 1171 849 l 1163 803 l 1063 775 l 715 3 l 646 -12 l 578 581 l 315 3 l 243 -12 l 147 775 l 58 803 l 67 849 l 349 849 l 340 803 l 260 775 l 322 183 l 586 776 l 663 792 l 722 179 l 981 775 l 893 803 z "},"Ŵ":{"ha":1083,"x_min":58,"x_max":1171,"o":"m 893 803 l 901 849 l 1171 849 l 1163 803 l 1063 775 l 715 3 l 646 -12 l 578 581 l 315 3 l 243 -12 l 147 775 l 58 803 l 67 849 l 349 849 l 340 803 l 260 775 l 322 183 l 586 776 l 663 792 l 722 179 l 981 775 l 893 803 z "},"Ẅ":{"ha":1083,"x_min":58,"x_max":1171,"o":"m 893 803 l 901 849 l 1171 849 l 1163 803 l 1063 775 l 715 3 l 646 -12 l 578 581 l 315 3 l 243 -12 l 147 775 l 58 803 l 67 849 l 349 849 l 340 803 l 260 775 l 322 183 l 586 776 l 663 792 l 722 179 l 981 775 l 893 803 z "},"Ẁ":{"ha":1083,"x_min":58,"x_max":1171,"o":"m 893 803 l 901 849 l 1171 849 l 1163 803 l 1063 775 l 715 3 l 646 -12 l 578 581 l 315 3 l 243 -12 l 147 775 l 58 803 l 67 849 l 349 849 l 340 803 l 260 775 l 322 183 l 586 776 l 663 792 l 722 179 l 981 775 l 893 803 z "},"X":{"ha":767,"x_min":-46,"x_max":846,"o":"m -46 0 l -37 46 l 58 74 l 342 426 l 200 775 l 118 803 l 126 849 l 410 849 l 401 803 l 322 775 l 431 504 l 650 775 l 568 803 l 576 849 l 846 849 l 838 803 l 742 775 l 460 432 l 613 72 l 696 46 l 688 0 l 397 0 l 406 46 l 488 72 l 371 353 l 150 74 l 233 46 l 225 0 l -46 0 z "},"Y":{"ha":750,"x_min":93,"x_max":829,"o":"m 551 803 l 560 849 l 829 849 l 821 803 l 721 775 l 411 311 l 365 74 l 500 46 l 492 0 l 106 0 l 114 46 l 258 74 l 304 311 l 176 775 l 93 803 l 101 849 l 371 849 l 363 803 l 281 775 l 385 389 l 639 775 l 551 803 z "},"Ý":{"ha":774,"x_min":107,"x_max":843,"o":"m 565 803 l 574 849 l 843 849 l 835 803 l 735 775 l 425 311 l 379 74 l 514 46 l 506 0 l 119 0 l 128 46 l 272 74 l 318 311 l 190 775 l 107 803 l 115 849 l 385 849 l 376 803 l 294 775 l 399 389 l 653 775 l 565 803 m 392 904 l 369 931 l 583 1111 l 689 1072 l 689 1047 l 392 904 z "},"Ŷ":{"ha":774,"x_min":107,"x_max":843,"o":"m 565 803 l 574 849 l 843 849 l 835 803 l 735 775 l 425 311 l 379 74 l 514 46 l 506 0 l 119 0 l 128 46 l 272 74 l 318 311 l 190 775 l 107 803 l 115 849 l 385 849 l 376 803 l 294 775 l 399 389 l 653 775 l 565 803 m 653 903 l 522 1021 l 331 903 l 303 929 l 496 1117 l 579 1117 l 689 929 l 653 903 z "},"Ÿ":{"ha":774,"x_min":107,"x_max":843,"o":"m 565 803 l 574 849 l 843 849 l 835 803 l 735 775 l 425 311 l 379 74 l 514 46 l 506 0 l 119 0 l 128 46 l 272 74 l 318 311 l 190 775 l 107 803 l 115 849 l 385 849 l 376 803 l 294 775 l 399 389 l 653 775 l 565 803 m 463 1008 q 438 955 463 978 q 383 932 414 932 q 328 955 353 932 q 304 1008 304 978 q 328 1065 304 1042 q 383 1089 353 1089 q 438 1065 414 1089 q 463 1008 463 1042 m 733 1008 q 708 955 733 978 q 653 932 683 932 q 598 955 622 932 q 574 1008 574 978 q 598 1065 574 1042 q 653 1089 622 1089 q 708 1065 683 1089 q 733 1008 733 1042 z "},"Ỵ":{"ha":750,"x_min":93,"x_max":829,"o":"m 551 803 l 560 849 l 829 849 l 821 803 l 721 775 l 411 311 l 365 74 l 500 46 l 492 0 l 106 0 l 114 46 l 258 74 l 304 311 l 176 775 l 93 803 l 101 849 l 371 849 l 363 803 l 281 775 l 385 389 l 639 775 l 551 803 m 282 -57 q 340 -81 314 -57 q 365 -140 365 -106 q 340 -197 365 -175 q 282 -219 314 -219 q 224 -197 249 -219 q 199 -140 199 -175 q 224 -81 199 -106 q 282 -57 249 -57 z "},"Ỳ":{"ha":774,"x_min":107,"x_max":843,"o":"m 119 0 l 128 46 l 272 74 l 318 311 l 190 775 l 107 803 l 115 849 l 385 849 l 376 803 l 294 775 l 399 389 l 653 775 l 565 803 l 574 849 l 843 849 l 835 803 l 735 775 l 425 311 l 379 74 l 514 46 l 506 0 l 119 0 m 621 904 l 324 1047 l 324 1072 l 429 1111 l 643 931 l 621 904 z "},"Ỷ":{"ha":750,"x_min":93,"x_max":829,"o":"m 551 803 l 560 849 l 829 849 l 821 803 l 721 775 l 411 311 l 365 74 l 500 46 l 492 0 l 106 0 l 114 46 l 258 74 l 304 311 l 176 775 l 93 803 l 101 849 l 371 849 l 363 803 l 281 775 l 385 389 l 639 775 l 551 803 m 478 939 q 478 946 478 942 q 479 953 479 950 q 504 991 482 982 q 548 1009 526 1000 q 569 1046 569 1018 q 528 1076 569 1076 q 515 1076 522 1076 q 500 1075 508 1075 l 481 1031 l 439 1031 l 444 1104 q 540 1113 499 1113 q 646 1050 646 1113 q 632 1009 646 1024 q 600 986 618 994 q 556 968 576 975 q 531 939 536 961 l 478 939 z "},"Ȳ":{"ha":750,"x_min":93,"x_max":829,"o":"m 551 803 l 560 849 l 829 849 l 821 803 l 721 775 l 411 311 l 365 74 l 500 46 l 492 0 l 106 0 l 114 46 l 258 74 l 304 311 l 176 775 l 93 803 l 101 849 l 371 849 l 363 803 l 281 775 l 385 389 l 639 775 l 551 803 z "},"Ỹ":{"ha":774,"x_min":107,"x_max":843,"o":"m 565 803 l 574 849 l 843 849 l 835 803 l 735 775 l 425 311 l 379 74 l 514 46 l 506 0 l 119 0 l 128 46 l 272 74 l 318 311 l 190 775 l 107 803 l 115 849 l 385 849 l 376 803 l 294 775 l 399 389 l 653 775 l 565 803 m 726 1063 q 680 970 704 1010 q 622 931 656 931 q 516 958 586 931 q 411 986 446 986 q 369 961 389 986 q 349 936 349 936 l 307 953 q 353 1047 329 1007 q 413 1086 378 1086 q 517 1058 447 1086 q 624 1031 588 1031 q 665 1055 647 1031 q 683 1079 683 1079 l 726 1063 z "},"Z":{"ha":711,"x_min":15,"x_max":728,"o":"m 622 204 l 569 0 l 31 0 l 15 46 l 575 775 l 265 775 l 215 665 l 165 665 l 189 849 l 728 849 l 725 804 l 165 75 l 499 75 l 572 204 l 622 204 z "},"Ź":{"ha":711,"x_min":-3,"x_max":710,"o":"m 604 204 l 551 0 l 13 0 l -3 46 l 557 775 l 247 775 l 197 665 l 147 665 l 171 849 l 710 849 l 707 804 l 147 75 l 481 75 l 554 204 l 604 204 m 322 904 l 300 931 l 514 1111 l 619 1072 l 619 1047 l 322 904 z "},"Ž":{"ha":711,"x_min":-3,"x_max":710,"o":"m 604 204 l 551 0 l 13 0 l -3 46 l 557 775 l 247 775 l 197 665 l 147 665 l 171 849 l 710 849 l 707 804 l 147 75 l 481 75 l 554 204 l 604 204 m 317 1117 l 458 1003 l 639 1118 l 667 1092 l 486 904 l 403 904 l 279 1092 l 317 1117 z "},"Ż":{"ha":711,"x_min":-3,"x_max":710,"o":"m 604 204 l 551 0 l 13 0 l -3 46 l 557 775 l 247 775 l 197 665 l 147 665 l 171 849 l 710 849 l 707 804 l 147 75 l 481 75 l 554 204 l 604 204 m 524 1007 q 498 950 524 972 q 440 928 472 928 q 382 950 407 928 q 357 1007 357 972 q 382 1066 357 1042 q 440 1090 407 1090 q 498 1066 472 1090 q 524 1007 524 1042 z "},"Ẓ":{"ha":711,"x_min":15,"x_max":728,"o":"m 622 204 l 569 0 l 31 0 l 15 46 l 575 775 l 265 775 l 215 665 l 165 665 l 189 849 l 728 849 l 725 804 l 165 75 l 499 75 l 572 204 l 622 204 m 263 -57 q 320 -81 294 -57 q 346 -140 346 -106 q 320 -197 346 -175 q 263 -219 294 -219 q 204 -197 229 -219 q 179 -140 179 -175 q 204 -81 179 -106 q 263 -57 229 -57 z "},"a":{"ha":713,"x_min":47,"x_max":651,"o":"m 567 281 q 545 133 551 196 q 538 69 539 69 l 647 69 l 647 28 q 556 -1 590 8 q 493 -11 521 -11 q 429 46 429 -11 q 434 92 429 53 q 439 131 439 131 q 325 28 393 67 q 208 -11 257 -11 q 95 33 143 -11 q 47 197 47 76 q 154 563 47 432 q 443 694 261 694 q 533 684 489 694 q 578 674 578 674 l 608 728 l 651 717 l 567 281 m 254 74 q 356 122 294 74 q 446 214 417 169 q 460 281 447 214 q 490 438 472 347 q 521 596 508 528 q 428 628 479 628 q 280 566 339 628 q 192 406 221 504 q 164 200 164 308 q 189 101 164 128 q 254 74 214 74 z "},"á":{"ha":713,"x_min":47,"x_max":651,"o":"m 567 281 q 545 133 551 196 q 538 69 539 69 l 647 69 l 647 28 q 556 -1 590 8 q 493 -11 521 -11 q 429 46 429 -11 q 434 92 429 53 q 439 131 439 131 q 325 28 393 67 q 208 -11 257 -11 q 95 33 143 -11 q 47 197 47 76 q 154 563 47 432 q 443 694 261 694 q 533 684 489 694 q 578 674 578 674 l 608 728 l 651 717 l 567 281 m 254 74 q 356 122 294 74 q 446 214 417 169 q 460 281 447 214 q 490 438 472 347 q 521 596 508 528 q 428 628 479 628 q 280 566 339 628 q 192 406 221 504 q 164 200 164 308 q 189 101 164 128 q 254 74 214 74 m 331 775 l 308 801 l 522 982 l 628 943 l 628 918 l 331 775 z "},"ă":{"ha":713,"x_min":47,"x_max":651,"o":"m 567 281 q 545 133 551 196 q 538 69 539 69 l 647 69 l 647 28 q 556 -1 590 8 q 493 -11 521 -11 q 429 46 429 -11 q 434 92 429 53 q 439 131 439 131 q 325 28 393 67 q 208 -11 257 -11 q 95 33 143 -11 q 47 197 47 76 q 154 563 47 432 q 443 694 261 694 q 533 684 489 694 q 578 674 578 674 l 608 728 l 651 717 l 567 281 m 254 74 q 356 122 294 74 q 446 214 417 169 q 460 281 447 214 q 490 438 472 347 q 521 596 508 528 q 428 628 479 628 q 280 566 339 628 q 192 406 221 504 q 164 200 164 308 q 189 101 164 128 q 254 74 214 74 m 432 807 q 321 842 350 807 q 292 928 292 878 q 294 948 292 938 q 299 968 297 958 l 346 968 q 342 946 342 958 q 363 901 344 919 q 442 882 381 882 q 543 908 514 882 q 578 968 572 935 l 624 968 q 569 857 611 907 q 432 807 528 807 z "},"ắ":{"ha":713,"x_min":47,"x_max":711,"o":"m 567 281 q 545 133 551 196 q 538 69 539 69 l 647 69 l 647 28 q 556 -1 590 8 q 493 -11 521 -11 q 429 46 429 -11 q 434 92 429 53 q 439 131 439 131 q 325 28 393 67 q 208 -11 257 -11 q 95 33 143 -11 q 47 197 47 76 q 154 563 47 432 q 443 694 261 694 q 533 684 489 694 q 578 674 578 674 l 608 728 l 651 717 l 567 281 m 254 74 q 356 122 294 74 q 446 214 417 169 q 460 281 447 214 q 490 438 472 347 q 521 596 508 528 q 428 628 479 628 q 280 566 339 628 q 192 406 221 504 q 164 200 164 308 q 189 101 164 128 q 254 74 214 74 z "},"ặ":{"ha":713,"x_min":47,"x_max":651,"o":"m 567 281 q 545 133 551 196 q 538 69 539 69 l 647 69 l 647 28 q 556 -1 590 8 q 493 -11 521 -11 q 429 46 429 -11 q 434 92 429 53 q 439 131 439 131 q 325 28 393 67 q 208 -11 257 -11 q 95 33 143 -11 q 47 197 47 76 q 154 563 47 432 q 443 694 261 694 q 533 684 489 694 q 578 674 578 674 l 608 728 l 651 717 l 567 281 m 254 74 q 356 122 294 74 q 446 214 417 169 q 460 281 447 214 q 490 438 472 347 q 521 596 508 528 q 428 628 479 628 q 280 566 339 628 q 192 406 221 504 q 164 200 164 308 q 189 101 164 128 q 254 74 214 74 m 264 -57 q 322 -81 296 -57 q 347 -140 347 -106 q 322 -197 347 -175 q 264 -219 296 -219 q 206 -197 231 -219 q 181 -140 181 -175 q 206 -81 181 -106 q 264 -57 231 -57 m 450 807 q 339 842 368 807 q 310 928 310 878 q 312 948 310 938 q 317 968 314 958 l 364 968 q 360 946 360 958 q 381 901 361 919 q 460 882 400 882 q 561 908 533 882 q 596 968 589 935 l 642 968 q 588 857 629 907 q 450 807 546 807 z "},"ằ":{"ha":713,"x_min":47,"x_max":651,"o":"m 567 281 q 545 133 551 196 q 538 69 539 69 l 647 69 l 647 28 q 556 -1 590 8 q 493 -11 521 -11 q 429 46 429 -11 q 434 92 429 53 q 439 131 439 131 q 325 28 393 67 q 208 -11 257 -11 q 95 33 143 -11 q 47 197 47 76 q 154 563 47 432 q 443 694 261 694 q 533 684 489 694 q 578 674 578 674 l 608 728 l 651 717 l 567 281 m 254 74 q 356 122 294 74 q 446 214 417 169 q 460 281 447 214 q 490 438 472 347 q 521 596 508 528 q 428 628 479 628 q 280 566 339 628 q 192 406 221 504 q 164 200 164 308 q 189 101 164 128 q 254 74 214 74 z "},"ẳ":{"ha":713,"x_min":47,"x_max":651,"o":"m 567 281 q 545 133 551 196 q 538 69 539 69 l 647 69 l 647 28 q 556 -1 590 8 q 493 -11 521 -11 q 429 46 429 -11 q 434 92 429 53 q 439 131 439 131 q 325 28 393 67 q 208 -11 257 -11 q 95 33 143 -11 q 47 197 47 76 q 154 563 47 432 q 443 694 261 694 q 533 684 489 694 q 578 674 578 674 l 608 728 l 651 717 l 567 281 m 254 74 q 356 122 294 74 q 446 214 417 169 q 460 281 447 214 q 490 438 472 347 q 521 596 508 528 q 428 628 479 628 q 280 566 339 628 q 192 406 221 504 q 164 200 164 308 q 189 101 164 128 q 254 74 214 74 m 463 954 q 463 961 463 957 q 464 968 464 965 q 489 1006 467 997 q 533 1024 511 1015 q 554 1061 554 1033 q 513 1092 554 1092 q 500 1091 507 1092 q 485 1090 493 1090 l 465 1046 l 424 1046 l 429 1119 q 525 1128 483 1128 q 631 1065 631 1128 q 617 1024 631 1039 q 585 1001 603 1010 q 541 983 561 990 q 515 954 521 976 l 463 954 z "},"ẵ":{"ha":713,"x_min":47,"x_max":699,"o":"m 567 281 q 545 133 551 196 q 538 69 539 69 l 647 69 l 647 28 q 556 -1 590 8 q 493 -11 521 -11 q 429 46 429 -11 q 434 92 429 53 q 439 131 439 131 q 325 28 393 67 q 208 -11 257 -11 q 95 33 143 -11 q 47 197 47 76 q 154 563 47 432 q 443 694 261 694 q 533 684 489 694 q 578 674 578 674 l 608 728 l 651 717 l 567 281 m 254 74 q 356 122 294 74 q 446 214 417 169 q 460 281 447 214 q 490 438 472 347 q 521 596 508 528 q 428 628 479 628 q 280 566 339 628 q 192 406 221 504 q 164 200 164 308 q 189 101 164 128 q 254 74 214 74 z "},"ǎ":{"ha":713,"x_min":47,"x_max":654,"o":"m 567 281 q 545 133 551 196 q 538 69 539 69 l 647 69 l 647 28 q 556 -1 590 8 q 493 -11 521 -11 q 429 46 429 -11 q 434 92 429 53 q 439 131 439 131 q 325 28 393 67 q 208 -11 257 -11 q 95 33 143 -11 q 47 197 47 76 q 154 563 47 432 q 443 694 261 694 q 533 684 489 694 q 578 674 578 674 l 608 728 l 651 717 l 567 281 m 254 74 q 356 122 294 74 q 446 214 417 169 q 460 281 447 214 q 490 438 472 347 q 521 596 508 528 q 428 628 479 628 q 280 566 339 628 q 192 406 221 504 q 164 200 164 308 q 189 101 164 128 q 254 74 214 74 m 332 993 l 460 865 l 626 994 l 654 968 l 488 767 l 404 767 l 294 968 l 332 993 z "},"â":{"ha":713,"x_min":47,"x_max":651,"o":"m 567 281 q 545 133 551 196 q 538 69 539 69 l 647 69 l 647 28 q 556 -1 590 8 q 493 -11 521 -11 q 429 46 429 -11 q 434 92 429 53 q 439 131 439 131 q 325 28 393 67 q 208 -11 257 -11 q 95 33 143 -11 q 47 197 47 76 q 154 563 47 432 q 443 694 261 694 q 533 684 489 694 q 578 674 578 674 l 608 728 l 651 717 l 567 281 m 254 74 q 356 122 294 74 q 446 214 417 169 q 460 281 447 214 q 490 438 472 347 q 521 596 508 528 q 428 628 479 628 q 280 566 339 628 q 192 406 221 504 q 164 200 164 308 q 189 101 164 128 q 254 74 214 74 m 567 767 l 451 886 l 286 767 l 258 793 l 424 985 l 507 985 l 603 793 l 567 767 z "},"ấ":{"ha":713,"x_min":47,"x_max":860,"o":"m 567 281 q 545 133 551 196 q 538 69 539 69 l 647 69 l 647 28 q 556 -1 590 8 q 493 -11 521 -11 q 429 46 429 -11 q 434 92 429 53 q 439 131 439 131 q 325 28 393 67 q 208 -11 257 -11 q 95 33 143 -11 q 47 197 47 76 q 154 563 47 432 q 443 694 261 694 q 533 684 489 694 q 578 674 578 674 l 608 728 l 651 717 l 567 281 m 254 74 q 356 122 294 74 q 446 214 417 169 q 460 281 447 214 q 490 438 472 347 q 521 596 508 528 q 428 628 479 628 q 280 566 339 628 q 192 406 221 504 q 164 200 164 308 q 189 101 164 128 q 254 74 214 74 m 632 842 l 601 858 l 739 1103 l 851 1103 l 860 1079 l 632 842 m 578 767 l 463 886 l 297 767 l 269 793 l 435 985 l 518 985 l 614 793 l 578 767 z "},"ậ":{"ha":713,"x_min":47,"x_max":651,"o":"m 567 281 q 545 133 551 196 q 538 69 539 69 l 647 69 l 647 28 q 556 -1 590 8 q 493 -11 521 -11 q 429 46 429 -11 q 434 92 429 53 q 439 131 439 131 q 325 28 393 67 q 208 -11 257 -11 q 95 33 143 -11 q 47 197 47 76 q 154 563 47 432 q 443 694 261 694 q 533 684 489 694 q 578 674 578 674 l 608 728 l 651 717 l 567 281 m 254 74 q 356 122 294 74 q 446 214 417 169 q 460 281 447 214 q 490 438 472 347 q 521 596 508 528 q 428 628 479 628 q 280 566 339 628 q 192 406 221 504 q 164 200 164 308 q 189 101 164 128 q 254 74 214 74 m 264 -57 q 322 -81 296 -57 q 347 -140 347 -106 q 322 -197 347 -175 q 264 -219 296 -219 q 206 -197 231 -219 q 181 -140 181 -175 q 206 -81 181 -106 q 264 -57 231 -57 m 578 767 l 463 886 l 297 767 l 269 793 l 435 985 l 518 985 l 614 793 l 578 767 z "},"ầ":{"ha":713,"x_min":47,"x_max":688,"o":"m 567 281 q 545 133 551 196 q 538 69 539 69 l 647 69 l 647 28 q 556 -1 590 8 q 493 -11 521 -11 q 429 46 429 -11 q 434 92 429 53 q 439 131 439 131 q 325 28 393 67 q 208 -11 257 -11 q 95 33 143 -11 q 47 197 47 76 q 154 563 47 432 q 443 694 261 694 q 533 684 489 694 q 578 674 578 674 l 608 728 l 651 717 l 567 281 m 254 74 q 356 122 294 74 q 446 214 417 169 q 460 281 447 214 q 490 438 472 347 q 521 596 508 528 q 428 628 479 628 q 280 566 339 628 q 192 406 221 504 q 164 200 164 308 q 189 101 164 128 q 254 74 214 74 m 654 839 l 508 1082 l 522 1103 l 611 1103 l 688 849 l 654 839 m 578 767 l 463 886 l 297 767 l 269 793 l 435 985 l 518 985 l 614 793 l 578 767 z "},"ẩ":{"ha":713,"x_min":47,"x_max":750,"o":"m 567 281 q 545 133 551 196 q 538 69 539 69 l 647 69 l 647 28 q 556 -1 590 8 q 493 -11 521 -11 q 429 46 429 -11 q 434 92 429 53 q 439 131 439 131 q 325 28 393 67 q 208 -11 257 -11 q 95 33 143 -11 q 47 197 47 76 q 154 563 47 432 q 443 694 261 694 q 533 684 489 694 q 578 674 578 674 l 608 728 l 651 717 l 567 281 m 254 74 q 356 122 294 74 q 446 214 417 169 q 460 281 447 214 q 490 438 472 347 q 521 596 508 528 q 428 628 479 628 q 280 566 339 628 q 192 406 221 504 q 164 200 164 308 q 189 101 164 128 q 254 74 214 74 m 578 767 l 463 886 l 297 767 l 269 793 l 435 985 l 518 985 l 614 793 l 578 767 m 582 929 q 583 936 582 932 q 583 943 583 940 q 608 981 586 972 q 652 999 631 990 q 674 1036 674 1008 q 632 1067 674 1067 q 619 1066 626 1067 q 604 1065 613 1065 l 585 1021 l 543 1021 l 549 1094 q 644 1103 603 1103 q 750 1040 750 1103 q 736 999 750 1014 q 704 976 722 985 q 660 958 681 965 q 635 929 640 951 l 582 929 z "},"ẫ":{"ha":713,"x_min":47,"x_max":704,"o":"m 567 281 q 545 133 551 196 q 538 69 539 69 l 647 69 l 647 28 q 556 -1 590 8 q 493 -11 521 -11 q 429 46 429 -11 q 434 92 429 53 q 439 131 439 131 q 325 28 393 67 q 208 -11 257 -11 q 95 33 143 -11 q 47 197 47 76 q 154 563 47 432 q 443 694 261 694 q 533 684 489 694 q 578 674 578 674 l 608 728 l 651 717 l 567 281 m 254 74 q 356 122 294 74 q 446 214 417 169 q 460 281 447 214 q 490 438 472 347 q 521 596 508 528 q 428 628 479 628 q 280 566 339 628 q 192 406 221 504 q 164 200 164 308 q 189 101 164 128 q 254 74 214 74 z "},"ȁ":{"ha":713,"x_min":47,"x_max":651,"o":"m 567 281 q 545 133 551 196 q 538 69 539 69 l 647 69 l 647 28 q 556 -1 590 8 q 493 -11 521 -11 q 429 46 429 -11 q 434 92 429 53 q 439 131 439 131 q 325 28 393 67 q 208 -11 257 -11 q 95 33 143 -11 q 47 197 47 76 q 154 563 47 432 q 443 694 261 694 q 533 684 489 694 q 578 674 578 674 l 608 728 l 651 717 l 567 281 m 254 74 q 356 122 294 74 q 446 214 417 169 q 460 281 447 214 q 490 438 472 347 q 521 596 508 528 q 428 628 479 628 q 280 566 339 628 q 192 406 221 504 q 164 200 164 308 q 189 101 164 128 q 254 74 214 74 m 560 758 l 399 971 l 399 994 l 503 994 l 585 774 l 560 758 m 336 758 l 175 971 l 175 994 l 279 994 l 361 774 l 336 758 z "},"ä":{"ha":713,"x_min":47,"x_max":675,"o":"m 567 281 q 545 133 551 196 q 538 69 539 69 l 647 69 l 647 28 q 556 -1 590 8 q 493 -11 521 -11 q 429 46 429 -11 q 434 92 429 53 q 439 131 439 131 q 325 28 393 67 q 208 -11 257 -11 q 95 33 143 -11 q 47 197 47 76 q 154 563 47 432 q 443 694 261 694 q 533 684 489 694 q 578 674 578 674 l 608 728 l 651 717 l 567 281 m 254 74 q 356 122 294 74 q 446 214 417 169 q 460 281 447 214 q 490 438 472 347 q 521 596 508 528 q 428 628 479 628 q 280 566 339 628 q 192 406 221 504 q 164 200 164 308 q 189 101 164 128 q 254 74 214 74 m 404 886 q 380 833 404 856 q 325 810 356 810 q 270 833 294 810 q 246 886 246 856 q 270 943 246 919 q 325 967 294 967 q 380 943 356 967 q 404 886 404 919 m 675 886 q 650 833 675 856 q 594 810 625 810 q 540 833 564 810 q 515 886 515 856 q 540 943 515 919 q 594 967 564 967 q 650 943 625 967 q 675 886 675 919 z "},"ạ":{"ha":713,"x_min":47,"x_max":651,"o":"m 567 281 q 545 133 551 196 q 538 69 539 69 l 647 69 l 647 28 q 556 -1 590 8 q 493 -11 521 -11 q 429 46 429 -11 q 434 92 429 53 q 439 131 439 131 q 325 28 393 67 q 208 -11 257 -11 q 95 33 143 -11 q 47 197 47 76 q 154 563 47 432 q 443 694 261 694 q 533 684 489 694 q 578 674 578 674 l 608 728 l 651 717 l 567 281 m 254 74 q 356 122 294 74 q 446 214 417 169 q 460 281 447 214 q 490 438 472 347 q 521 596 508 528 q 428 628 479 628 q 280 566 339 628 q 192 406 221 504 q 164 200 164 308 q 189 101 164 128 q 254 74 214 74 m 264 -57 q 322 -81 296 -57 q 347 -140 347 -106 q 322 -197 347 -175 q 264 -219 296 -219 q 206 -197 231 -219 q 181 -140 181 -175 q 206 -81 181 -106 q 264 -57 231 -57 z "},"à":{"ha":713,"x_min":47,"x_max":651,"o":"m 567 281 q 545 133 551 196 q 538 69 539 69 l 647 69 l 647 28 q 556 -1 590 8 q 493 -11 521 -11 q 429 46 429 -11 q 434 92 429 53 q 439 131 439 131 q 325 28 393 67 q 208 -11 257 -11 q 95 33 143 -11 q 47 197 47 76 q 154 563 47 432 q 443 694 261 694 q 533 684 489 694 q 578 674 578 674 l 608 728 l 651 717 l 567 281 m 254 74 q 356 122 294 74 q 446 214 417 169 q 460 281 447 214 q 490 438 472 347 q 521 596 508 528 q 428 628 479 628 q 280 566 339 628 q 192 406 221 504 q 164 200 164 308 q 189 101 164 128 q 254 74 214 74 m 565 775 l 268 918 l 268 943 l 374 982 l 588 801 l 565 775 z "},"ả":{"ha":713,"x_min":47,"x_max":651,"o":"m 567 281 q 545 133 551 196 q 538 69 539 69 l 647 69 l 647 28 q 556 -1 590 8 q 493 -11 521 -11 q 429 46 429 -11 q 434 92 429 53 q 439 131 439 131 q 325 28 393 67 q 208 -11 257 -11 q 95 33 143 -11 q 47 197 47 76 q 154 563 47 432 q 443 694 261 694 q 533 684 489 694 q 578 674 578 674 l 608 728 l 651 717 l 567 281 m 254 74 q 356 122 294 74 q 446 214 417 169 q 460 281 447 214 q 490 438 472 347 q 521 596 508 528 q 428 628 479 628 q 280 566 339 628 q 192 406 221 504 q 164 200 164 308 q 189 101 164 128 q 254 74 214 74 m 428 775 q 428 782 428 778 q 429 789 429 786 q 454 827 432 818 q 498 845 476 836 q 519 882 519 854 q 478 913 519 913 q 465 912 472 913 q 450 911 458 911 l 431 867 l 389 867 l 394 940 q 490 949 449 949 q 596 886 596 949 q 582 845 596 860 q 550 822 568 831 q 506 804 526 811 q 481 775 486 797 l 428 775 z "},"ȃ":{"ha":713,"x_min":47,"x_max":651,"o":"m 567 281 q 545 133 551 196 q 538 69 539 69 l 647 69 l 647 28 q 556 -1 590 8 q 493 -11 521 -11 q 429 46 429 -11 q 434 92 429 53 q 439 131 439 131 q 325 28 393 67 q 208 -11 257 -11 q 95 33 143 -11 q 47 197 47 76 q 154 563 47 432 q 443 694 261 694 q 533 684 489 694 q 578 674 578 674 l 608 728 l 651 717 l 567 281 m 254 74 q 356 122 294 74 q 446 214 417 169 q 460 281 447 214 q 490 438 472 347 q 521 596 508 528 q 428 628 479 628 q 280 566 339 628 q 192 406 221 504 q 164 200 164 308 q 189 101 164 128 q 254 74 214 74 m 479 979 q 590 944 561 979 q 619 858 619 908 q 617 838 619 849 q 613 818 614 828 l 565 818 q 569 840 569 828 q 549 885 567 867 q 469 904 531 904 q 368 878 397 904 q 333 818 339 851 l 288 818 q 342 929 300 879 q 479 979 383 979 z "},"ā":{"ha":713,"x_min":47,"x_max":651,"o":"m 567 281 q 545 133 551 196 q 538 69 539 69 l 647 69 l 647 28 q 556 -1 590 8 q 493 -11 521 -11 q 429 46 429 -11 q 434 92 429 53 q 439 131 439 131 q 325 28 393 67 q 208 -11 257 -11 q 95 33 143 -11 q 47 197 47 76 q 154 563 47 432 q 443 694 261 694 q 533 684 489 694 q 578 674 578 674 l 608 728 l 651 717 l 567 281 m 254 74 q 356 122 294 74 q 446 214 417 169 q 460 281 447 214 q 490 438 472 347 q 521 596 508 528 q 428 628 479 628 q 280 566 339 628 q 192 406 221 504 q 164 200 164 308 q 189 101 164 128 q 254 74 214 74 m 288 876 l 589 876 l 578 804 l 276 804 l 288 876 z "},"ą":{"ha":713,"x_min":47,"x_max":651,"o":"m 511 -328 q 422 -299 449 -328 q 396 -229 396 -269 q 433 -120 396 -178 q 544 -4 471 -62 q 517 -9 531 -7 q 493 -11 504 -11 q 429 46 429 -11 q 434 92 429 53 q 439 131 439 131 q 325 28 393 67 q 208 -11 257 -11 q 95 33 143 -11 q 47 197 47 76 q 154 563 47 432 q 443 694 261 694 q 533 684 489 694 q 578 674 578 674 l 608 728 l 651 717 l 567 281 q 545 133 551 196 q 538 69 539 69 l 647 69 l 647 28 q 539 -74 586 -3 q 492 -201 492 -144 q 558 -267 492 -267 q 632 -236 597 -267 l 651 -258 q 615 -293 651 -258 q 511 -328 578 -328 m 254 74 q 356 122 294 74 q 446 214 417 169 q 460 281 447 214 q 490 438 472 347 q 521 596 508 528 q 428 628 479 628 q 280 566 339 628 q 192 406 221 504 q 164 200 164 308 q 189 101 164 128 q 254 74 214 74 z "},"å":{"ha":713,"x_min":47,"x_max":651,"o":"m 208 -11 q 95 33 143 -11 q 47 197 47 76 q 154 563 47 432 q 443 694 261 694 q 533 684 489 694 q 578 674 578 674 l 608 728 l 651 717 l 567 281 q 545 133 551 196 q 538 69 539 69 l 647 69 l 647 28 q 556 -1 590 8 q 493 -11 521 -11 q 429 46 429 -11 q 434 92 429 53 q 439 131 439 131 q 325 28 393 67 q 208 -11 257 -11 m 254 74 q 356 122 294 74 q 446 214 417 169 q 460 281 447 214 q 490 438 472 347 q 521 596 508 528 q 428 628 479 628 q 280 566 339 628 q 192 406 221 504 q 164 200 164 308 q 189 101 164 128 q 254 74 214 74 m 426 744 q 338 776 367 744 q 308 856 308 808 q 351 974 308 925 q 471 1024 394 1024 q 559 992 531 1024 q 588 911 588 960 q 544 794 588 844 q 426 744 501 744 m 435 793 q 496 831 479 793 q 513 917 513 869 q 463 975 513 975 q 401 938 418 975 q 383 851 383 900 q 435 793 383 793 z "},"ǻ":{"ha":713,"x_min":47,"x_max":725,"o":"m 567 281 q 545 133 551 196 q 538 69 539 69 l 647 69 l 647 28 q 556 -1 590 8 q 493 -11 521 -11 q 429 46 429 -11 q 434 92 429 53 q 439 131 439 131 q 325 28 393 67 q 208 -11 257 -11 q 95 33 143 -11 q 47 197 47 76 q 154 563 47 432 q 443 694 261 694 q 533 684 489 694 q 578 674 578 674 l 608 728 l 651 717 l 567 281 m 254 74 q 356 122 294 74 q 446 214 417 169 q 460 281 447 214 q 490 438 472 347 q 521 596 508 528 q 428 628 479 628 q 280 566 339 628 q 192 406 221 504 q 164 200 164 308 q 189 101 164 128 q 254 74 214 74 z "},"ã":{"ha":713,"x_min":47,"x_max":656,"o":"m 567 281 q 545 133 551 196 q 538 69 539 69 l 647 69 l 647 28 q 556 -1 590 8 q 493 -11 521 -11 q 429 46 429 -11 q 434 92 429 53 q 439 131 439 131 q 325 28 393 67 q 208 -11 257 -11 q 95 33 143 -11 q 47 197 47 76 q 154 563 47 432 q 443 694 261 694 q 533 684 489 694 q 578 674 578 674 l 608 728 l 651 717 l 567 281 m 254 74 q 356 122 294 74 q 446 214 417 169 q 460 281 447 214 q 490 438 472 347 q 521 596 508 528 q 428 628 479 628 q 280 566 339 628 q 192 406 221 504 q 164 200 164 308 q 189 101 164 128 q 254 74 214 74 m 656 940 q 610 849 633 888 q 554 811 588 811 q 456 839 519 811 q 357 867 392 867 q 314 842 333 867 q 294 817 294 817 l 253 833 q 298 926 275 888 q 356 964 321 964 q 454 936 392 964 q 553 908 517 908 q 594 933 576 908 q 613 957 613 957 l 656 940 z "},"æ":{"ha":978,"x_min":47,"x_max":992,"o":"m 683 -12 q 542 31 604 -12 q 464 167 479 74 q 323 26 392 63 q 207 -11 254 -11 q 94 33 142 -11 q 47 197 47 76 q 154 567 47 433 q 443 701 261 701 q 533 691 488 701 q 578 681 578 681 l 608 728 l 651 717 l 636 640 q 730 685 678 669 q 846 701 782 701 q 949 668 906 701 q 992 567 992 635 q 888 396 992 458 q 589 333 783 333 q 576 219 576 267 q 621 92 576 125 q 753 58 665 58 q 803 66 774 58 q 860 83 833 74 l 869 36 q 775 0 822 13 q 683 -12 728 -12 m 254 74 q 354 122 293 74 q 444 214 415 169 q 453 255 444 214 q 473 358 461 296 q 498 485 485 419 q 521 603 511 551 q 485 626 506 617 q 428 635 464 635 q 278 571 336 635 q 192 407 219 507 q 164 200 164 307 q 189 101 164 128 q 254 74 214 74 m 600 379 q 808 424 731 379 q 886 556 886 469 q 869 611 886 588 q 817 635 853 635 q 681 568 736 635 q 600 379 625 501 z "},"ǽ":{"ha":978,"x_min":47,"x_max":992,"o":"m 683 -12 q 542 31 604 -12 q 464 167 479 74 q 323 26 392 63 q 207 -11 254 -11 q 94 33 142 -11 q 47 197 47 76 q 154 567 47 433 q 443 701 261 701 q 533 691 488 701 q 578 681 578 681 l 608 728 l 651 717 l 636 640 q 730 685 678 669 q 846 701 782 701 q 949 668 906 701 q 992 567 992 635 q 888 396 992 458 q 589 333 783 333 q 576 219 576 267 q 621 92 576 125 q 753 58 665 58 q 803 66 774 58 q 860 83 833 74 l 869 36 q 775 0 822 13 q 683 -12 728 -12 m 254 74 q 354 122 293 74 q 444 214 415 169 q 453 255 444 214 q 473 358 461 296 q 498 485 485 419 q 521 603 511 551 q 485 626 506 617 q 428 635 464 635 q 278 571 336 635 q 192 407 219 507 q 164 200 164 307 q 189 101 164 128 q 254 74 214 74 m 600 379 q 808 424 731 379 q 886 556 886 469 q 869 611 886 588 q 817 635 853 635 q 681 568 736 635 q 600 379 625 501 m 463 775 l 440 801 l 654 982 l 760 943 l 760 918 l 463 775 z "},"b":{"ha":722,"x_min":63,"x_max":676,"o":"m 286 -11 q 149 6 206 -11 q 63 38 92 22 l 236 917 l 132 931 l 125 961 q 243 997 185 983 q 331 1010 301 1010 q 357 981 357 1010 q 345 905 357 969 q 317 760 333 840 q 290 621 301 681 q 279 560 278 561 q 403 663 325 624 q 531 701 481 701 q 635 662 593 701 q 676 511 676 622 q 642 278 676 400 q 524 73 608 157 q 286 -11 439 -11 m 300 51 q 453 120 397 51 q 533 290 508 189 q 557 490 557 392 q 532 590 557 563 q 467 617 507 617 q 361 569 428 617 q 265 476 294 521 q 251 409 264 476 q 220 251 238 342 q 189 92 203 161 q 237 62 203 72 q 300 51 271 51 z "},"c":{"ha":543,"x_min":46,"x_max":564,"o":"m 471 629 q 441 636 456 635 q 414 638 426 638 q 276 573 331 638 q 195 414 222 508 q 168 229 168 319 q 195 96 168 136 q 294 56 222 56 q 425 82 350 56 l 440 33 q 341 -1 393 10 q 244 -12 289 -12 q 101 40 157 -12 q 46 206 46 92 q 85 444 46 331 q 206 630 125 558 q 413 701 288 701 q 492 694 453 701 q 564 669 532 686 l 531 511 l 485 511 l 471 629 z "},"ć":{"ha":549,"x_min":43,"x_max":590,"o":"m 468 629 q 438 636 453 635 q 411 638 424 638 q 274 573 328 638 q 192 414 219 508 q 165 229 165 319 q 192 96 165 136 q 292 56 219 56 q 422 82 347 56 l 438 33 q 338 -1 390 10 q 242 -12 286 -12 q 99 40 154 -12 q 43 206 43 92 q 83 444 43 331 q 203 630 122 558 q 410 701 285 701 q 490 694 450 701 q 561 669 529 686 l 528 511 l 482 511 l 468 629 m 293 775 l 271 801 l 485 982 l 590 943 l 590 918 l 293 775 z "},"č":{"ha":549,"x_min":43,"x_max":604,"o":"m 468 629 q 438 636 453 635 q 411 638 424 638 q 274 573 328 638 q 192 414 219 508 q 165 229 165 319 q 192 96 165 136 q 292 56 219 56 q 422 82 347 56 l 438 33 q 338 -1 390 10 q 242 -12 286 -12 q 99 40 154 -12 q 43 206 43 92 q 83 444 43 331 q 203 630 122 558 q 410 701 285 701 q 490 694 450 701 q 561 669 529 686 l 528 511 l 482 511 l 468 629 m 282 993 l 410 865 l 576 994 l 604 968 l 438 767 l 354 767 l 244 968 l 282 993 z "},"ç":{"ha":549,"x_min":43,"x_max":561,"o":"m 468 629 q 438 636 453 635 q 411 638 424 638 q 274 573 328 638 q 192 414 219 508 q 165 229 165 319 q 192 96 165 136 q 292 56 219 56 q 422 82 347 56 l 438 33 q 344 0 393 11 q 250 -12 294 -11 l 224 -61 q 322 -85 292 -61 q 351 -143 351 -108 q 286 -257 351 -210 q 142 -304 221 -304 q 101 -302 119 -304 q 65 -294 82 -300 l 85 -257 q 138 -265 107 -265 q 225 -235 189 -265 q 261 -164 261 -206 q 242 -123 261 -142 q 167 -104 222 -104 l 165 -92 l 208 -10 q 89 51 135 -1 q 43 206 43 103 q 83 444 43 331 q 203 630 122 558 q 410 701 285 701 q 490 694 450 701 q 561 669 529 686 l 528 511 l 482 511 l 468 629 z "},"ĉ":{"ha":543,"x_min":46,"x_max":571,"o":"m 471 629 q 441 636 456 635 q 414 638 426 638 q 276 573 331 638 q 195 414 222 508 q 168 229 168 319 q 195 96 168 136 q 294 56 222 56 q 425 82 350 56 l 440 33 q 341 -1 393 10 q 244 -12 289 -12 q 101 40 157 -12 q 46 206 46 92 q 85 444 46 331 q 206 630 125 558 q 413 701 288 701 q 492 694 453 701 q 564 669 532 686 l 531 511 l 485 511 l 471 629 m 535 767 l 419 886 l 254 767 l 226 793 l 392 985 l 475 985 l 571 793 l 535 767 z "},"ċ":{"ha":543,"x_min":46,"x_max":564,"o":"m 471 629 q 441 636 456 635 q 414 638 426 638 q 276 573 331 638 q 195 414 222 508 q 168 229 168 319 q 195 96 168 136 q 294 56 222 56 q 425 82 350 56 l 440 33 q 341 -1 393 10 q 244 -12 289 -12 q 101 40 157 -12 q 46 206 46 92 q 85 444 46 331 q 206 630 125 558 q 413 701 288 701 q 492 694 453 701 q 564 669 532 686 l 531 511 l 485 511 l 471 629 m 419 806 q 361 828 386 806 q 336 885 336 850 q 361 944 336 919 q 419 968 386 968 q 477 944 451 968 q 503 885 503 919 q 477 828 503 850 q 419 806 451 806 z "},"d":{"ha":711,"x_min":47,"x_max":711,"o":"m 193 -11 q 89 29 131 -11 q 47 181 47 69 q 163 567 47 433 q 439 701 278 701 q 499 698 475 701 q 546 689 524 694 l 592 917 l 486 929 l 479 961 q 598 996 539 982 q 686 1010 657 1010 q 711 985 711 1010 q 697 903 711 979 q 663 714 683 826 q 622 484 643 601 q 583 279 600 367 q 564 176 572 221 q 551 68 556 131 l 663 68 l 663 28 q 571 -1 606 8 q 508 -11 536 -11 q 446 46 446 -11 q 450 91 446 53 q 454 129 454 129 q 326 28 408 67 q 193 -11 243 -11 m 257 74 q 363 121 296 74 q 460 214 431 168 q 474 282 461 214 q 504 442 486 350 q 535 601 522 533 q 425 638 501 638 q 278 568 335 638 q 194 398 221 499 q 167 200 167 297 q 191 101 167 128 q 257 74 215 74 z "},"ð":{"ha":690,"x_min":46,"x_max":644,"o":"m 254 -12 q 97 41 147 -12 q 46 199 46 94 q 156 569 46 438 q 435 701 267 701 q 467 699 451 701 q 497 696 483 697 q 444 818 475 763 l 315 736 l 285 788 l 414 869 q 314 1001 376 928 l 350 1035 q 415 973 383 1004 q 474 907 446 942 l 597 985 l 628 936 l 508 860 q 606 681 569 774 q 644 503 642 589 l 644 469 q 642 437 643 453 q 639 403 642 421 q 513 97 618 206 q 254 -12 408 -12 m 281 56 q 424 128 369 56 q 501 303 478 200 q 525 496 525 406 q 501 594 525 557 q 411 632 476 632 q 267 560 321 632 q 189 385 213 488 q 165 192 165 283 q 190 93 165 131 q 281 56 215 56 z "},"ď":{"ha":783,"x_min":47,"x_max":885,"o":"m 801 731 l 779 1008 l 818 1008 l 885 989 l 833 731 l 801 731 m 193 -11 q 89 29 131 -11 q 47 181 47 69 q 163 567 47 433 q 439 701 278 701 q 499 698 475 701 q 546 689 524 694 l 592 917 l 486 929 l 479 961 q 598 996 539 982 q 686 1010 657 1010 q 711 985 711 1010 q 697 903 711 979 q 663 714 683 826 q 622 484 643 601 q 583 279 600 367 q 564 176 572 221 q 551 68 556 131 l 663 68 l 663 28 q 571 -1 606 8 q 508 -11 536 -11 q 446 46 446 -11 q 450 91 446 53 q 454 129 454 129 q 326 28 408 67 q 193 -11 243 -11 m 257 74 q 363 121 296 74 q 460 214 431 168 q 474 282 461 214 q 504 442 486 350 q 535 601 522 533 q 425 638 501 638 q 278 568 335 638 q 194 398 221 499 q 167 200 167 297 q 191 101 167 128 q 257 74 215 74 z "},"đ":{"ha":711,"x_min":47,"x_max":771,"o":"m 193 -11 q 89 29 131 -11 q 47 181 47 69 q 163 567 47 433 q 439 701 278 701 q 499 698 475 701 q 546 689 524 694 l 569 811 l 364 811 l 364 875 l 583 875 l 594 931 l 489 943 l 482 975 q 601 1002 544 994 q 686 1010 657 1010 q 711 985 711 1010 q 704 940 711 978 q 692 875 697 903 l 771 875 l 771 811 l 679 811 q 647 633 664 722 q 615 456 631 544 q 583 279 600 368 q 564 176 572 221 q 551 68 556 131 l 663 68 l 663 28 q 571 -1 606 8 q 508 -11 536 -11 q 446 46 446 -11 q 450 91 446 53 q 454 129 454 129 q 326 28 408 67 q 193 -11 243 -11 m 257 74 q 363 121 296 74 q 460 214 431 168 q 474 282 461 214 q 504 442 486 350 q 535 601 522 533 q 425 638 501 638 q 278 568 335 638 q 194 398 221 499 q 167 200 167 297 q 191 101 167 128 q 257 74 215 74 z "},"ḍ":{"ha":711,"x_min":47,"x_max":711,"o":"m 193 -11 q 89 29 131 -11 q 47 181 47 69 q 163 567 47 433 q 439 701 278 701 q 499 698 475 701 q 546 689 524 694 l 592 917 l 486 929 l 479 961 q 598 996 539 982 q 686 1010 657 1010 q 711 985 711 1010 q 697 903 711 979 q 663 714 683 826 q 622 484 643 601 q 583 279 600 367 q 564 176 572 221 q 551 68 556 131 l 663 68 l 663 28 q 571 -1 606 8 q 508 -11 536 -11 q 446 46 446 -11 q 450 91 446 53 q 454 129 454 129 q 326 28 408 67 q 193 -11 243 -11 m 257 74 q 363 121 296 74 q 460 214 431 168 q 474 282 461 214 q 504 442 486 350 q 535 601 522 533 q 425 638 501 638 q 278 568 335 638 q 194 398 221 499 q 167 200 167 297 q 191 101 167 128 q 257 74 215 74 m 263 -57 q 320 -81 294 -57 q 346 -140 346 -106 q 320 -197 346 -175 q 263 -219 294 -219 q 204 -197 229 -219 q 179 -140 179 -175 q 204 -81 179 -106 q 263 -57 229 -57 z "},"ǳ":{"ha":1256,"x_min":47,"x_max":1288,"o":"m 193 -11 q 89 29 131 -11 q 47 181 47 69 q 163 567 47 433 q 439 701 278 701 q 499 698 475 701 q 546 689 524 694 l 592 917 l 486 929 l 479 961 q 598 996 539 982 q 686 1010 657 1010 q 711 985 711 1010 q 697 903 711 979 q 663 714 683 826 q 622 484 643 601 q 583 279 600 367 q 564 176 572 221 q 551 68 556 131 l 663 68 l 663 28 q 571 -1 606 8 q 508 -11 536 -11 q 446 46 446 -11 q 450 91 446 53 q 454 129 454 129 q 326 28 408 67 q 193 -11 243 -11 m 257 74 q 363 121 296 74 q 460 214 431 168 q 474 282 461 214 q 504 442 486 350 q 535 601 522 533 q 425 638 501 638 q 278 568 335 638 q 194 398 221 499 q 167 200 167 297 q 191 101 167 128 q 257 74 215 74 m 1074 -56 q 983 -29 1028 -56 q 892 23 938 -3 q 804 49 847 49 q 748 24 771 49 q 725 -1 725 -1 l 688 21 l 1131 583 l 810 583 l 797 685 l 1178 685 l 1260 707 l 1288 669 l 853 125 q 965 102 919 125 q 1052 56 1011 79 q 1146 33 1093 33 q 1210 46 1183 33 l 1221 1 q 1153 -37 1189 -19 q 1074 -56 1117 -56 z "},"ǆ":{"ha":1256,"x_min":47,"x_max":1288,"o":"m 193 -11 q 89 29 131 -11 q 47 181 47 69 q 163 567 47 433 q 439 701 278 701 q 499 698 475 701 q 546 689 524 694 l 592 917 l 486 929 l 479 961 q 598 996 539 982 q 686 1010 657 1010 q 711 985 711 1010 q 697 903 711 979 q 663 714 683 826 q 622 484 643 601 q 583 279 600 367 q 564 176 572 221 q 551 68 556 131 l 663 68 l 663 28 q 571 -1 606 8 q 508 -11 536 -11 q 446 46 446 -11 q 450 91 446 53 q 454 129 454 129 q 326 28 408 67 q 193 -11 243 -11 m 257 74 q 363 121 296 74 q 460 214 431 168 q 474 282 461 214 q 504 442 486 350 q 535 601 522 533 q 425 638 501 638 q 278 568 335 638 q 194 398 221 499 q 167 200 167 297 q 191 101 167 128 q 257 74 215 74 m 1074 -56 q 983 -29 1028 -56 q 892 23 938 -3 q 804 49 847 49 q 748 24 771 49 q 725 -1 725 -1 l 688 21 l 1131 583 l 810 583 l 797 685 l 1178 685 l 1260 707 l 1288 669 l 853 125 q 965 102 919 125 q 1052 56 1011 79 q 1146 33 1093 33 q 1210 46 1183 33 l 1221 1 q 1153 -37 1189 -19 q 1074 -56 1117 -56 m 958 993 l 1086 865 l 1253 994 l 1281 968 l 1114 767 l 1031 767 l 921 968 l 958 993 z "},"e":{"ha":564,"x_min":46,"x_max":576,"o":"m 400 635 q 265 568 319 635 q 185 379 210 501 q 392 424 315 379 q 469 556 469 469 q 453 611 469 588 q 400 635 436 635 m 431 701 q 533 667 489 701 q 576 565 576 633 q 472 395 576 458 q 172 332 368 332 q 164 272 167 300 q 161 221 161 244 q 198 92 161 126 q 336 58 235 58 q 391 66 363 58 q 443 83 419 74 l 453 38 q 359 0 407 13 q 267 -12 311 -12 q 100 42 154 -12 q 46 215 46 97 q 85 442 46 331 q 208 628 124 554 q 431 701 293 701 z "},"é":{"ha":585,"x_min":46,"x_max":607,"o":"m 400 635 q 265 568 319 635 q 185 379 210 501 q 392 424 315 379 q 469 556 469 469 q 453 611 469 588 q 400 635 436 635 m 431 701 q 533 667 489 701 q 576 565 576 633 q 472 395 576 458 q 172 332 368 332 q 164 272 167 300 q 161 221 161 244 q 198 92 161 126 q 336 58 235 58 q 391 66 363 58 q 443 83 419 74 l 453 38 q 359 0 407 13 q 267 -12 311 -12 q 100 42 154 -12 q 46 215 46 97 q 85 442 46 331 q 208 628 124 554 q 431 701 293 701 m 310 775 l 288 801 l 501 982 l 607 943 l 607 918 l 310 775 z "},"ĕ":{"ha":564,"x_min":46,"x_max":576,"o":"m 400 635 q 265 568 319 635 q 185 379 210 501 q 392 424 315 379 q 469 556 469 469 q 453 611 469 588 q 400 635 436 635 m 431 701 q 533 667 489 701 q 576 565 576 633 q 472 395 576 458 q 172 332 368 332 q 164 272 167 300 q 161 221 161 244 q 198 92 161 126 q 336 58 235 58 q 391 66 363 58 q 443 83 419 74 l 453 38 q 359 0 407 13 q 267 -12 311 -12 q 100 42 154 -12 q 46 215 46 97 q 85 442 46 331 q 208 628 124 554 q 431 701 293 701 m 375 807 q 264 842 293 807 q 235 928 235 878 q 237 948 235 938 q 242 968 239 958 l 289 968 q 285 946 285 958 q 306 901 286 919 q 385 882 325 882 q 486 908 458 882 q 521 968 514 935 l 567 968 q 513 857 554 907 q 375 807 471 807 z "},"ě":{"ha":564,"x_min":46,"x_max":603,"o":"m 400 635 q 265 568 319 635 q 185 379 210 501 q 392 424 315 379 q 469 556 469 469 q 453 611 469 588 q 400 635 436 635 m 431 701 q 533 667 489 701 q 576 565 576 633 q 472 395 576 458 q 172 332 368 332 q 164 272 167 300 q 161 221 161 244 q 198 92 161 126 q 336 58 235 58 q 391 66 363 58 q 443 83 419 74 l 453 38 q 359 0 407 13 q 267 -12 311 -12 q 100 42 154 -12 q 46 215 46 97 q 85 442 46 331 q 208 628 124 554 q 431 701 293 701 m 281 993 l 408 865 l 575 994 l 603 968 l 436 767 l 353 767 l 243 968 l 281 993 z "},"ê":{"ha":564,"x_min":46,"x_max":583,"o":"m 400 635 q 265 568 319 635 q 185 379 210 501 q 392 424 315 379 q 469 556 469 469 q 453 611 469 588 q 400 635 436 635 m 431 701 q 533 667 489 701 q 576 565 576 633 q 472 395 576 458 q 172 332 368 332 q 164 272 167 300 q 161 221 161 244 q 198 92 161 126 q 336 58 235 58 q 391 66 363 58 q 443 83 419 74 l 453 38 q 359 0 407 13 q 267 -12 311 -12 q 100 42 154 -12 q 46 215 46 97 q 85 442 46 331 q 208 628 124 554 q 431 701 293 701 m 547 767 l 432 886 l 267 767 l 239 793 l 404 985 l 488 985 l 583 793 l 547 767 z "},"ế":{"ha":564,"x_min":46,"x_max":785,"o":"m 400 635 q 265 568 319 635 q 185 379 210 501 q 392 424 315 379 q 469 556 469 469 q 453 611 469 588 q 400 635 436 635 m 431 701 q 533 667 489 701 q 576 565 576 633 q 472 395 576 458 q 172 332 368 332 q 164 272 167 300 q 161 221 161 244 q 198 92 161 126 q 336 58 235 58 q 391 66 363 58 q 443 83 419 74 l 453 38 q 359 0 407 13 q 267 -12 311 -12 q 100 42 154 -12 q 46 215 46 97 q 85 442 46 331 q 208 628 124 554 q 431 701 293 701 m 557 842 l 526 858 l 664 1103 l 776 1103 l 785 1079 l 557 842 m 503 767 l 388 886 l 222 767 l 194 793 l 360 985 l 443 985 l 539 793 l 503 767 z "},"ệ":{"ha":564,"x_min":46,"x_max":576,"o":"m 400 635 q 265 568 319 635 q 185 379 210 501 q 392 424 315 379 q 469 556 469 469 q 453 611 469 588 q 400 635 436 635 m 431 701 q 533 667 489 701 q 576 565 576 633 q 472 395 576 458 q 172 332 368 332 q 164 272 167 300 q 161 221 161 244 q 198 92 161 126 q 336 58 235 58 q 391 66 363 58 q 443 83 419 74 l 453 38 q 359 0 407 13 q 267 -12 311 -12 q 100 42 154 -12 q 46 215 46 97 q 85 442 46 331 q 208 628 124 554 q 431 701 293 701 m 189 -57 q 247 -81 221 -57 q 272 -140 272 -106 q 247 -197 272 -175 q 189 -219 221 -219 q 131 -197 156 -219 q 106 -140 106 -175 q 131 -81 106 -106 q 189 -57 156 -57 m 503 767 l 388 886 l 222 767 l 194 793 l 360 985 l 443 985 l 539 793 l 503 767 z "},"ề":{"ha":564,"x_min":46,"x_max":613,"o":"m 400 635 q 265 568 319 635 q 185 379 210 501 q 392 424 315 379 q 469 556 469 469 q 453 611 469 588 q 400 635 436 635 m 431 701 q 533 667 489 701 q 576 565 576 633 q 472 395 576 458 q 172 332 368 332 q 164 272 167 300 q 161 221 161 244 q 198 92 161 126 q 336 58 235 58 q 391 66 363 58 q 443 83 419 74 l 453 38 q 359 0 407 13 q 267 -12 311 -12 q 100 42 154 -12 q 46 215 46 97 q 85 442 46 331 q 208 628 124 554 q 431 701 293 701 m 579 839 l 433 1082 l 447 1103 l 536 1103 l 613 849 l 579 839 m 503 767 l 388 886 l 222 767 l 194 793 l 360 985 l 443 985 l 539 793 l 503 767 z "},"ể":{"ha":564,"x_min":46,"x_max":675,"o":"m 400 635 q 265 568 319 635 q 185 379 210 501 q 392 424 315 379 q 469 556 469 469 q 453 611 469 588 q 400 635 436 635 m 431 701 q 533 667 489 701 q 576 565 576 633 q 472 395 576 458 q 172 332 368 332 q 164 272 167 300 q 161 221 161 244 q 198 92 161 126 q 336 58 235 58 q 391 66 363 58 q 443 83 419 74 l 453 38 q 359 0 407 13 q 267 -12 311 -12 q 100 42 154 -12 q 46 215 46 97 q 85 442 46 331 q 208 628 124 554 q 431 701 293 701 m 503 767 l 388 886 l 222 767 l 194 793 l 360 985 l 443 985 l 539 793 l 503 767 m 507 929 q 508 936 507 932 q 508 943 508 940 q 533 981 511 972 q 577 999 556 990 q 599 1036 599 1008 q 557 1067 599 1067 q 544 1066 551 1067 q 529 1065 538 1065 l 510 1021 l 468 1021 l 474 1094 q 569 1103 528 1103 q 675 1040 675 1103 q 661 999 675 1014 q 629 976 647 985 q 585 958 606 965 q 560 929 565 951 l 507 929 z "},"ễ":{"ha":564,"x_min":46,"x_max":629,"o":"m 400 635 q 265 568 319 635 q 185 379 210 501 q 392 424 315 379 q 469 556 469 469 q 453 611 469 588 q 400 635 436 635 m 431 701 q 533 667 489 701 q 576 565 576 633 q 472 395 576 458 q 172 332 368 332 q 164 272 167 300 q 161 221 161 244 q 198 92 161 126 q 336 58 235 58 q 391 66 363 58 q 443 83 419 74 l 453 38 q 359 0 407 13 q 267 -12 311 -12 q 100 42 154 -12 q 46 215 46 97 q 85 442 46 331 q 208 628 124 554 q 431 701 293 701 z "},"ȅ":{"ha":564,"x_min":46,"x_max":576,"o":"m 400 635 q 265 568 319 635 q 185 379 210 501 q 392 424 315 379 q 469 556 469 469 q 453 611 469 588 q 400 635 436 635 m 431 701 q 533 667 489 701 q 576 565 576 633 q 472 395 576 458 q 172 332 368 332 q 164 272 167 300 q 161 221 161 244 q 198 92 161 126 q 336 58 235 58 q 391 66 363 58 q 443 83 419 74 l 453 38 q 359 0 407 13 q 267 -12 311 -12 q 100 42 154 -12 q 46 215 46 97 q 85 442 46 331 q 208 628 124 554 q 431 701 293 701 m 485 758 l 324 971 l 324 994 l 428 994 l 510 774 l 485 758 m 261 758 l 100 971 l 100 994 l 204 994 l 286 774 l 261 758 z "},"ë":{"ha":564,"x_min":46,"x_max":632,"o":"m 400 635 q 265 568 319 635 q 185 379 210 501 q 392 424 315 379 q 469 556 469 469 q 453 611 469 588 q 400 635 436 635 m 431 701 q 533 667 489 701 q 576 565 576 633 q 472 395 576 458 q 172 332 368 332 q 164 272 167 300 q 161 221 161 244 q 198 92 161 126 q 336 58 235 58 q 391 66 363 58 q 443 83 419 74 l 453 38 q 359 0 407 13 q 267 -12 311 -12 q 100 42 154 -12 q 46 215 46 97 q 85 442 46 331 q 208 628 124 554 q 431 701 293 701 m 361 886 q 338 833 361 856 q 282 810 314 810 q 226 833 250 810 q 203 886 203 856 q 226 943 203 919 q 282 967 250 967 q 338 943 314 967 q 361 886 361 919 m 632 886 q 608 833 632 856 q 551 810 583 810 q 496 833 519 810 q 472 886 472 856 q 496 943 472 919 q 551 967 519 967 q 608 943 583 967 q 632 886 632 919 z "},"ė":{"ha":564,"x_min":46,"x_max":576,"o":"m 400 635 q 265 568 319 635 q 185 379 210 501 q 392 424 315 379 q 469 556 469 469 q 453 611 469 588 q 400 635 436 635 m 431 701 q 533 667 489 701 q 576 565 576 633 q 472 395 576 458 q 172 332 368 332 q 164 272 167 300 q 161 221 161 244 q 198 92 161 126 q 336 58 235 58 q 391 66 363 58 q 443 83 419 74 l 453 38 q 359 0 407 13 q 267 -12 311 -12 q 100 42 154 -12 q 46 215 46 97 q 85 442 46 331 q 208 628 124 554 q 431 701 293 701 m 418 968 q 476 944 450 968 q 501 885 501 919 q 476 828 501 850 q 418 806 450 806 q 360 828 385 806 q 335 885 335 850 q 360 944 335 919 q 418 968 385 968 z "},"ẹ":{"ha":564,"x_min":46,"x_max":576,"o":"m 400 635 q 265 568 319 635 q 185 379 210 501 q 392 424 315 379 q 469 556 469 469 q 453 611 469 588 q 400 635 436 635 m 431 701 q 533 667 489 701 q 576 565 576 633 q 472 395 576 458 q 172 332 368 332 q 164 272 167 300 q 161 221 161 244 q 198 92 161 126 q 336 58 235 58 q 391 66 363 58 q 443 83 419 74 l 453 38 q 359 0 407 13 q 267 -12 311 -12 q 100 42 154 -12 q 46 215 46 97 q 85 442 46 331 q 208 628 124 554 q 431 701 293 701 m 189 -57 q 247 -81 221 -57 q 272 -140 272 -106 q 247 -197 272 -175 q 189 -219 221 -219 q 131 -197 156 -219 q 106 -140 106 -175 q 131 -81 106 -106 q 189 -57 156 -57 z "},"è":{"ha":564,"x_min":46,"x_max":576,"o":"m 400 635 q 265 568 319 635 q 185 379 210 501 q 392 424 315 379 q 469 556 469 469 q 453 611 469 588 q 400 635 436 635 m 431 701 q 533 667 489 701 q 576 565 576 633 q 472 395 576 458 q 172 332 368 332 q 164 272 167 300 q 161 221 161 244 q 198 92 161 126 q 336 58 235 58 q 391 66 363 58 q 443 83 419 74 l 453 38 q 359 0 407 13 q 267 -12 311 -12 q 100 42 154 -12 q 46 215 46 97 q 85 442 46 331 q 208 628 124 554 q 431 701 293 701 m 526 775 l 229 918 l 229 943 l 335 982 l 549 801 l 526 775 z "},"ẻ":{"ha":564,"x_min":46,"x_max":576,"o":"m 400 635 q 265 568 319 635 q 185 379 210 501 q 392 424 315 379 q 469 556 469 469 q 453 611 469 588 q 400 635 436 635 m 431 701 q 533 667 489 701 q 576 565 576 633 q 472 395 576 458 q 172 332 368 332 q 164 272 167 300 q 161 221 161 244 q 198 92 161 126 q 336 58 235 58 q 391 66 363 58 q 443 83 419 74 l 453 38 q 359 0 407 13 q 267 -12 311 -12 q 100 42 154 -12 q 46 215 46 97 q 85 442 46 331 q 208 628 124 554 q 431 701 293 701 m 353 775 q 353 782 353 778 q 354 789 354 786 q 379 827 357 818 q 423 845 401 836 q 444 882 444 854 q 403 913 444 913 q 390 912 397 913 q 375 911 383 911 l 356 867 l 314 867 l 319 940 q 415 949 374 949 q 521 886 521 949 q 507 845 521 860 q 475 822 493 831 q 431 804 451 811 q 406 775 411 797 l 353 775 z "},"ȇ":{"ha":564,"x_min":46,"x_max":576,"o":"m 400 635 q 265 568 319 635 q 185 379 210 501 q 392 424 315 379 q 469 556 469 469 q 453 611 469 588 q 400 635 436 635 m 431 701 q 533 667 489 701 q 576 565 576 633 q 472 395 576 458 q 172 332 368 332 q 164 272 167 300 q 161 221 161 244 q 198 92 161 126 q 336 58 235 58 q 391 66 363 58 q 443 83 419 74 l 453 38 q 359 0 407 13 q 267 -12 311 -12 q 100 42 154 -12 q 46 215 46 97 q 85 442 46 331 q 208 628 124 554 q 431 701 293 701 m 404 979 q 515 944 486 979 q 544 858 544 908 q 542 838 544 849 q 538 818 539 828 l 490 818 q 494 840 494 828 q 474 885 492 867 q 394 904 456 904 q 293 878 322 904 q 258 818 264 851 l 213 818 q 267 929 225 879 q 404 979 308 979 z "},"ē":{"ha":564,"x_min":46,"x_max":576,"o":"m 400 635 q 265 568 319 635 q 185 379 210 501 q 392 424 315 379 q 469 556 469 469 q 453 611 469 588 q 400 635 436 635 m 431 701 q 533 667 489 701 q 576 565 576 633 q 472 395 576 458 q 172 332 368 332 q 164 272 167 300 q 161 221 161 244 q 198 92 161 126 q 336 58 235 58 q 391 66 363 58 q 443 83 419 74 l 453 38 q 359 0 407 13 q 267 -12 311 -12 q 100 42 154 -12 q 46 215 46 97 q 85 442 46 331 q 208 628 124 554 q 431 701 293 701 m 268 876 l 569 876 l 558 804 l 257 804 l 268 876 z "},"ę":{"ha":564,"x_min":46,"x_max":576,"o":"m 317 -328 q 228 -299 254 -328 q 201 -229 201 -269 q 234 -122 201 -179 q 332 -6 267 -65 q 267 -12 294 -12 q 100 42 154 -12 q 46 215 46 97 q 85 442 46 331 q 208 628 124 554 q 431 701 293 701 q 533 667 489 701 q 576 565 576 633 q 472 395 576 458 q 172 332 368 332 q 164 272 167 300 q 161 221 161 244 q 198 92 161 126 q 336 58 235 58 q 391 66 363 58 q 443 83 419 74 l 453 38 l 446 33 q 342 -74 386 -1 q 297 -201 297 -146 q 364 -267 297 -267 q 438 -236 403 -267 l 457 -258 q 420 -293 457 -258 q 317 -328 383 -328 m 185 379 q 392 424 315 379 q 469 556 469 469 q 453 611 469 588 q 400 635 436 635 q 265 568 319 635 q 185 379 210 501 z "},"ẽ":{"ha":564,"x_min":46,"x_max":610,"o":"m 400 635 q 265 568 319 635 q 185 379 210 501 q 392 424 315 379 q 469 556 469 469 q 453 611 469 588 q 400 635 436 635 m 431 701 q 533 667 489 701 q 576 565 576 633 q 472 395 576 458 q 172 332 368 332 q 164 272 167 300 q 161 221 161 244 q 198 92 161 126 q 336 58 235 58 q 391 66 363 58 q 443 83 419 74 l 453 38 q 359 0 407 13 q 267 -12 311 -12 q 100 42 154 -12 q 46 215 46 97 q 85 442 46 331 q 208 628 124 554 q 431 701 293 701 m 610 940 q 565 849 588 888 q 508 811 542 811 q 409 839 472 811 q 311 867 346 867 q 269 842 289 867 q 249 817 249 817 l 207 833 q 252 926 229 888 q 310 964 275 964 q 408 936 344 964 q 507 908 471 908 q 549 933 531 908 q 567 957 567 957 l 610 940 z "},"ə":{"ha":564,"x_min":-12,"x_max":518,"o":"m 164 50 q 299 117 244 50 q 379 306 354 183 q 172 260 249 306 q 94 129 94 215 q 111 74 94 97 q 164 50 128 50 m 133 -17 q 31 17 75 -17 q -12 119 -12 51 q 92 290 -12 226 q 392 353 196 353 q 400 413 397 385 q 403 464 403 440 q 366 592 403 558 q 228 626 329 626 q 173 619 201 626 q 121 601 144 611 l 111 647 q 205 685 157 672 q 297 697 253 697 q 464 642 410 697 q 518 469 518 588 q 479 242 518 354 q 356 57 440 131 q 133 -17 271 -17 z "},"f":{"ha":418,"x_min":-189,"x_max":625,"o":"m -29 -232 q -139 -211 -89 -232 q -189 -190 -189 -190 l -179 -140 q -74 -157 -125 -157 q 32 -129 -10 -157 q 92 0 74 -101 l 197 611 l 79 611 l 72 642 l 213 678 l 231 768 q 297 940 250 869 q 476 1010 344 1010 q 549 997 508 1010 q 625 969 590 985 l 608 906 q 554 921 579 917 q 500 925 529 925 q 388 891 424 925 q 335 758 351 857 l 322 685 l 472 685 l 472 611 l 310 611 l 199 -10 q 128 -173 181 -114 q -29 -232 75 -232 z "},"g":{"ha":701,"x_min":-14,"x_max":668,"o":"m 178 -247 q 80 -235 122 -247 q -14 -200 38 -222 l 4 -140 q 82 -162 44 -156 q 156 -168 119 -168 q 353 -107 292 -168 q 436 111 414 -46 q 326 35 389 56 q 219 15 264 15 q 104 53 153 15 q 56 213 56 90 q 97 452 56 340 q 226 633 138 564 q 454 701 314 701 q 548 689 503 701 q 593 676 593 676 l 624 725 l 668 714 l 533 7 q 478 -122 519 -64 q 362 -213 436 -179 q 178 -247 288 -247 m 267 101 q 370 129 307 101 q 461 226 433 157 q 475 291 463 226 q 505 443 488 356 q 536 601 522 531 q 435 633 500 633 q 303 588 354 633 q 225 476 253 543 q 187 340 197 408 q 176 226 176 272 q 201 126 176 150 q 267 101 225 101 z "},"ǵ":{"ha":701,"x_min":-14,"x_max":668,"o":"m 178 -247 q 80 -235 122 -247 q -14 -200 38 -222 l 4 -140 q 82 -162 44 -156 q 156 -168 119 -168 q 353 -107 292 -168 q 436 111 414 -46 q 326 35 389 56 q 219 15 264 15 q 104 53 153 15 q 56 213 56 90 q 97 452 56 340 q 226 633 138 564 q 454 701 314 701 q 548 689 503 701 q 593 676 593 676 l 624 725 l 668 714 l 533 7 q 478 -122 519 -64 q 362 -213 436 -179 q 178 -247 288 -247 m 267 101 q 370 129 307 101 q 461 226 433 157 q 475 291 463 226 q 505 443 488 356 q 536 601 522 531 q 435 633 500 633 q 303 588 354 633 q 225 476 253 543 q 187 340 197 408 q 176 226 176 272 q 201 126 176 150 q 267 101 225 101 m 325 775 l 303 801 l 517 982 l 622 943 l 622 918 l 325 775 z "},"ğ":{"ha":675,"x_min":-25,"x_max":657,"o":"m 167 -247 q 69 -235 111 -247 q -25 -200 26 -222 l -7 -140 q 71 -162 33 -156 q 144 -168 108 -168 q 342 -107 281 -168 q 425 111 403 -46 q 315 35 378 56 q 208 15 253 15 q 93 53 142 15 q 44 213 44 90 q 85 452 44 340 q 215 633 126 564 q 443 701 303 701 q 537 689 492 701 q 582 676 582 676 l 613 725 l 657 714 l 522 7 q 467 -122 508 -64 q 351 -213 425 -179 q 167 -247 276 -247 m 256 101 q 359 129 296 101 q 450 226 422 157 q 464 291 451 226 q 494 443 476 356 q 525 601 511 531 q 424 633 489 633 q 292 588 343 633 q 214 476 242 543 q 176 340 186 408 q 165 226 165 272 q 190 126 165 150 q 256 101 214 101 m 436 807 q 325 842 354 807 q 296 928 296 878 q 298 948 296 938 q 303 968 300 958 l 350 968 q 346 946 346 958 q 367 901 347 919 q 446 882 386 882 q 547 908 519 882 q 582 968 575 935 l 628 968 q 574 857 615 907 q 436 807 532 807 z "},"ǧ":{"ha":701,"x_min":-14,"x_max":668,"o":"m 178 -247 q 80 -235 122 -247 q -14 -200 38 -222 l 4 -140 q 82 -162 44 -156 q 156 -168 119 -168 q 353 -107 292 -168 q 436 111 414 -46 q 326 35 389 56 q 219 15 264 15 q 104 53 153 15 q 56 213 56 90 q 97 452 56 340 q 226 633 138 564 q 454 701 314 701 q 548 689 503 701 q 593 676 593 676 l 624 725 l 668 714 l 533 7 q 478 -122 519 -64 q 362 -213 436 -179 q 178 -247 288 -247 m 267 101 q 370 129 307 101 q 461 226 433 157 q 475 291 463 226 q 505 443 488 356 q 536 601 522 531 q 435 633 500 633 q 303 588 354 633 q 225 476 253 543 q 187 340 197 408 q 176 226 176 272 q 201 126 176 150 q 267 101 225 101 m 326 993 l 454 865 l 621 994 l 649 968 l 482 767 l 399 767 l 289 968 l 326 993 z "},"ĝ":{"ha":701,"x_min":-14,"x_max":668,"o":"m 178 -247 q 80 -235 122 -247 q -14 -200 38 -222 l 4 -140 q 82 -162 44 -156 q 156 -168 119 -168 q 353 -107 292 -168 q 436 111 414 -46 q 326 35 389 56 q 219 15 264 15 q 104 53 153 15 q 56 213 56 90 q 97 452 56 340 q 226 633 138 564 q 454 701 314 701 q 548 689 503 701 q 593 676 593 676 l 624 725 l 668 714 l 533 7 q 478 -122 519 -64 q 362 -213 436 -179 q 178 -247 288 -247 m 267 101 q 370 129 307 101 q 461 226 433 157 q 475 291 463 226 q 505 443 488 356 q 536 601 522 531 q 435 633 500 633 q 303 588 354 633 q 225 476 253 543 q 187 340 197 408 q 176 226 176 272 q 201 126 176 150 q 267 101 225 101 m 572 767 l 457 886 l 292 767 l 264 793 l 429 985 l 513 985 l 608 793 l 572 767 z "},"ģ":{"ha":675,"x_min":-25,"x_max":657,"o":"m 167 -247 q 69 -235 111 -247 q -25 -200 26 -222 l -7 -140 q 71 -162 33 -156 q 144 -168 108 -168 q 342 -107 281 -168 q 425 111 403 -46 q 315 35 378 56 q 208 15 253 15 q 93 53 142 15 q 44 213 44 90 q 85 452 44 340 q 215 633 126 564 q 443 701 303 701 q 537 689 492 701 q 582 676 582 676 l 613 725 l 657 714 l 522 7 q 467 -122 508 -64 q 351 -213 425 -179 q 167 -247 276 -247 m 256 101 q 359 129 296 101 q 450 226 422 157 q 464 291 451 226 q 494 443 476 356 q 525 601 511 531 q 424 633 489 633 q 292 588 343 633 q 214 476 242 543 q 176 340 186 408 q 165 226 165 272 q 190 126 165 150 q 256 101 214 101 m 400 772 l 379 796 l 513 1029 l 551 1018 l 504 794 l 400 772 z "},"ġ":{"ha":701,"x_min":-14,"x_max":668,"o":"m 178 -247 q 80 -235 122 -247 q -14 -200 38 -222 l 4 -140 q 82 -162 44 -156 q 156 -168 119 -168 q 353 -107 292 -168 q 436 111 414 -46 q 326 35 389 56 q 219 15 264 15 q 104 53 153 15 q 56 213 56 90 q 97 452 56 340 q 226 633 138 564 q 454 701 314 701 q 548 689 503 701 q 593 676 593 676 l 624 725 l 668 714 l 533 7 q 478 -122 519 -64 q 362 -213 436 -179 q 178 -247 288 -247 m 267 101 q 370 129 307 101 q 461 226 433 157 q 475 291 463 226 q 505 443 488 356 q 536 601 522 531 q 435 633 500 633 q 303 588 354 633 q 225 476 253 543 q 187 340 197 408 q 176 226 176 272 q 201 126 176 150 q 267 101 225 101 m 457 806 q 399 828 424 806 q 374 885 374 850 q 399 944 374 919 q 457 968 424 968 q 515 944 489 968 q 540 885 540 919 q 515 828 540 850 q 457 806 489 806 z "},"h":{"ha":765,"x_min":63,"x_max":678,"o":"m 63 -12 l 243 915 l 139 929 l 133 960 q 250 996 192 982 q 340 1010 308 1010 q 365 976 365 1010 q 356 921 365 969 q 334 802 347 872 q 306 660 321 732 q 282 533 292 588 q 437 653 347 604 q 589 701 526 701 q 649 681 625 701 q 672 615 672 661 q 651 495 672 592 q 604 279 631 399 q 560 68 578 160 l 678 68 l 678 26 q 601 -2 638 8 q 535 -12 565 -12 q 472 5 496 -12 q 447 60 447 22 q 463 149 447 76 q 499 310 479 221 q 535 472 519 399 q 551 564 551 544 q 506 608 551 608 q 390 567 461 608 q 268 460 319 525 l 193 10 l 63 -12 z "},"ħ":{"ha":765,"x_min":63,"x_max":678,"o":"m 63 -12 l 224 811 l 108 811 l 121 875 l 236 875 l 247 931 l 142 943 l 135 975 q 256 1002 199 994 q 342 1010 313 1010 q 367 985 367 1010 q 360 940 367 976 q 347 875 353 903 l 528 875 l 515 811 l 336 811 q 307 665 322 742 q 282 533 292 589 q 437 653 347 604 q 589 701 526 701 q 649 681 625 701 q 672 615 672 661 q 651 495 672 592 q 604 279 631 399 q 560 68 578 160 l 678 68 l 678 26 q 601 -2 638 8 q 535 -12 565 -12 q 472 5 496 -12 q 447 60 447 22 q 463 149 447 76 q 499 310 479 221 q 535 472 519 399 q 551 564 551 544 q 506 608 551 608 q 390 567 461 608 q 268 460 319 525 l 193 10 l 63 -12 z "},"ĥ":{"ha":765,"x_min":63,"x_max":678,"o":"m 63 -12 l 243 915 l 139 929 l 133 960 q 250 996 192 982 q 340 1010 308 1010 q 365 976 365 1010 q 356 921 365 969 q 334 802 347 872 q 306 660 321 732 q 282 533 292 588 q 437 653 347 604 q 589 701 526 701 q 649 681 625 701 q 672 615 672 661 q 651 495 672 592 q 604 279 631 399 q 560 68 578 160 l 678 68 l 678 26 q 601 -2 638 8 q 535 -12 565 -12 q 472 5 496 -12 q 447 60 447 22 q 463 149 447 76 q 499 310 479 221 q 535 472 519 399 q 551 564 551 544 q 506 608 551 608 q 390 567 461 608 q 268 460 319 525 l 193 10 l 63 -12 z "},"ḥ":{"ha":765,"x_min":63,"x_max":678,"o":"m 63 -12 l 243 915 l 139 929 l 133 960 q 250 996 192 982 q 340 1010 308 1010 q 365 976 365 1010 q 356 921 365 969 q 334 802 347 872 q 306 660 321 732 q 282 533 292 588 q 437 653 347 604 q 589 701 526 701 q 649 681 625 701 q 672 615 672 661 q 651 495 672 592 q 604 279 631 399 q 560 68 578 160 l 678 68 l 678 26 q 601 -2 638 8 q 535 -12 565 -12 q 472 5 496 -12 q 447 60 447 22 q 463 149 447 76 q 499 310 479 221 q 535 472 519 399 q 551 564 551 544 q 506 608 551 608 q 390 567 461 608 q 268 460 319 525 l 193 10 l 63 -12 m 290 -57 q 348 -81 322 -57 q 374 -140 374 -106 q 348 -197 374 -175 q 290 -219 322 -219 q 232 -197 257 -219 q 207 -140 207 -175 q 232 -81 207 -106 q 290 -57 257 -57 z "},"i":{"ha":401,"x_min":79,"x_max":371,"o":"m 290 968 q 347 944 322 968 q 371 888 371 921 q 347 832 371 856 q 290 808 322 808 q 233 832 257 808 q 208 888 208 856 q 233 944 208 921 q 290 968 257 968 m 314 671 q 301 599 314 664 q 268 441 288 535 q 228 247 249 347 q 192 68 207 147 l 310 68 l 310 26 q 210 -3 251 7 q 143 -12 169 -12 q 94 3 108 -12 q 79 46 79 19 q 91 117 79 57 q 121 264 103 178 q 158 442 139 350 q 192 608 178 533 l 86 618 l 81 653 q 198 688 139 674 q 288 701 257 701 q 314 671 314 701 z "},"ı":{"ha":406,"x_min":82,"x_max":317,"o":"m 315 671 q 303 599 315 664 q 272 441 290 535 q 233 247 253 347 q 199 68 214 147 l 317 68 l 317 26 q 217 -3 258 7 q 150 -12 176 -12 q 101 3 115 -12 q 86 46 86 19 q 105 159 86 61 q 149 383 124 257 q 193 608 174 508 l 88 618 l 82 653 q 199 688 140 674 q 289 701 258 701 q 315 671 315 701 z "},"í":{"ha":406,"x_min":82,"x_max":429,"o":"m 150 -12 q 101 3 115 -12 q 86 46 86 19 q 105 159 86 61 q 149 383 124 257 q 193 608 174 508 l 88 618 l 82 653 q 199 688 140 674 q 289 701 258 701 q 315 671 315 701 q 303 599 315 664 q 272 441 290 535 q 233 247 253 347 q 199 68 214 147 l 317 68 l 317 26 q 217 -3 258 7 q 150 -12 176 -12 m 132 775 l 110 801 l 324 982 l 429 943 l 429 918 l 132 775 z "},"ĭ":{"ha":406,"x_min":82,"x_max":488,"o":"m 315 671 q 303 599 315 664 q 272 441 290 535 q 233 247 253 347 q 199 68 214 147 l 317 68 l 317 26 q 217 -3 258 7 q 150 -12 176 -12 q 101 3 115 -12 q 86 46 86 19 q 105 159 86 61 q 149 383 124 257 q 193 608 174 508 l 88 618 l 82 653 q 199 688 140 674 q 289 701 258 701 q 315 671 315 701 m 296 807 q 185 842 214 807 q 156 928 156 878 q 158 948 156 938 q 163 968 160 958 l 210 968 q 206 946 206 958 q 226 901 207 919 q 306 882 246 882 q 407 908 379 882 q 442 968 435 935 l 488 968 q 433 857 475 907 q 296 807 392 807 z "},"ǐ":{"ha":406,"x_min":82,"x_max":500,"o":"m 315 671 q 303 599 315 664 q 272 441 290 535 q 233 247 253 347 q 199 68 214 147 l 317 68 l 317 26 q 217 -3 258 7 q 150 -12 176 -12 q 101 3 115 -12 q 86 46 86 19 q 105 159 86 61 q 149 383 124 257 q 193 608 174 508 l 88 618 l 82 653 q 199 688 140 674 q 289 701 258 701 q 315 671 315 701 m 178 993 l 306 865 l 472 994 l 500 968 l 333 767 l 250 767 l 140 968 l 178 993 z "},"î":{"ha":406,"x_min":71,"x_max":386,"o":"m 150 -12 q 101 3 115 -12 q 86 46 86 19 q 105 159 86 61 q 149 383 124 257 q 193 608 174 508 l 88 618 l 82 653 q 199 688 140 674 q 289 701 258 701 q 315 671 315 701 q 303 599 315 664 q 272 441 290 535 q 233 247 253 347 q 199 68 214 147 l 317 68 l 317 26 q 217 -3 258 7 q 150 -12 176 -12 m 99 767 l 71 793 l 222 985 l 306 985 l 386 792 l 351 767 l 250 886 l 99 767 z "},"ȉ":{"ha":406,"x_min":21,"x_max":431,"o":"m 315 671 q 303 599 315 664 q 272 441 290 535 q 233 247 253 347 q 199 68 214 147 l 317 68 l 317 26 q 217 -3 258 7 q 150 -12 176 -12 q 101 3 115 -12 q 86 46 86 19 q 105 159 86 61 q 149 383 124 257 q 193 608 174 508 l 88 618 l 82 653 q 199 688 140 674 q 289 701 258 701 q 315 671 315 701 m 406 758 l 244 971 l 244 994 l 349 994 l 431 774 l 406 758 m 182 758 l 21 971 l 21 994 l 125 994 l 207 774 l 182 758 z "},"ï":{"ha":406,"x_min":54,"x_max":444,"o":"m 213 886 q 188 833 213 856 q 133 810 164 810 q 78 833 103 810 q 54 886 54 856 q 78 943 54 919 q 133 967 103 967 q 188 943 164 967 q 213 886 213 919 m 444 886 q 419 833 444 856 q 364 810 394 810 q 309 833 333 810 q 285 886 285 856 q 309 943 285 919 q 364 967 333 967 q 419 943 394 967 q 444 886 444 919 m 315 671 q 303 599 315 664 q 272 441 290 535 q 233 247 253 347 q 199 68 214 147 l 317 68 l 317 26 q 217 -3 258 7 q 150 -12 176 -12 q 101 3 115 -12 q 86 46 86 19 q 105 159 86 61 q 149 383 124 257 q 193 608 174 508 l 88 618 l 82 653 q 199 688 140 674 q 289 701 258 701 q 315 671 315 701 z "},"ị":{"ha":401,"x_min":26,"x_max":371,"o":"m 290 968 q 347 944 322 968 q 371 888 371 921 q 347 832 371 856 q 290 808 322 808 q 233 832 257 808 q 208 888 208 856 q 233 944 208 921 q 290 968 257 968 m 314 671 q 301 599 314 664 q 268 441 288 535 q 228 247 249 347 q 192 68 207 147 l 310 68 l 310 26 q 210 -3 251 7 q 143 -12 169 -12 q 94 3 108 -12 q 79 46 79 19 q 91 117 79 57 q 121 264 103 178 q 158 442 139 350 q 192 608 178 533 l 86 618 l 81 653 q 198 688 139 674 q 288 701 257 701 q 314 671 314 701 m 110 -57 q 167 -81 142 -57 q 193 -140 193 -106 q 167 -197 193 -175 q 110 -219 142 -219 q 51 -197 76 -219 q 26 -140 26 -175 q 51 -81 26 -106 q 110 -57 76 -57 z "},"ì":{"ha":406,"x_min":46,"x_max":365,"o":"m 150 -12 q 101 3 115 -12 q 86 46 86 19 q 105 159 86 61 q 149 383 124 257 q 193 608 174 508 l 88 618 l 82 653 q 199 688 140 674 q 289 701 258 701 q 315 671 315 701 q 303 599 315 664 q 272 441 290 535 q 233 247 253 347 q 199 68 214 147 l 317 68 l 317 26 q 217 -3 258 7 q 150 -12 176 -12 m 343 775 l 46 918 l 46 943 l 151 982 l 365 801 l 343 775 z "},"ỉ":{"ha":406,"x_min":82,"x_max":442,"o":"m 315 671 q 303 599 315 664 q 272 441 290 535 q 233 247 253 347 q 199 68 214 147 l 317 68 l 317 26 q 217 -3 258 7 q 150 -12 176 -12 q 101 3 115 -12 q 86 46 86 19 q 105 159 86 61 q 149 383 124 257 q 193 608 174 508 l 88 618 l 82 653 q 199 688 140 674 q 289 701 258 701 q 315 671 315 701 m 274 775 q 274 782 274 778 q 275 789 275 786 q 300 827 278 818 q 344 845 322 836 q 365 882 365 854 q 324 913 365 913 q 311 912 318 913 q 296 911 304 911 l 276 867 l 235 867 l 240 940 q 336 949 294 949 q 442 886 442 949 q 428 845 442 860 q 396 822 414 831 q 352 804 372 811 q 326 775 332 797 l 274 775 z "},"ȋ":{"ha":406,"x_min":82,"x_max":465,"o":"m 315 671 q 303 599 315 664 q 272 441 290 535 q 233 247 253 347 q 199 68 214 147 l 317 68 l 317 26 q 217 -3 258 7 q 150 -12 176 -12 q 101 3 115 -12 q 86 46 86 19 q 105 159 86 61 q 149 383 124 257 q 193 608 174 508 l 88 618 l 82 653 q 199 688 140 674 q 289 701 258 701 q 315 671 315 701 m 325 979 q 436 944 407 979 q 465 858 465 908 q 463 838 465 849 q 458 818 460 828 l 411 818 q 415 840 415 828 q 394 885 413 867 q 315 904 376 904 q 214 878 243 904 q 179 818 185 851 l 133 818 q 188 929 146 879 q 325 979 229 979 z "},"ĳ":{"ha":750,"x_min":79,"x_max":747,"o":"m 290 968 q 347 944 322 968 q 371 888 371 921 q 347 832 371 856 q 290 808 322 808 q 233 832 257 808 q 208 888 208 856 q 233 944 208 921 q 290 968 257 968 m 314 671 q 301 599 314 664 q 268 441 288 535 q 228 247 249 347 q 192 68 207 147 l 310 68 l 310 26 q 210 -3 251 7 q 143 -12 169 -12 q 94 3 108 -12 q 79 46 79 19 q 91 117 79 57 q 121 264 103 178 q 158 442 139 350 q 192 608 178 533 l 86 618 l 81 653 q 198 688 139 674 q 288 701 257 701 q 314 671 314 701 m 333 -232 q 226 -212 268 -232 q 183 -192 183 -192 l 194 -140 q 245 -151 218 -147 q 300 -156 272 -156 q 406 -123 365 -156 q 463 0 447 -90 l 568 608 l 463 618 l 457 653 q 574 688 510 674 q 663 701 639 701 q 690 669 690 701 q 678 598 690 667 q 649 424 667 529 q 610 201 631 318 q 572 -14 590 85 q 494 -174 554 -115 q 333 -232 433 -232 m 665 808 q 608 832 633 808 q 583 886 583 856 q 608 944 583 921 q 665 968 633 968 q 723 944 699 968 q 747 886 747 921 q 723 832 747 856 q 665 808 699 808 z "},"ī":{"ha":406,"x_min":82,"x_max":394,"o":"m 315 671 q 303 599 315 664 q 272 441 290 535 q 233 247 253 347 q 199 68 214 147 l 317 68 l 317 26 q 217 -3 258 7 q 150 -12 176 -12 q 101 3 115 -12 q 86 46 86 19 q 105 159 86 61 q 149 383 124 257 q 193 608 174 508 l 88 618 l 82 653 q 199 688 140 674 q 289 701 258 701 q 315 671 315 701 m 93 876 l 394 876 l 383 804 l 82 804 l 93 876 z "},"į":{"ha":406,"x_min":71,"x_max":383,"o":"m 326 671 q 313 599 326 664 q 281 441 300 535 q 240 247 261 347 q 204 68 219 147 l 322 68 l 322 26 q 213 -76 260 -7 q 167 -201 167 -144 q 233 -267 167 -267 q 307 -236 272 -267 l 326 -258 q 290 -293 326 -258 q 186 -328 253 -328 q 97 -299 124 -328 q 71 -229 71 -269 q 108 -119 71 -176 q 221 -3 144 -61 q 156 -12 183 -12 q 106 3 121 -12 q 92 46 92 19 q 103 117 92 57 q 133 264 115 178 q 170 442 151 350 q 204 608 189 533 l 99 618 l 93 653 q 210 688 151 674 q 300 701 269 701 q 326 671 326 701 m 303 968 q 359 944 335 968 q 383 888 383 921 q 359 832 383 856 q 303 808 335 808 q 245 832 269 808 q 221 888 221 856 q 245 944 221 921 q 303 968 269 968 z "},"ĩ":{"ha":406,"x_min":51,"x_max":424,"o":"m 150 -12 q 101 3 115 -12 q 86 46 86 19 q 105 159 86 61 q 149 383 124 257 q 193 608 174 508 l 88 618 l 82 653 q 199 688 140 674 q 289 701 258 701 q 315 671 315 701 q 303 599 315 664 q 272 441 290 535 q 233 247 253 347 q 199 68 214 147 l 317 68 l 317 26 q 217 -3 258 7 q 150 -12 176 -12 m 322 811 q 238 839 286 811 q 156 867 190 867 q 113 842 133 867 q 93 817 93 817 l 51 833 q 97 926 74 888 q 154 964 119 964 q 237 936 189 964 q 321 908 285 908 q 363 933 344 908 q 381 957 381 957 l 424 940 q 378 849 401 888 q 322 811 356 811 z "},"j":{"ha":385,"x_min":-182,"x_max":382,"o":"m -32 -232 q -140 -212 -97 -232 q -182 -192 -182 -192 l -171 -140 q -120 -151 -147 -147 q -65 -156 -93 -156 q 41 -123 0 -156 q 97 0 82 -90 l 203 608 l 97 618 l 92 653 q 209 688 144 674 q 297 701 274 701 q 325 669 325 701 q 313 598 325 667 q 283 424 301 529 q 245 201 265 318 q 207 -14 225 85 q 128 -174 189 -115 q -32 -232 68 -232 m 300 808 q 243 832 268 808 q 218 886 218 856 q 243 944 218 921 q 300 968 268 968 q 358 944 333 968 q 382 886 382 921 q 358 832 382 856 q 300 808 333 808 z "},"ȷ":{"ha":385,"x_min":-182,"x_max":325,"o":"m 325 669 q 313 598 325 667 q 283 424 301 529 q 245 201 265 318 q 207 -14 225 85 q 128 -174 189 -115 q -32 -232 68 -232 q -140 -212 -97 -232 q -182 -192 -182 -192 l -171 -140 q -120 -151 -147 -147 q -65 -156 -93 -156 q 41 -123 0 -156 q 97 0 82 -90 l 203 608 l 97 618 l 92 653 q 209 688 144 674 q 297 701 274 701 q 325 669 325 701 z "},"ĵ":{"ha":385,"x_min":-182,"x_max":450,"o":"m 325 669 q 313 598 325 667 q 283 424 301 529 q 245 201 265 318 q 207 -14 225 85 q 128 -174 189 -115 q -32 -232 68 -232 q -140 -212 -97 -232 q -182 -192 -182 -192 l -171 -140 q -120 -151 -147 -147 q -65 -156 -93 -156 q 41 -123 0 -156 q 97 0 82 -90 l 203 608 l 97 618 l 92 653 q 209 688 144 674 q 297 701 274 701 q 325 669 325 701 m 414 767 l 299 886 l 133 767 l 106 793 l 271 985 l 354 985 l 450 793 l 414 767 z "},"k":{"ha":693,"x_min":63,"x_max":678,"o":"m 194 10 l 63 -12 l 243 915 l 138 929 l 132 961 q 339 1010 264 1010 q 365 978 365 1010 q 353 896 365 964 q 322 731 340 828 q 283 535 303 635 q 357 606 306 567 q 471 673 408 644 q 590 701 533 701 q 678 610 678 701 q 617 459 678 531 q 411 346 557 388 l 524 68 l 626 68 l 626 26 q 527 -3 568 7 q 461 -12 486 -12 q 411 42 439 -12 q 358 167 383 96 q 315 293 332 239 q 299 347 299 347 l 307 364 q 495 456 425 393 q 565 571 565 519 q 517 611 565 611 q 390 564 467 611 q 269 463 314 517 l 194 10 z "},"ķ":{"ha":682,"x_min":65,"x_max":681,"o":"m 65 -12 l 246 915 l 140 929 l 135 961 q 342 1010 267 1010 q 368 978 368 1010 q 356 896 368 964 q 324 731 343 828 q 286 535 306 635 q 360 606 308 567 q 474 673 411 644 q 593 701 536 701 q 681 610 681 701 q 620 459 681 531 q 414 346 560 388 l 526 68 l 629 68 l 629 26 q 530 -3 571 7 q 464 -12 489 -12 q 414 42 442 -12 q 360 167 386 96 q 318 293 335 239 q 301 347 301 347 l 310 364 q 498 456 428 393 q 568 571 568 519 q 519 611 568 611 q 393 564 469 611 q 272 463 317 517 l 197 10 l 65 -12 m 228 -307 l 193 -297 l 242 -65 l 346 -43 l 367 -67 l 228 -307 z "},"ĸ":{"ha":710,"x_min":79,"x_max":696,"o":"m 211 8 l 79 -12 l 201 607 l 97 618 l 92 653 q 210 688 151 675 q 299 701 268 701 q 325 669 325 701 q 317 614 325 647 q 301 535 310 581 q 376 606 325 567 q 490 673 428 644 q 608 701 553 701 q 696 610 696 701 q 635 459 696 531 q 429 346 575 388 l 542 68 l 644 68 l 644 26 q 545 -3 586 7 q 479 -12 504 -12 q 429 42 457 -12 q 376 167 401 96 q 333 293 350 239 q 317 347 317 347 l 325 364 q 514 456 444 393 q 583 571 583 519 q 535 611 583 611 q 408 564 485 611 q 288 463 331 517 l 211 8 z "},"l":{"ha":403,"x_min":79,"x_max":364,"o":"m 146 -12 q 79 49 79 -12 q 85 92 79 57 q 102 192 90 126 q 133 356 114 257 q 177 594 151 456 q 236 913 203 732 l 129 926 l 122 957 q 244 995 182 981 q 338 1010 306 1010 q 364 979 364 1010 q 363 957 364 964 l 196 71 l 319 71 l 319 29 q 215 -2 258 8 q 146 -12 172 -12 z "},"ĺ":{"ha":406,"x_min":82,"x_max":449,"o":"m 151 1011 l 129 1038 l 343 1218 l 449 1179 l 449 1154 l 151 1011 m 149 -12 q 82 49 82 -12 q 88 92 82 57 q 105 192 93 126 q 135 356 117 257 q 180 594 154 456 q 239 913 206 732 l 132 926 l 125 957 q 247 995 185 981 q 340 1010 308 1010 q 367 979 367 1010 q 365 957 367 964 l 199 71 l 322 71 l 322 29 q 218 -2 261 8 q 149 -12 175 -12 z "},"ľ":{"ha":418,"x_min":82,"x_max":519,"o":"m 436 731 l 414 1008 l 453 1008 l 519 989 l 468 731 l 436 731 m 149 -12 q 82 49 82 -12 q 88 92 82 57 q 105 192 93 126 q 135 356 117 257 q 180 594 154 456 q 239 913 206 732 l 132 926 l 125 957 q 247 995 185 981 q 340 1010 308 1010 q 367 979 367 1010 q 365 957 367 964 l 199 71 l 322 71 l 322 29 q 218 -2 261 8 q 149 -12 175 -12 z "},"ļ":{"ha":406,"x_min":49,"x_max":367,"o":"m 83 -307 l 49 -297 l 97 -65 l 201 -43 l 222 -67 l 83 -307 m 149 -12 q 82 49 82 -12 q 88 92 82 57 q 105 192 93 126 q 135 356 117 257 q 180 594 154 456 q 239 913 206 732 l 132 926 l 125 957 q 247 995 185 981 q 340 1010 308 1010 q 367 979 367 1010 q 365 957 367 964 l 199 71 l 322 71 l 322 29 q 218 -2 261 8 q 149 -12 175 -12 z "},"ŀ":{"ha":403,"x_min":79,"x_max":522,"o":"m 146 -12 q 79 49 79 -12 q 85 92 79 57 q 102 192 90 126 q 133 356 114 257 q 177 594 151 456 q 236 913 203 732 l 129 926 l 122 957 q 244 995 182 981 q 338 1010 306 1010 q 364 979 364 1010 q 363 957 364 964 l 196 71 l 319 71 l 319 29 q 215 -2 258 8 q 146 -12 172 -12 m 522 606 q 500 549 522 572 q 442 525 478 525 q 387 549 410 525 q 364 606 364 572 q 387 663 364 642 q 442 685 410 685 q 500 663 478 685 q 522 606 522 642 z "},"ǉ":{"ha":788,"x_min":79,"x_max":785,"o":"m 146 -12 q 79 49 79 -12 q 85 92 79 57 q 102 192 90 126 q 133 356 114 257 q 177 594 151 456 q 236 913 203 732 l 129 926 l 122 957 q 244 995 182 981 q 338 1010 306 1010 q 364 979 364 1010 q 363 957 364 964 l 196 71 l 319 71 l 319 29 q 215 -2 258 8 q 146 -12 172 -12 m 371 -232 q 263 -212 306 -232 q 221 -192 221 -192 l 232 -140 q 283 -151 256 -147 q 338 -156 310 -156 q 444 -123 403 -156 q 500 0 485 -90 l 606 608 l 500 618 l 494 653 q 612 688 547 674 q 700 701 676 701 q 728 669 728 701 q 716 598 728 667 q 686 424 704 529 q 648 201 668 318 q 610 -14 628 85 q 531 -174 592 -115 q 371 -232 471 -232 m 703 808 q 646 832 671 808 q 621 886 621 856 q 646 944 621 921 q 703 968 671 968 q 760 944 736 968 q 785 886 785 921 q 760 832 785 856 q 703 808 736 808 z "},"ł":{"ha":406,"x_min":14,"x_max":435,"o":"m 42 397 l 14 451 l 404 651 l 435 599 l 42 397 m 149 -12 q 82 49 82 -12 q 88 92 82 57 q 105 192 93 126 q 135 356 117 257 q 180 594 154 456 q 239 913 206 732 l 132 926 l 125 957 q 247 995 185 981 q 340 1010 308 1010 q 367 979 367 1010 q 365 957 367 964 l 199 71 l 322 71 l 322 29 q 218 -2 261 8 q 149 -12 175 -12 z "},"m":{"ha":1093,"x_min":82,"x_max":1008,"o":"m 82 -12 l 206 606 l 100 617 l 94 650 q 210 685 151 671 q 299 700 268 700 q 315 690 308 700 q 321 667 321 681 q 313 604 321 653 q 300 533 304 556 q 442 649 353 597 q 593 701 531 701 q 645 681 629 701 q 661 615 661 661 q 650 543 661 592 q 790 652 706 603 q 935 701 875 701 q 986 681 971 701 q 1001 615 1001 661 q 982 494 1001 592 q 936 278 963 397 q 890 68 910 158 l 1008 68 l 1008 26 q 932 -2 968 8 q 865 -12 896 -12 q 802 5 826 -12 q 778 60 778 22 q 794 149 778 76 q 830 310 810 221 q 866 472 850 399 q 882 564 882 544 q 851 610 882 610 q 743 565 808 610 q 635 468 678 519 l 553 10 l 422 -12 q 475 240 447 111 q 522 459 503 368 q 540 564 540 550 q 535 599 540 589 q 510 610 531 610 q 397 562 465 610 q 288 460 329 514 l 214 10 l 82 -12 z "},"n":{"ha":785,"x_min":79,"x_max":697,"o":"m 301 535 q 456 654 367 606 q 607 703 546 703 q 669 683 646 703 q 692 617 692 663 q 672 496 692 593 q 626 278 653 399 q 578 67 599 158 l 697 67 l 697 26 q 554 -12 610 -12 q 491 4 515 -12 q 467 60 467 21 q 483 149 467 76 q 519 310 499 221 q 555 473 539 400 q 571 567 571 546 q 558 601 571 590 q 525 611 544 611 q 408 568 479 611 q 286 460 338 525 l 211 8 l 79 -12 l 201 607 l 97 618 l 92 653 q 208 687 149 672 q 299 701 267 701 q 325 668 325 701 q 316 605 325 653 q 301 535 307 557 z "},"ń":{"ha":785,"x_min":82,"x_max":700,"o":"m 304 535 q 459 654 369 606 q 610 703 549 703 q 672 683 649 703 q 694 617 694 663 q 675 496 694 593 q 628 278 656 399 q 581 67 601 158 l 700 67 l 700 26 q 557 -12 613 -12 q 494 4 518 -12 q 469 60 469 21 q 485 149 469 76 q 522 310 501 221 q 558 473 542 400 q 574 567 574 546 q 560 601 574 590 q 528 611 547 611 q 411 568 482 611 q 289 460 340 525 l 214 8 l 82 -12 l 204 607 l 100 618 l 94 653 q 210 687 151 672 q 301 701 269 701 q 328 668 328 701 q 319 605 328 653 q 304 535 310 557 m 390 775 l 368 801 l 582 982 l 688 943 l 688 918 l 390 775 z "},"ŉ":{"ha":833,"x_min":79,"x_max":697,"o":"m 274 731 l 251 1008 l 290 1008 l 357 989 l 306 731 l 274 731 m 301 535 q 456 654 367 606 q 607 703 546 703 q 669 683 646 703 q 692 617 692 663 q 672 496 692 593 q 626 278 653 399 q 578 67 599 158 l 697 67 l 697 26 q 554 -12 610 -12 q 491 4 515 -12 q 467 60 467 21 q 483 149 467 76 q 519 310 499 221 q 555 473 539 400 q 571 567 571 546 q 558 601 571 590 q 525 611 544 611 q 408 568 479 611 q 286 460 338 525 l 211 8 l 79 -12 l 201 607 l 97 618 l 92 653 q 208 687 149 672 q 299 701 267 701 q 325 668 325 701 q 316 605 325 653 q 301 535 307 557 z "},"ň":{"ha":785,"x_min":82,"x_max":700,"o":"m 304 535 q 459 654 369 606 q 610 703 549 703 q 672 683 649 703 q 694 617 694 663 q 675 496 694 593 q 628 278 656 399 q 581 67 601 158 l 700 67 l 700 26 q 557 -12 613 -12 q 494 4 518 -12 q 469 60 469 21 q 485 149 469 76 q 522 310 501 221 q 558 473 542 400 q 574 567 574 546 q 560 601 574 590 q 528 611 547 611 q 411 568 482 611 q 289 460 340 525 l 214 8 l 82 -12 l 204 607 l 100 618 l 94 653 q 210 687 151 672 q 301 701 269 701 q 328 668 328 701 q 319 605 328 653 q 304 535 310 557 m 347 993 l 475 865 l 642 994 l 669 968 l 503 767 l 419 767 l 310 968 l 347 993 z "},"ņ":{"ha":785,"x_min":82,"x_max":700,"o":"m 82 -12 l 204 607 l 100 618 l 94 653 q 210 687 151 672 q 301 701 269 701 q 328 668 328 701 q 319 605 328 653 q 304 535 310 557 q 459 654 369 606 q 610 703 549 703 q 672 683 649 703 q 694 617 694 663 q 675 496 694 593 q 628 278 656 399 q 581 67 601 158 l 700 67 l 700 26 q 557 -12 613 -12 q 494 4 518 -12 q 469 60 469 21 q 485 149 469 76 q 522 310 501 221 q 558 473 542 400 q 574 567 574 546 q 560 601 574 590 q 528 611 547 611 q 411 568 482 611 q 289 460 340 525 l 214 8 l 82 -12 m 269 -307 l 235 -297 l 283 -65 l 388 -43 l 408 -67 l 269 -307 z "},"ṅ":{"ha":785,"x_min":79,"x_max":697,"o":"m 301 535 q 456 654 367 606 q 607 703 546 703 q 669 683 646 703 q 692 617 692 663 q 672 496 692 593 q 626 278 653 399 q 578 67 599 158 l 697 67 l 697 26 q 554 -12 610 -12 q 491 4 515 -12 q 467 60 467 21 q 483 149 467 76 q 519 310 499 221 q 555 473 539 400 q 571 567 571 546 q 558 601 571 590 q 525 611 544 611 q 408 568 479 611 q 286 460 338 525 l 211 8 l 79 -12 l 201 607 l 97 618 l 92 653 q 208 687 149 672 q 299 701 267 701 q 325 668 325 701 q 316 605 325 653 q 301 535 307 557 m 499 806 q 440 828 465 806 q 415 885 415 850 q 440 944 415 919 q 499 968 465 968 q 556 944 531 968 q 582 885 582 919 q 556 828 582 850 q 499 806 531 806 z "},"ŋ":{"ha":785,"x_min":79,"x_max":692,"o":"m 607 703 q 669 683 646 703 q 692 617 692 663 q 678 507 692 586 q 638 298 664 428 q 575 -14 613 168 q 493 -174 553 -117 q 338 -232 433 -232 q 247 -218 286 -232 q 186 -192 207 -204 l 197 -140 q 247 -151 219 -147 q 304 -156 275 -156 q 408 -123 369 -156 q 465 0 447 -90 q 524 290 500 172 q 559 474 547 407 q 571 567 571 542 q 558 601 571 590 q 525 611 544 611 q 408 568 479 611 q 286 460 338 525 l 211 8 l 79 -12 l 201 607 l 97 618 l 92 653 q 208 687 149 672 q 299 701 267 701 q 325 668 325 701 q 316 605 325 653 q 301 535 307 557 q 456 654 367 606 q 607 703 546 703 z "},"ɲ":{"ha":785,"x_min":-182,"x_max":697,"o":"m 578 67 l 697 67 l 697 26 q 554 -12 610 -12 q 491 4 515 -12 q 467 60 467 21 q 483 149 467 76 q 519 310 499 221 q 555 473 539 400 q 571 567 571 546 q 558 601 571 590 q 525 611 544 611 q 408 568 479 611 q 286 460 338 525 q 247 224 268 353 q 207 -14 225 94 q 128 -174 189 -115 q -32 -232 68 -232 q -140 -212 -97 -232 q -182 -192 -182 -192 l -171 -140 q -120 -151 -147 -147 q -65 -156 -93 -156 q 41 -123 0 -156 q 97 0 82 -90 l 203 607 l 97 618 l 92 653 q 208 687 149 672 q 299 701 267 701 q 325 668 325 701 q 316 605 325 653 q 301 535 307 557 q 456 654 367 606 q 607 703 546 703 q 669 683 646 703 q 692 617 692 663 q 672 496 692 593 q 626 278 653 399 q 578 67 599 158 z "},"ǌ":{"ha":1169,"x_min":79,"x_max":1167,"o":"m 301 535 q 456 654 367 606 q 607 703 546 703 q 669 683 646 703 q 692 617 692 663 q 672 496 692 593 q 626 278 653 399 q 578 67 599 158 l 697 67 l 697 26 q 554 -12 610 -12 q 491 4 515 -12 q 467 60 467 21 q 483 149 467 76 q 519 310 499 221 q 555 473 539 400 q 571 567 571 546 q 558 601 571 590 q 525 611 544 611 q 408 568 479 611 q 286 460 338 525 l 211 8 l 79 -12 l 201 607 l 97 618 l 92 653 q 208 687 149 672 q 299 701 267 701 q 325 668 325 701 q 316 605 325 653 q 301 535 307 557 m 753 -232 q 645 -212 688 -232 q 603 -192 603 -192 l 614 -140 q 665 -151 638 -147 q 719 -156 692 -156 q 826 -123 785 -156 q 882 0 867 -90 l 988 608 l 882 618 l 876 653 q 994 688 929 674 q 1082 701 1058 701 q 1110 669 1110 701 q 1098 598 1110 667 q 1068 424 1086 529 q 1030 201 1050 318 q 992 -14 1010 85 q 913 -174 974 -115 q 753 -232 853 -232 m 1085 808 q 1028 832 1053 808 q 1003 886 1003 856 q 1028 944 1003 921 q 1085 968 1053 968 q 1142 944 1118 968 q 1167 886 1167 921 q 1142 832 1167 856 q 1085 808 1118 808 z "},"ñ":{"ha":785,"x_min":82,"x_max":700,"o":"m 304 535 q 459 654 369 606 q 610 703 549 703 q 672 683 649 703 q 694 617 694 663 q 675 496 694 593 q 628 278 656 399 q 581 67 601 158 l 700 67 l 700 26 q 557 -12 613 -12 q 494 4 518 -12 q 469 60 469 21 q 485 149 469 76 q 522 310 501 221 q 558 473 542 400 q 574 567 574 546 q 560 601 574 590 q 528 611 547 611 q 411 568 482 611 q 289 460 340 525 l 214 8 l 82 -12 l 204 607 l 100 618 l 94 653 q 210 687 151 672 q 301 701 269 701 q 328 668 328 701 q 319 605 328 653 q 304 535 310 557 m 693 940 q 648 849 671 888 q 592 811 625 811 q 492 839 556 811 q 394 867 429 867 q 352 842 372 867 q 332 817 332 817 l 290 833 q 335 926 313 888 q 393 964 358 964 q 491 936 428 964 q 590 908 554 908 q 632 933 614 908 q 650 957 650 957 l 693 940 z "},"o":{"ha":690,"x_min":46,"x_max":644,"o":"m 435 701 q 593 649 542 701 q 644 493 644 596 q 535 121 644 254 q 254 -12 425 -12 q 97 41 147 -12 q 46 199 46 94 q 156 569 46 438 q 435 701 267 701 m 281 56 q 424 128 369 56 q 501 303 478 200 q 525 496 525 406 q 501 594 525 557 q 411 632 476 632 q 267 560 321 632 q 189 385 213 488 q 165 192 165 283 q 190 93 165 131 q 281 56 215 56 z "},"ó":{"ha":690,"x_min":46,"x_max":644,"o":"m 435 701 q 593 649 542 701 q 644 493 644 596 q 535 121 644 254 q 254 -12 425 -12 q 97 41 147 -12 q 46 199 46 94 q 156 569 46 438 q 435 701 267 701 m 281 56 q 424 128 369 56 q 501 303 478 200 q 525 496 525 406 q 501 594 525 557 q 411 632 476 632 q 267 560 321 632 q 189 385 213 488 q 165 192 165 283 q 190 93 165 131 q 281 56 215 56 m 319 775 l 297 801 l 511 982 l 617 943 l 617 918 l 319 775 z "},"ŏ":{"ha":690,"x_min":46,"x_max":644,"o":"m 435 701 q 593 649 542 701 q 644 493 644 596 q 535 121 644 254 q 254 -12 425 -12 q 97 41 147 -12 q 46 199 46 94 q 156 569 46 438 q 435 701 267 701 m 281 56 q 424 128 369 56 q 501 303 478 200 q 525 496 525 406 q 501 594 525 557 q 411 632 476 632 q 267 560 321 632 q 189 385 213 488 q 165 192 165 283 q 190 93 165 131 q 281 56 215 56 m 439 807 q 328 842 357 807 q 299 928 299 878 q 301 948 299 938 q 306 968 303 958 l 353 968 q 349 946 349 958 q 369 901 350 919 q 449 882 389 882 q 550 908 522 882 q 585 968 578 935 l 631 968 q 576 857 618 907 q 439 807 535 807 z "},"ǒ":{"ha":690,"x_min":46,"x_max":644,"o":"m 435 701 q 593 649 542 701 q 644 493 644 596 q 535 121 644 254 q 254 -12 425 -12 q 97 41 147 -12 q 46 199 46 94 q 156 569 46 438 q 435 701 267 701 m 281 56 q 424 128 369 56 q 501 303 478 200 q 525 496 525 406 q 501 594 525 557 q 411 632 476 632 q 267 560 321 632 q 189 385 213 488 q 165 192 165 283 q 190 93 165 131 q 281 56 215 56 m 321 993 l 449 865 l 615 994 l 643 968 l 476 767 l 393 767 l 283 968 l 321 993 z "},"ô":{"ha":690,"x_min":46,"x_max":644,"o":"m 435 701 q 593 649 542 701 q 644 493 644 596 q 535 121 644 254 q 254 -12 425 -12 q 97 41 147 -12 q 46 199 46 94 q 156 569 46 438 q 435 701 267 701 m 281 56 q 424 128 369 56 q 501 303 478 200 q 525 496 525 406 q 501 594 525 557 q 411 632 476 632 q 267 560 321 632 q 189 385 213 488 q 165 192 165 283 q 190 93 165 131 q 281 56 215 56 m 585 767 l 469 886 l 304 767 l 276 793 l 442 985 l 525 985 l 621 793 l 585 767 z "},"ố":{"ha":690,"x_min":46,"x_max":849,"o":"m 435 701 q 593 649 542 701 q 644 493 644 596 q 535 121 644 254 q 254 -12 425 -12 q 97 41 147 -12 q 46 199 46 94 q 156 569 46 438 q 435 701 267 701 m 281 56 q 424 128 369 56 q 501 303 478 200 q 525 496 525 406 q 501 594 525 557 q 411 632 476 632 q 267 560 321 632 q 189 385 213 488 q 165 192 165 283 q 190 93 165 131 q 281 56 215 56 m 621 842 l 590 858 l 728 1103 l 840 1103 l 849 1079 l 621 842 m 567 767 l 451 886 l 286 767 l 258 793 l 424 985 l 507 985 l 603 793 l 567 767 z "},"ộ":{"ha":690,"x_min":46,"x_max":644,"o":"m 435 701 q 593 649 542 701 q 644 493 644 596 q 535 121 644 254 q 254 -12 425 -12 q 97 41 147 -12 q 46 199 46 94 q 156 569 46 438 q 435 701 267 701 m 281 56 q 424 128 369 56 q 501 303 478 200 q 525 496 525 406 q 501 594 525 557 q 411 632 476 632 q 267 560 321 632 q 189 385 213 488 q 165 192 165 283 q 190 93 165 131 q 281 56 215 56 m 253 -57 q 310 -81 285 -57 q 336 -140 336 -106 q 310 -197 336 -175 q 253 -219 285 -219 q 194 -197 219 -219 q 169 -140 169 -175 q 194 -81 169 -106 q 253 -57 219 -57 m 567 767 l 451 886 l 286 767 l 258 793 l 424 985 l 507 985 l 603 793 l 567 767 z "},"ồ":{"ha":690,"x_min":46,"x_max":676,"o":"m 435 701 q 593 649 542 701 q 644 493 644 596 q 535 121 644 254 q 254 -12 425 -12 q 97 41 147 -12 q 46 199 46 94 q 156 569 46 438 q 435 701 267 701 m 281 56 q 424 128 369 56 q 501 303 478 200 q 525 496 525 406 q 501 594 525 557 q 411 632 476 632 q 267 560 321 632 q 189 385 213 488 q 165 192 165 283 q 190 93 165 131 q 281 56 215 56 m 643 839 l 497 1082 l 511 1103 l 600 1103 l 676 849 l 643 839 m 567 767 l 451 886 l 286 767 l 258 793 l 424 985 l 507 985 l 603 793 l 567 767 z "},"ổ":{"ha":690,"x_min":46,"x_max":739,"o":"m 435 701 q 593 649 542 701 q 644 493 644 596 q 535 121 644 254 q 254 -12 425 -12 q 97 41 147 -12 q 46 199 46 94 q 156 569 46 438 q 435 701 267 701 m 281 56 q 424 128 369 56 q 501 303 478 200 q 525 496 525 406 q 501 594 525 557 q 411 632 476 632 q 267 560 321 632 q 189 385 213 488 q 165 192 165 283 q 190 93 165 131 q 281 56 215 56 m 567 767 l 451 886 l 286 767 l 258 793 l 424 985 l 507 985 l 603 793 l 567 767 m 571 929 q 572 936 571 932 q 572 943 572 940 q 597 981 575 972 q 641 999 619 990 q 663 1036 663 1008 q 621 1067 663 1067 q 608 1066 615 1067 q 593 1065 601 1065 l 574 1021 l 532 1021 l 538 1094 q 633 1103 592 1103 q 739 1040 739 1103 q 725 999 739 1014 q 693 976 711 985 q 649 958 669 965 q 624 929 629 951 l 571 929 z "},"ỗ":{"ha":690,"x_min":46,"x_max":693,"o":"m 435 701 q 593 649 542 701 q 644 493 644 596 q 535 121 644 254 q 254 -12 425 -12 q 97 41 147 -12 q 46 199 46 94 q 156 569 46 438 q 435 701 267 701 m 281 56 q 424 128 369 56 q 501 303 478 200 q 525 496 525 406 q 501 594 525 557 q 411 632 476 632 q 267 560 321 632 q 189 385 213 488 q 165 192 165 283 q 190 93 165 131 q 281 56 215 56 z "},"ȍ":{"ha":690,"x_min":46,"x_max":644,"o":"m 435 701 q 593 649 542 701 q 644 493 644 596 q 535 121 644 254 q 254 -12 425 -12 q 97 41 147 -12 q 46 199 46 94 q 156 569 46 438 q 435 701 267 701 m 281 56 q 424 128 369 56 q 501 303 478 200 q 525 496 525 406 q 501 594 525 557 q 411 632 476 632 q 267 560 321 632 q 189 385 213 488 q 165 192 165 283 q 190 93 165 131 q 281 56 215 56 m 549 758 l 388 971 l 388 994 l 492 994 l 574 774 l 549 758 m 325 758 l 164 971 l 164 994 l 268 994 l 350 774 l 325 758 z "},"ö":{"ha":690,"x_min":46,"x_max":685,"o":"m 435 701 q 593 649 542 701 q 644 493 644 596 q 535 121 644 254 q 254 -12 425 -12 q 97 41 147 -12 q 46 199 46 94 q 156 569 46 438 q 435 701 267 701 m 281 56 q 424 128 369 56 q 501 303 478 200 q 525 496 525 406 q 501 594 525 557 q 411 632 476 632 q 267 560 321 632 q 189 385 213 488 q 165 192 165 283 q 190 93 165 131 q 281 56 215 56 m 414 886 q 390 833 414 856 q 335 810 367 810 q 279 833 303 810 q 256 886 256 856 q 279 943 256 919 q 335 967 303 967 q 390 943 367 967 q 414 886 414 919 m 685 886 q 660 833 685 856 q 604 810 636 810 q 549 833 572 810 q 525 886 525 856 q 549 943 525 919 q 604 967 572 967 q 660 943 636 967 q 685 886 685 919 z "},"ọ":{"ha":690,"x_min":46,"x_max":644,"o":"m 435 701 q 593 649 542 701 q 644 493 644 596 q 535 121 644 254 q 254 -12 425 -12 q 97 41 147 -12 q 46 199 46 94 q 156 569 46 438 q 435 701 267 701 m 281 56 q 424 128 369 56 q 501 303 478 200 q 525 496 525 406 q 501 594 525 557 q 411 632 476 632 q 267 560 321 632 q 189 385 213 488 q 165 192 165 283 q 190 93 165 131 q 281 56 215 56 m 253 -57 q 310 -81 285 -57 q 336 -140 336 -106 q 310 -197 336 -175 q 253 -219 285 -219 q 194 -197 219 -219 q 169 -140 169 -175 q 194 -81 169 -106 q 253 -57 219 -57 z "},"ò":{"ha":690,"x_min":46,"x_max":644,"o":"m 254 -12 q 97 41 147 -12 q 46 199 46 94 q 156 569 46 438 q 435 701 267 701 q 593 649 542 701 q 644 493 644 596 q 535 121 644 254 q 254 -12 425 -12 m 281 56 q 424 128 369 56 q 501 303 478 200 q 525 496 525 406 q 501 594 525 557 q 411 632 476 632 q 267 560 321 632 q 189 385 213 488 q 165 192 165 283 q 190 93 165 131 q 281 56 215 56 m 561 775 l 264 918 l 264 943 l 369 982 l 583 801 l 561 775 z "},"ỏ":{"ha":690,"x_min":46,"x_max":644,"o":"m 435 701 q 593 649 542 701 q 644 493 644 596 q 535 121 644 254 q 254 -12 425 -12 q 97 41 147 -12 q 46 199 46 94 q 156 569 46 438 q 435 701 267 701 m 281 56 q 424 128 369 56 q 501 303 478 200 q 525 496 525 406 q 501 594 525 557 q 411 632 476 632 q 267 560 321 632 q 189 385 213 488 q 165 192 165 283 q 190 93 165 131 q 281 56 215 56 m 417 775 q 417 782 417 778 q 418 789 418 786 q 443 827 421 818 q 487 845 465 836 q 508 882 508 854 q 467 913 508 913 q 454 912 461 913 q 439 911 447 911 l 419 867 l 378 867 l 383 940 q 479 949 438 949 q 585 886 585 949 q 571 845 585 860 q 539 822 557 831 q 495 804 515 811 q 469 775 475 797 l 417 775 z "},"ơ":{"ha":690,"x_min":46,"x_max":826,"o":"m 435 701 q 593 649 542 701 q 644 493 644 596 q 535 121 644 254 q 254 -12 425 -12 q 97 41 147 -12 q 46 199 46 94 q 156 569 46 438 q 435 701 267 701 m 281 56 q 424 128 369 56 q 501 303 478 200 q 525 496 525 406 q 501 594 525 557 q 411 632 476 632 q 267 560 321 632 q 189 385 213 488 q 165 192 165 283 q 190 93 165 131 q 281 56 215 56 m 714 738 l 808 757 q 822 716 818 739 q 826 678 826 693 q 750 568 826 607 q 579 529 674 529 l 569 529 l 613 589 q 685 603 657 589 q 713 663 713 617 q 706 719 713 689 l 714 738 z "},"ớ":{"ha":690,"x_min":46,"x_max":826,"o":"m 435 701 q 593 649 542 701 q 644 493 644 596 q 535 121 644 254 q 254 -12 425 -12 q 97 41 147 -12 q 46 199 46 94 q 156 569 46 438 q 435 701 267 701 m 281 56 q 424 128 369 56 q 501 303 478 200 q 525 496 525 406 q 501 594 525 557 q 411 632 476 632 q 267 560 321 632 q 189 385 213 488 q 165 192 165 283 q 190 93 165 131 q 281 56 215 56 m 714 738 l 808 757 q 822 716 818 739 q 826 678 826 693 q 750 568 826 607 q 579 529 674 529 l 569 529 l 613 589 q 685 603 657 589 q 713 663 713 617 q 706 719 713 689 l 714 738 m 324 774 l 301 800 l 515 981 l 621 942 l 621 917 l 324 774 z "},"ợ":{"ha":690,"x_min":46,"x_max":826,"o":"m 435 701 q 593 649 542 701 q 644 493 644 596 q 535 121 644 254 q 254 -12 425 -12 q 97 41 147 -12 q 46 199 46 94 q 156 569 46 438 q 435 701 267 701 m 281 56 q 424 128 369 56 q 501 303 478 200 q 525 496 525 406 q 501 594 525 557 q 411 632 476 632 q 267 560 321 632 q 189 385 213 488 q 165 192 165 283 q 190 93 165 131 q 281 56 215 56 m 714 738 l 808 757 q 822 716 818 739 q 826 678 826 693 q 750 568 826 607 q 579 529 674 529 l 569 529 l 613 589 q 685 603 657 589 q 713 663 713 617 q 706 719 713 689 l 714 738 m 253 -57 q 310 -81 285 -57 q 336 -140 336 -106 q 310 -197 336 -175 q 253 -219 285 -219 q 194 -197 219 -219 q 169 -140 169 -175 q 194 -81 169 -106 q 253 -57 219 -57 z "},"ờ":{"ha":690,"x_min":46,"x_max":826,"o":"m 435 701 q 593 649 542 701 q 644 493 644 596 q 535 121 644 254 q 254 -12 425 -12 q 97 41 147 -12 q 46 199 46 94 q 156 569 46 438 q 435 701 267 701 m 281 56 q 424 128 369 56 q 501 303 478 200 q 525 496 525 406 q 501 594 525 557 q 411 632 476 632 q 267 560 321 632 q 189 385 213 488 q 165 192 165 283 q 190 93 165 131 q 281 56 215 56 m 714 738 l 808 757 q 822 716 818 739 q 826 678 826 693 q 750 568 826 607 q 579 529 674 529 l 569 529 l 613 589 q 685 603 657 589 q 713 663 713 617 q 706 719 713 689 l 714 738 m 536 774 l 239 917 l 239 942 l 344 981 l 558 800 l 536 774 z "},"ở":{"ha":690,"x_min":46,"x_max":826,"o":"m 435 701 q 593 649 542 701 q 644 493 644 596 q 535 121 644 254 q 254 -12 425 -12 q 97 41 147 -12 q 46 199 46 94 q 156 569 46 438 q 435 701 267 701 m 281 56 q 424 128 369 56 q 501 303 478 200 q 525 496 525 406 q 501 594 525 557 q 411 632 476 632 q 267 560 321 632 q 189 385 213 488 q 165 192 165 283 q 190 93 165 131 q 281 56 215 56 m 714 738 l 808 757 q 822 716 818 739 q 826 678 826 693 q 750 568 826 607 q 579 529 674 529 l 569 529 l 613 589 q 685 603 657 589 q 713 663 713 617 q 706 719 713 689 l 714 738 m 421 774 q 422 781 421 776 q 422 788 422 785 q 447 826 425 817 q 491 844 469 835 q 513 881 513 853 q 471 911 513 911 q 458 910 465 911 q 443 910 451 910 l 424 865 l 382 865 l 388 939 q 483 947 442 947 q 589 885 589 947 q 575 844 589 858 q 543 821 561 829 q 499 803 519 810 q 474 774 479 796 l 421 774 z "},"ỡ":{"ha":690,"x_min":46,"x_max":826,"o":"m 435 701 q 593 649 542 701 q 644 493 644 596 q 535 121 644 254 q 254 -12 425 -12 q 97 41 147 -12 q 46 199 46 94 q 156 569 46 438 q 435 701 267 701 m 281 56 q 424 128 369 56 q 501 303 478 200 q 525 496 525 406 q 501 594 525 557 q 411 632 476 632 q 267 560 321 632 q 189 385 213 488 q 165 192 165 283 q 190 93 165 131 q 281 56 215 56 m 714 738 l 808 757 q 822 716 818 739 q 826 678 826 693 q 750 568 826 607 q 579 529 674 529 l 569 529 l 613 589 q 685 603 657 589 q 713 663 713 617 q 706 719 713 689 l 714 738 m 658 939 q 613 848 636 886 q 557 810 590 810 q 458 838 522 810 q 360 865 394 865 q 317 840 336 865 q 297 815 297 815 l 256 832 q 301 924 278 886 q 358 963 324 963 q 457 935 394 963 q 556 907 519 907 q 597 931 579 907 q 615 956 615 956 l 658 939 z "},"ő":{"ha":690,"x_min":46,"x_max":678,"o":"m 435 701 q 593 649 542 701 q 644 493 644 596 q 535 121 644 254 q 254 -12 425 -12 q 97 41 147 -12 q 46 199 46 94 q 156 569 46 438 q 435 701 267 701 m 281 56 q 424 128 369 56 q 501 303 478 200 q 525 496 525 406 q 501 594 525 557 q 411 632 476 632 q 267 560 321 632 q 189 385 213 488 q 165 192 165 283 q 190 93 165 131 q 281 56 215 56 m 251 756 l 225 771 l 350 992 l 454 992 l 454 968 l 251 756 m 475 756 l 449 771 l 574 992 l 678 992 l 678 968 l 475 756 z "},"ȏ":{"ha":690,"x_min":46,"x_max":644,"o":"m 435 701 q 593 649 542 701 q 644 493 644 596 q 535 121 644 254 q 254 -12 425 -12 q 97 41 147 -12 q 46 199 46 94 q 156 569 46 438 q 435 701 267 701 m 281 56 q 424 128 369 56 q 501 303 478 200 q 525 496 525 406 q 501 594 525 557 q 411 632 476 632 q 267 560 321 632 q 189 385 213 488 q 165 192 165 283 q 190 93 165 131 q 281 56 215 56 m 468 979 q 579 944 550 979 q 608 858 608 908 q 606 838 608 849 q 601 818 603 828 l 554 818 q 558 840 558 828 q 538 885 556 867 q 458 904 519 904 q 357 878 386 904 q 322 818 328 851 l 276 818 q 331 929 289 879 q 468 979 372 979 z "},"ō":{"ha":690,"x_min":46,"x_max":644,"o":"m 435 701 q 593 649 542 701 q 644 493 644 596 q 535 121 644 254 q 254 -12 425 -12 q 97 41 147 -12 q 46 199 46 94 q 156 569 46 438 q 435 701 267 701 m 281 56 q 424 128 369 56 q 501 303 478 200 q 525 496 525 406 q 501 594 525 557 q 411 632 476 632 q 267 560 321 632 q 189 385 213 488 q 165 192 165 283 q 190 93 165 131 q 281 56 215 56 m 288 876 l 589 876 l 578 804 l 276 804 l 288 876 z "},"ǫ":{"ha":690,"x_min":46,"x_max":644,"o":"m 451 44 q 376 -42 417 19 q 336 -160 336 -103 q 403 -225 336 -225 q 476 -194 442 -225 l 496 -217 q 459 -251 496 -217 q 356 -286 422 -286 q 267 -257 293 -286 q 240 -187 240 -228 q 277 -81 240 -142 q 400 42 314 -21 l 451 44 m 435 701 q 593 649 542 701 q 644 493 644 596 q 535 121 644 254 q 254 -12 425 -12 q 97 41 147 -12 q 46 199 46 94 q 156 569 46 438 q 435 701 267 701 m 281 56 q 424 128 369 56 q 501 303 478 200 q 525 496 525 406 q 501 594 525 557 q 411 632 476 632 q 267 560 321 632 q 189 385 213 488 q 165 192 165 283 q 190 93 165 131 q 281 56 215 56 z "},"ø":{"ha":690,"x_min":46,"x_max":644,"o":"m 147 -128 l 186 -7 q 80 62 114 10 q 46 200 46 114 q 150 563 46 431 q 417 703 254 694 l 456 818 l 536 818 l 496 699 q 608 632 571 683 q 644 493 644 581 q 538 125 644 258 q 265 -12 432 -8 l 228 -128 l 147 -128 m 211 71 l 393 632 q 258 552 308 625 q 186 380 208 479 q 164 193 164 281 q 174 119 164 150 q 211 71 185 88 m 286 56 q 428 132 375 60 q 503 305 481 204 q 526 496 526 406 q 471 621 526 593 l 286 56 z "},"ǿ":{"ha":690,"x_min":46,"x_max":644,"o":"m 147 -128 l 186 -7 q 80 62 114 10 q 46 200 46 114 q 150 563 46 431 q 417 703 254 694 l 456 818 l 536 818 l 496 699 q 608 632 571 683 q 644 493 644 581 q 538 125 644 258 q 265 -12 432 -8 l 228 -128 l 147 -128 m 211 71 l 393 632 q 258 552 308 625 q 186 380 208 479 q 164 193 164 281 q 174 119 164 150 q 211 71 185 88 m 286 56 q 428 132 375 60 q 503 305 481 204 q 526 496 526 406 q 471 621 526 593 l 286 56 m 319 775 l 297 801 l 511 982 l 617 943 l 617 918 l 319 775 z "},"õ":{"ha":690,"x_min":46,"x_max":644,"o":"m 435 701 q 593 649 542 701 q 644 493 644 596 q 535 121 644 254 q 254 -12 425 -12 q 97 41 147 -12 q 46 199 46 94 q 156 569 46 438 q 435 701 267 701 m 281 56 q 424 128 369 56 q 501 303 478 200 q 525 496 525 406 q 501 594 525 557 q 411 632 476 632 q 267 560 321 632 q 189 385 213 488 q 165 192 165 283 q 190 93 165 131 q 281 56 215 56 m 644 940 q 599 849 622 888 q 543 811 576 811 q 444 839 508 811 q 346 867 381 867 q 303 842 322 867 q 283 817 283 817 l 242 833 q 287 926 264 888 q 344 964 310 964 q 443 936 381 964 q 542 908 506 908 q 583 933 565 908 q 601 957 601 957 l 644 940 z "},"œ":{"ha":1021,"x_min":46,"x_max":1032,"o":"m 254 -12 q 97 41 147 -12 q 46 199 46 94 q 156 569 46 438 q 435 701 267 701 q 560 674 511 701 q 628 592 608 646 q 738 672 674 642 q 886 701 801 701 q 988 667 944 701 q 1032 565 1032 633 q 928 395 1032 458 q 628 332 824 332 q 617 221 617 269 q 653 92 617 126 q 792 58 690 58 q 847 66 818 58 q 899 83 875 74 l 908 38 q 815 0 863 13 q 722 -12 767 -12 q 518 101 560 -12 q 254 -12 413 -12 m 281 56 q 424 128 369 56 q 501 303 478 200 q 525 496 525 406 q 501 594 525 557 q 411 632 476 632 q 267 560 321 632 q 189 385 213 488 q 165 192 165 283 q 190 93 165 131 q 281 56 215 56 m 640 379 q 848 424 771 379 q 925 556 925 469 q 908 611 925 588 q 856 635 892 635 q 720 568 775 635 q 640 379 665 501 z "},"p":{"ha":747,"x_min":39,"x_max":690,"o":"m 39 -246 l 190 611 l 88 621 l 81 654 q 195 689 138 675 q 283 703 253 703 q 308 669 308 703 q 299 594 308 642 q 290 547 290 547 q 415 657 343 611 q 547 703 486 703 q 649 660 608 703 q 690 511 690 618 q 653 261 690 378 q 531 72 615 144 q 306 0 447 0 q 200 13 242 0 l 167 -225 l 39 -246 m 319 63 q 451 111 401 63 q 528 232 501 160 q 563 375 554 304 q 572 492 572 446 q 549 591 572 563 q 485 619 525 619 q 378 569 444 619 q 279 478 311 518 l 214 99 q 260 74 231 85 q 319 63 290 63 z "},"þ":{"ha":717,"x_min":17,"x_max":668,"o":"m 17 -246 l 221 913 l 114 926 l 107 957 q 226 995 167 981 q 317 1010 285 1010 q 343 979 343 1010 q 331 901 343 968 q 299 724 315 813 q 268 547 283 636 q 392 657 321 611 q 525 703 464 703 q 627 660 586 703 q 668 511 668 618 q 631 261 668 378 q 509 72 593 144 q 283 0 425 0 q 223 3 247 0 q 178 13 199 6 q 161 -106 169 -47 q 144 -225 153 -165 l 17 -246 m 297 63 q 429 111 379 63 q 506 232 479 160 q 541 375 532 304 q 550 492 550 446 q 526 591 550 563 q 463 619 503 619 q 355 569 422 619 q 256 479 288 519 q 247 425 253 457 q 229 319 242 393 q 190 99 217 244 q 238 74 207 85 q 297 63 268 63 z "},"q":{"ha":694,"x_min":46,"x_max":672,"o":"m 672 714 q 656 632 672 713 q 618 432 640 551 q 573 194 596 313 q 535 -6 550 75 q 519 -86 519 -86 l 504 -225 l 378 -247 l 450 124 q 324 24 397 60 q 194 -11 250 -11 q 88 26 131 -11 q 46 175 46 63 q 154 567 46 433 q 443 701 263 701 q 528 695 493 701 q 596 679 564 689 l 628 725 l 672 714 m 464 208 q 478 277 464 208 q 510 437 492 346 q 540 597 528 528 q 497 626 531 613 q 429 639 464 639 q 273 564 331 639 q 192 385 215 489 q 168 194 168 282 q 192 98 168 122 q 257 74 217 74 q 372 118 308 74 q 464 208 435 163 z "},"r":{"ha":543,"x_min":82,"x_max":600,"o":"m 82 -12 l 206 607 l 100 618 l 94 653 q 210 688 151 674 q 301 701 269 701 q 326 671 326 701 q 314 589 326 646 q 289 457 301 532 q 417 648 349 583 q 600 713 486 713 l 558 506 l 507 506 l 490 606 q 388 529 447 594 q 263 317 329 464 l 214 10 l 82 -12 z "},"ŕ":{"ha":543,"x_min":82,"x_max":610,"o":"m 82 -12 l 206 607 l 100 618 l 94 653 q 210 688 151 674 q 301 701 269 701 q 326 671 326 701 q 314 589 326 646 q 289 457 301 532 q 417 648 349 583 q 600 713 486 713 l 558 506 l 507 506 l 490 606 q 388 529 447 594 q 263 317 329 464 l 214 10 l 82 -12 m 313 775 l 290 801 l 504 982 l 610 943 l 610 918 l 313 775 z "},"ř":{"ha":543,"x_min":82,"x_max":600,"o":"m 82 -12 l 206 607 l 100 618 l 94 653 q 210 688 151 674 q 301 701 269 701 q 326 671 326 701 q 314 589 326 646 q 289 457 301 532 q 417 648 349 583 q 600 713 486 713 l 558 506 l 507 506 l 490 606 q 388 529 447 594 q 263 317 329 464 l 214 10 l 82 -12 m 350 767 l 240 968 l 278 993 l 406 865 l 572 994 l 600 968 l 433 767 l 350 767 z "},"ŗ":{"ha":543,"x_min":26,"x_max":600,"o":"m 82 -12 l 206 607 l 100 618 l 94 653 q 210 688 151 674 q 301 701 269 701 q 326 671 326 701 q 314 589 326 646 q 289 457 301 532 q 417 648 349 583 q 600 713 486 713 l 558 506 l 507 506 l 490 606 q 388 529 447 594 q 263 317 329 464 l 214 10 l 82 -12 m 61 -307 l 26 -297 l 75 -65 l 179 -43 l 200 -67 l 61 -307 z "},"ȑ":{"ha":543,"x_min":82,"x_max":600,"o":"m 82 -12 l 206 607 l 100 618 l 94 653 q 210 688 151 674 q 301 701 269 701 q 326 671 326 701 q 314 589 326 646 q 289 457 301 532 q 417 648 349 583 q 600 713 486 713 l 558 506 l 507 506 l 490 606 q 388 529 447 594 q 263 317 329 464 l 214 10 l 82 -12 m 475 758 l 314 971 l 314 994 l 418 994 l 500 774 l 475 758 m 251 758 l 90 971 l 90 994 l 194 994 l 276 774 l 251 758 z "},"ṛ":{"ha":543,"x_min":39,"x_max":600,"o":"m 82 -12 l 206 607 l 100 618 l 94 653 q 210 688 151 674 q 301 701 269 701 q 326 671 326 701 q 314 589 326 646 q 289 457 301 532 q 417 648 349 583 q 600 713 486 713 l 558 506 l 507 506 l 490 606 q 388 529 447 594 q 263 317 329 464 l 214 10 l 82 -12 m 122 -57 q 180 -81 154 -57 q 206 -140 206 -106 q 180 -197 206 -175 q 122 -219 154 -219 q 64 -197 89 -219 q 39 -140 39 -175 q 64 -81 39 -106 q 122 -57 89 -57 z "},"ȓ":{"ha":543,"x_min":82,"x_max":600,"o":"m 82 -12 l 206 607 l 100 618 l 94 653 q 210 688 151 674 q 301 701 269 701 q 326 671 326 701 q 314 589 326 646 q 289 457 301 532 q 417 648 349 583 q 600 713 486 713 l 558 506 l 507 506 l 490 606 q 388 529 447 594 q 263 317 329 464 l 214 10 l 82 -12 m 394 979 q 506 944 476 979 q 535 858 535 908 q 532 838 535 849 q 528 818 529 828 l 481 818 q 485 840 485 828 q 464 885 482 867 q 385 904 446 904 q 283 878 313 904 q 249 818 254 851 l 203 818 q 257 929 215 879 q 394 979 299 979 z "},"s":{"ha":544,"x_min":10,"x_max":528,"o":"m 339 635 q 228 602 268 635 q 189 521 189 569 q 210 463 189 483 q 271 422 231 442 l 371 374 q 447 317 417 351 q 478 218 478 282 q 404 49 478 111 q 197 -12 331 -12 q 101 -3 153 -12 q 10 28 50 6 l 53 194 l 94 194 l 104 75 q 151 60 125 67 q 215 54 176 54 q 331 84 288 54 q 374 183 374 114 q 355 237 374 213 q 293 281 336 261 l 188 329 q 122 381 153 346 q 92 478 92 417 q 163 638 92 574 q 354 701 233 701 q 441 692 394 701 q 528 661 488 682 l 482 514 l 442 514 l 431 617 q 388 630 415 625 q 339 635 360 635 z "},"ś":{"ha":544,"x_min":10,"x_max":535,"o":"m 339 635 q 228 602 268 635 q 189 521 189 569 q 210 463 189 483 q 271 422 231 442 l 371 374 q 447 317 417 351 q 478 218 478 282 q 404 49 478 111 q 197 -12 331 -12 q 101 -3 153 -12 q 10 28 50 6 l 53 194 l 94 194 l 104 75 q 151 60 125 67 q 215 54 176 54 q 331 84 288 54 q 374 183 374 114 q 355 237 374 213 q 293 281 336 261 l 188 329 q 122 381 153 346 q 92 478 92 417 q 163 638 92 574 q 354 701 233 701 q 441 692 394 701 q 528 661 488 682 l 482 514 l 442 514 l 431 617 q 388 630 415 625 q 339 635 360 635 m 238 775 l 215 801 l 429 982 l 535 943 l 535 918 l 238 775 z "},"ꞌ":{"ha":174,"x_min":75,"x_max":281,"o":"m 118 492 l 75 500 l 154 950 l 265 975 l 281 953 l 118 492 z "},"š":{"ha":544,"x_min":10,"x_max":550,"o":"m 339 635 q 228 602 268 635 q 189 521 189 569 q 210 463 189 483 q 271 422 231 442 l 371 374 q 447 317 417 351 q 478 218 478 282 q 404 49 478 111 q 197 -12 331 -12 q 101 -3 153 -12 q 10 28 50 6 l 53 194 l 94 194 l 104 75 q 151 60 125 67 q 215 54 176 54 q 331 84 288 54 q 374 183 374 114 q 355 237 374 213 q 293 281 336 261 l 188 329 q 122 381 153 346 q 92 478 92 417 q 163 638 92 574 q 354 701 233 701 q 441 692 394 701 q 528 661 488 682 l 482 514 l 442 514 l 431 617 q 388 630 415 625 q 339 635 360 635 m 228 993 l 356 865 l 522 994 l 550 968 l 383 767 l 300 767 l 190 968 l 228 993 z "},"ş":{"ha":544,"x_min":10,"x_max":528,"o":"m 339 635 q 228 602 268 635 q 189 521 189 569 q 210 463 189 483 q 271 422 231 442 l 371 374 q 447 317 417 351 q 478 218 478 282 q 410 56 478 117 q 221 -11 343 -6 l 194 -61 q 292 -85 263 -61 q 322 -143 322 -108 q 257 -257 322 -210 q 113 -304 192 -304 q 71 -302 89 -304 q 36 -294 53 -300 l 56 -257 q 108 -265 78 -265 q 197 -235 161 -265 q 232 -164 232 -206 q 213 -123 232 -142 q 138 -104 193 -104 l 136 -92 l 178 -12 q 91 -2 136 -11 q 10 28 46 7 l 53 194 l 94 194 l 104 75 q 151 60 125 67 q 215 54 176 54 q 331 84 288 54 q 374 183 374 114 q 355 237 374 213 q 293 281 336 261 l 188 329 q 122 381 153 346 q 92 478 92 417 q 163 638 92 574 q 354 701 233 701 q 441 692 394 701 q 528 661 488 682 l 482 514 l 442 514 l 431 617 q 388 630 415 625 q 339 635 360 635 z "}}}
